<svg clip-rule="evenodd" fill-rule="evenodd" height="2048" image-rendering="optimizeQuality" shape-rendering="geometricPrecision" text-rendering="geometricPrecision" viewBox="0 0 2048 2048" width="2048" xmlns="http://www.w3.org/2000/svg"><path d="m489.142 1692.212c-29.4992 9.1878-61.1469 19.0465-92.4863 30.3366.145276 8.59725 6.63189 37.1221 14.2512 37.6429l-.0011811.0141732c90.6178 8.56064 217.08 17.0977 311.746 10.5969 23.2984-1.59921 47.0233-1.75748 71.0398-.838583 23.6185.90945 49.2166 2.10945 76.2036 3.47481l85.154 4.50237c202.003 10.8992 452.423 24.4122 568.069 1.20709 31.3725-40.6949 108.24-161.26 160.446-310.57 34.7634-99.4253 55.539-208.009 52.1918-313.707-106.639 33.8315-213.75 35.2146-319.902-4.78583-12.2894 98.9387-8.11654 194.724-5.70827 276.494 2.11654 71.8571 4.1315 140.31-4.03347 211.06-.167717 1.89921-1.37362 3.36614-3.16772 3.81851-2.14843.540945-6.00945-1.58622-7.89922-2.33504-139.88-55.4422-258.15-22.1575-362.985 7.3441-57.4666 16.1728-110.947 31.2225-162.206 30.2138-50.4863-.992127-80.8595-23.9162-109.08-45.2115-18.4193-13.8992-69.9934-52.4315-94.7304-25.8603l-.210236.226772-.0165354-.0011811c-4.86496 4.8626-11.7189 10.4386-18.6839 15.7004-51.3178 38.7733-90.7631 49.7398-157.993 70.6772z" fill="#b7b7b7"/><path d="m1223.988 649.918c64.8922 24.1429 151.076 77.8642 199.11 145.719 65.1556 17.263 202.358-23.6988 261.595-41.1733-88.2438-155.146-177.147-280.144-281.008-360.234-104.687-80.7284-224.169-124.956-372.045-135.85-132.017-9.72757-210.728 12.7217-254.966 50.6386-27.9083 23.9185-42.0957 54.0945-47.3256 86.2135-5.27481 32.3977-1.47874 66.8493 6.5563 98.9505 14.4756 57.8351 41.6079 107.937 55.2863 124.028l2.07402 2.43898-2.22166 8.92796c-.0814961 1.6748-.158268 3.35197-.231496 5.02323-2.94921 67.1174-.412205 132.814 1.79291 189.864 1.8874 48.8516 3.52914 91.3418 1.23898 122.805-1.75158 24.2835-.630709 61.5579.68504 105.386 3.26575 108.665 7.74686 257.906-27.6626 347.326-10.4587 9.53977-18.3461 46.1008-20.7071 84.7064-2.21929 36.2776.218504 74.8052 9.74292 94.4918 2.71299 5.60434 6.74764 9.30237 11.6634 11.4331 7.31339 3.17008 16.363 2.66575 25.6547-.236221 8.8441-2.76142 18.0307-7.72678 26.1036-13.7055 12.8929-9.54804 23.1012-21.9142 24.8776-32.3811 1.64764-9.70513 3.94725-25.5177 6.62126-43.9087 7.06772-48.593 16.7717-115.305 23.6303-133.052 11.028-28.4079 41.6835-140.954 67.0796-243.068 21.6815-87.1749 39.5504-167.022 38.2217-181.151-1.30748-13.9559-2.8937-28.4646-4.57205-43.8567-27.3107-250.186-53.3268-361.74 248.805-249.334z" fill="#b7b7b7"/><path d="m1385.25 940.987c-5.70355 57.3508-.252756 124.515 28.0264 206.808.218504.635434.274016 1.2874.191339 1.91103.751182-.0897638 1.56496.0200788 2.38701.379134 56.2276 21.6768 111.267 33.9614 164.899 35.1898 53.067 1.21417 104.803-8.38465 155.003-30.404 6.71221-72.3024 4.67244-149.299-4.21654-219.385-9.11339-71.8512-25.4126-136.375-46.8461-181.021-67.9123 19.9087-123.986 31.9547-169.332 37.9276-38.0079 5.00552-68.5477 5.73662-92.2631 3.24567-16.0193 42.4571-32.276 89.3198-37.8485 145.349z" fill="#8e8e8f"/><path d="m324.841 460.643s17.2158-44.2347 28.1185-61.9087c10.9063-17.6752 32.778-41.6457 49.7658-48.1122 12.4547-4.73504 25.6642 2.24055 34.8166-8.09174 9.15237-10.3311 57.9733-78.3721 70.2331-75.5693 18.7276 4.29213 8.12599 13.0866 20.6929 23.1862 4.22363 3.39567 15.1181-1.46693 20.1803-3.1311 5.06339-1.66181 43.0571-26.654 64.9536-14.948 21.8988 11.7071 27.0024 39.7772 32.4307 55.3347 5.42599 15.5599 12.8303 34.4894 21.7701 43.3819 11.4331 11.3752 55.6465-5.24764 82.9312-17.1307 12.9567-5.64449 30.7701 2.92441 30.7701 2.92441.0011811.0011811 19.1563.48189 35.2217 44.1803 16.0795 43.702.367323 94.2202-16.4445 98.4603-16.8142 4.2378-100.245 9.4252-122.897 29.661-22.6725 20.2264-122.402 195.386-244.49 128.341-122.095-67.0335-123.119-162.073-108.053-196.578z" fill="#b7b7b7"/><path d="m379.359 407.614c23.6055 13.2626 32.0114 62.876 62.5784 43.1256 26.1862-16.9169 25.0394-10.3547 47.9185-8.15788 31.5331 3.02362 34.4717-2.00315 43.4091 17.9799 7.29095 11.0173-38.041 60.0497-2.9315 78.2351 35.1024 18.1925 66.4229-33.1666 70.1776-51.5811 3.19252-15.6461 70.5993 2.29252 79.7587 41.0788 4.89922 20.7473-12.7453 41.7166-52.7008 79.5284-133.3 126.157-229.804 105.399-299.999-63.0142-45.9768-110.315-2.20276-193.416 51.789-137.195z" fill="#202020"/><path d="m0 0h2048v2048h-2048z" fill="none"/></svg>