<svg clip-rule="evenodd" fill-rule="evenodd" height="2048" image-rendering="optimizeQuality" shape-rendering="geometricPrecision" text-rendering="geometricPrecision" viewBox="0 0 2048 2048" width="2048" xmlns="http://www.w3.org/2000/svg"><path d="m1152.41 862.677 154.06 120.223-131.29 676.01-60.28-16.23 50-321.25-18.99-169.36-32.89-202.595z" fill="#a8a8a8"/><path d="m1091.95 677.877c-60.1347 51.5126-88.219 147.561-98.3032 214.531 69.7784 45.2681 343.173 175.621 363.447 213.363 14.902 27.8232-17.1898 99.3331-79.9666 349.083-9.65079 38.4638-2.91378 98.8442-1.53189 139.415 1.17756 34.6134-26.8229 63.1123-61.4587 62.5099-66.3426-1.12559-59.6233-31.4138-61.4327-71.2501 25.0866-63.3839 51.2788-120.267 58.5024-187.207 1.9311-37.3807 24.3272-199.762 9.88347-210.253-6.82678-4.963-150.398-84.978-254.53-138.704-108.419 108.418-181.141 37.8922-188.959 30.9036-40.6111-36.3095-150.315-140.639-123.77-321.084 29.7461-202.263 236.041-398.576 355.985-460.054 36.1288 126.235 91.969 271.949 82.1351 378.747z" fill="#b7b7b7"/><path d="m1113.02 949.475c20.498 10.898 41.0185 21.7595 61.4894 32.7083 38.9941 20.8571 78.2823 41.9611 116.301 64.6134.309449-1.2378.620079-2.50748.921261-3.6874 32.7614-128.812 101.907-441.851 106.028-564.025-71.8087-14.6811-251.668 23.0504-313.491 109.562l-.173622 4.963c-3.26221 93.2906-.938977 146.277 8.96339 222.189 4.79882 36.7807 11.3764 78.9426 19.9618 133.677zm32.8902 202.597c-1.32165 24.8433-2.64921 53.5288-4.02638 83.2654-10.7669 232.851-21.6166 400.492-63.3083 436.972-26.3433 23.0528-79.5012 43.3772-130.91 63.0355-33.0095 12.6189-84.3627 32.2536-103.443 46.5225 33.5469 10.3583 125.737 15.6437 299.975 1.63347 8.08465-.650788 15.9874-3.83386 21.6662-9.6319 6.94134-7.08544 10.2248-16.5567 9.20316-26.2914-1.24134-11.8122-2.39764-68.3363.116929-88.6654-9.17835-3.56339-17.2075-9.1878-22.4185-18.0579-8.99292-15.3095-7.43741-37.6512-8.22402-54.9544l-.0791339-1.75158.644882-1.62992c23.954-60.5209 52.6996-118.942 57.9532-184.846 1.0937-13.7173 2.73544-27.5209 4.19764-41.2087 2.13307-19.9642 4.22363-39.9319 6.04489-59.928 2.03977-22.3819 3.91772-45.0827 4.46339-67.5532.13937-5.73189.483071-29.1626-2.15551-34.7823-1.76811-1.22953-3.72638-2.40709-5.5193-3.53859-4.65473-2.93977-9.34489-5.82993-14.0433-8.70237-15.4736-9.46536-31.0736-18.7406-46.7315-27.8977l-3.4063-1.98898z" fill="#b7b7b7"/><path d="m1360.09 326.471c31.8827 40.3985 40.5059 96.0178 37.663 152.613-48.0567 11.7567-239.442 60.6508-316.553 111.545l-71.3835-291.499c60.5032-25.9831 253.406-95.3623 350.274 27.3414z" fill="#8e8e8f"/><path d="m1007.5 1433.6s26.6103-30.3721 35.6599-45.5433c9.04961-15.1748 18.5398-41.0977 16.7421-56.4556-1.32047-11.2571-11.7744-18.4819-7.5756-29.4484 4.19646-10.9654 36.3473-74.5382 29.4142-82.6867-10.5969-12.4429-13.0665-.988583-25.6252-6.50079-4.22126-1.85197-4.83426-11.9835-5.56772-16.4563-.735827-4.47284 3.18898-42.9603-14.2476-54.8811-17.439-11.9209-40.6229-4.74095-54.4937-2.72244-13.8721 2.02087-31.0642 3.87284-41.2866.622441-13.0748-4.15512-17.9091-44.0469-19.6654-69.3024-.832678-11.9941-14.2984-22.0654-14.2984-22.0654-.0011811-.0011811-7.89213-14.2642-47.1744-9.21261-39.2918 5.04213-71.2323 36.75-67.8249 51.1004 3.41103 14.3516 32.2831 79.3371 25.9181 104.38-6.35079 25.0547-99.3142 169.134-.751182 234.899 98.5572 65.7768 170.665 29.2004 190.777 4.27323z" fill="#b7b7b7"/><path d="m1026.09 1371.63c-19.2827-12.5976-60.0178.557481-57.13-30.267 2.47323-26.4047-2.02677-22.9606-12.6756-39.3591-14.674-22.6028-12.0354-26.7957-30.6236-25.6855-11.178-1.17165-30.3579 52.2993-57.8764 32.9563-27.5197-19.3347-1.07953-63.1477 11.3398-73.219 10.5496-8.55709-29.4744-52.3642-62.3374-44.0327-17.5795 4.4563-26.4662 26.0103-39.2929 71.015-42.7985 150.151 10.787 214.804 165.437 201.581 101.299-8.66339 146.796-74.3469 83.1591-92.9894z" fill="#202020"/><path d="m0 0h2048v2048h-2048z" fill="none"/></svg>