<svg clip-rule="evenodd" fill-rule="evenodd" height="2048" image-rendering="optimizeQuality" shape-rendering="geometricPrecision" text-rendering="geometricPrecision" viewBox="0 0 2048 2048" width="2048" xmlns="http://www.w3.org/2000/svg"><path d="m1228.65 1122.87c2.77795 99.9768-8.32796 180.632.101575 261.989 192.554-21.3461 232.816 96.3438 306.494 50.2595 34.3146-11.3563 50.0693-41.6492 82.8012-43.0548 11.4732-.0838583 29.4626 19.6181 41.4284 26.7236 22.8343 16.5602 77.9847 28.6205 132.194 48.2764 1.57087.569292-2.46496 25.8484-10.3217 26.5701-65.9032 6.2256-123.292 4.18701-184.077 4.80709-45.8764.466536-91.6843 3.2067-137.486 5.67638-120.026 6.47953-268.986 14.5217-337.253.493701-70.4256-90.3804-88.8308-284.853-86.7272-404.869 57.8575-23.824 142.324-13.6134 192.847 23.1284z" fill="#b7b7b7"/><path d="m999.867 1047.92c-136.28 57.6071-339.635 22.5756-399.383-82.0914-9.75709 81.332 19.6465 156.826 4.82953 216.098-5.59134 22.2414 15.7099 195.156 12.1335 259.632-3.96969 71.452-1.21299 66.4477-20.6244 66.4477-14.5217 0-107.226 9.10867-185.55-1.35473-12.0366-1.53307 34.878-41.0646 75.0638-42.8445l48.0674.0389764c20.0847-.667323 27.1736-20.2205 23.8488-40.0347-8.113-48.4654-3.63425-86.4261-28.9949-145.433-7.81654-18.1654-11.6622-37.4256-11.4284-57.2752 3.56457-298.279-36.2965-186.603-46.0985-353.21-8.11536-140.756 142.906-202.603 200.528-137.121 92.2217 104.797 234.424 134.71 360.702 114.294-21.6945 47.98-41.6233 151.214-33.0933 202.853z" fill="#b7b7b7"/><path d="m1029.87 1105.51c43.6075-19.4374 136.189-24.5516 195.718 18.7465l3.75945 2.73425 1.91575.67441c.921261.322441 1.36417-1.77756 2.19331-3.05079 22.7681-34.8862 115.285-257.901-200.727-285.02-21.2681 40.4481-41.5548 158.786-33.2398 209.153 27.567 30.9201 26.7721 41.5902 30.3803 56.7626z" fill="#8e8e8f"/><path d="m271.536 655.754s2.11654 32.0752 5.563 45.7099c3.44646 13.637 12.6957 33.5705 22.3524 41.2051 7.07953 5.59371 17.0315 3.77599 20.8406 12.313 3.80906 8.53583 21.4949 62.4201 29.9835 63.1052 12.9709 1.03937 7.91339-6.79843 18.0862-10.7646 3.41811-1.33347 9.46654 4.02402 12.3969 6.12874 2.9315 2.10473 22.3866 25.9795 38.9126 22.8756 16.526-3.10512 25.5355-20.1969 32.2087-29.1414 6.67205-8.94568 15.3071-19.6654 22.891-23.589 9.69922-5.02087 34.8744 14.7142 50.08 27.9437 7.22008 6.28229 20.4697 4.37244 20.4697 4.37244.0011811 0 12.4713 3.58819 31.741-21.3673 19.2815-24.9555 19.4138-60.7843 9.41812-66.9449-9.99804-6.15827-62.8312-26.4898-73.3442-44.1697-10.5284-17.6799-39.2941-151.114-131.798-132.657-92.5064 18.4477-112.51 79.6264-109.801 104.98z" fill="#b7b7b7"/><path d="m295.957 701.102c17.9457-3.76181 33.4725-34.0961 49.1965-15.1181 13.4717 16.2567 14.0658 11.7839 29.2902 15.0213 20.9835 4.46457 21.8587 8.31024 31.6984-2.77795 6.95197-5.63268-12.3496-46.5296 14.0291-51.13 26.3764-4.6063 36.1524 34.9406 34.8307 47.5996-1.12205 10.7563 46.0678 12.8882 59.8772-10.3004 7.3878-12.4039.258662-29.5394-17.8536-62.0941-60.4241-108.617-126.982-114.849-206.597-20.3563-52.1493 61.8969-40.7882 124.482 5.52874 99.156z" fill="#202020"/><path d="m0 0h2048v2048h-2048z" fill="none"/></svg>