<svg clip-rule="evenodd" fill-rule="evenodd" height="2048" image-rendering="optimizeQuality" shape-rendering="geometricPrecision" text-rendering="geometricPrecision" viewBox="0 0 2048 2048" width="2048" xmlns="http://www.w3.org/2000/svg"><g fill="#b7b7b7"><path d="m1550.69 421.901c-38.8689 60.8481-86.3894 106.459-116.653 127.521-22.624 15.7465-35.4685 51.052-55.904 81.619-50.1485 75.0142-98.3611 170.209-99.593 235.025 5.16969 76.7434 97.3324 96.1737 153.463 85.5792 34.1847 70.826 9.30001 169.243-31.3158 233.261-75.8268-27.0839-212.942-78.73-309.694-144.886-98.7709-77.8406-173.519 1.47874-346.372-25.0748-.142913-.0366142-229.619 6.69567-274.766 2.75433-41.7567-3.69922-58.4398-.993308-105.15-18.6437-74.6162-28.2012 54.978-33.9815 68.2985-32.2394 12.3461 1.61457 27.8858 12.4736 45.2941 13.6264 25.6973 1.69961 55.4741 1.20827 85.0961-.943702 45.1288-3.27874 89.8997-10.4161 119.326-19.5378 19.598-6.08859 40.3713-9.47245 61.7457-10.0583 78.0827-2.10473 288.601-26.9764 331.179-88.5012 27.2079-11.0823 62.1638-42.7642 72.9166-78.7465 45.6-66.2304 126.543-97.7103 171.9-164.268l49.8083-73.0843c5.16024-6.5126 92.1296-112.102 169.761-189.01.602363 22.304 3.72992 44.6859 10.6583 65.6067z"/><path d="m1632.47 915.062c39.5079-85.7363 81.9036-189.206 72.5056-214.588-30.7382-82.604-76.8225-222.291-82.2686-297.63-40.3748-53.8394-24.6532-79.9217-23.0634-146.845-19.4162 7.48347-43.7811 23.6599-49.9831 58.265-2.46851 123.259 43.1079 158.936 43.2366 161.445 2.35394 46.1244-2.58898 173.218 11.5075 267.195-20.9445 18.8457-47.041 56.4827-68.9209 89.0257l36.6307 58.8993 60.3556 24.2327z"/><path d="m1425.05 1302.68c5.22284 68.1438 18.0414 134.446 18.2894 135.532 1.03228 4.46929-6.48898 70.0382-11.1213 111.301l-17.5831 167.912c-.390945 3.7689-2.87126 7.02638-6.40394 8.42481l-116.961 46.4197c-3.0189 1.19291-3.41575 3.84213-3.44764 4.92638-.0318898 1.05709.211417 3.65079 3.09449 4.86496 19.2555 8.11182 33.6827 11.2169 44.1319 9.47245 14.5358-2.41654 54.0071-4.88741 80.1272-6.52441 9.43347-.591733 18.3378-1.14921 20.0681-1.35591 10.3547-1.23543 18.5669-10.0488 19.5213-20.9469l2.91024-33.4796c.0425197-.517323.129921-1.03228.253937-1.53425 6.71221-27.2799 15.0662-53.5619 23.1449-78.9851 21.7559-75.7796 41.3516-124.018 32.5796-204.691-3.63189-33.9662 14.6351-103.293 28.3819-154.334l-50.3244-9.3567-66.6615 22.3547z"/></g><path d="m1400.69 1184.91c9.55631 5.88898 22.9618 17.9469 23.8843 32.0492-2.04095 27.7217-1.43976 57.3969.473622 85.7221l116.986-12.998c4.54252-16.8602 8.68938-32.3481 11.5843-45.0178 12.7902-56.0115 56.8796-149.421 14.2335-198.644 11.0315-20.6268 37.6359-72.8611 64.6146-130.956l-96.9863-83.132c-34.4504 51.4205-69.4772 104.962-103.473 119.715 1.45512 29.7284 2.2004 80.882-5.07284 133.716-4.7126 34.2296-12.7996 69.1819-26.2441 99.5446z" fill="#8e8e8f"/><path d="m963.689 632.069s-16.0406 22.8307-21.1382 33.9225c-5.09882 11.0929-9.70631 29.6032-7.33819 40.0217 1.73858 7.63701 9.45355 11.8299 7.37835 19.6736-2.0752 7.84371-19.4728 53.8926-14.1095 58.9796 8.19922 7.76694 9.05079-.284646 18.0862 2.57599 3.03662.960237 4.20591 7.8756 5.03977 10.8945.83504 3.02008.977954 29.752 13.8378 36.6555 12.8599 6.90355 28.2591.259843 37.6406-2.15079 9.3815-2.41181 21.0555-4.95237 28.3193-3.47362 9.28938 1.88977 15.5539 28.9406 18.6236 46.1622 1.45748 8.17914 11.452 14.1059 11.452 14.1059.0011811 0 6.47481 9.21733 33.091 2.84882 26.6232-6.36378 46.2272-30.5044 42.828-40.1126-3.40276-9.60828-28.0335-52.1256-25.5083-69.802 2.51457-17.6823 55.7552-123.529-16.8142-161.44-72.5658-37.9193-119.408-7.47048-131.388 11.139z" fill="#b7b7b7"/><path d="m955.494 676.017c14.1768 7.23308 41.1933-4.81063 41.4839 16.5803.248032 18.3236 3.08622 15.6248 11.6114 26.1059 11.7496 14.4473 10.2473 17.5228 22.9358 15.3874 7.76575-.0188977 16.9984-38.1709 37.3311-26.9114 20.3351 11.2524 5.40119 43.3052-2.38819 51.1406-6.61654 6.6567 24.1134 33.802 46.0772 25.6536 11.7484-4.35945 16.2638-19.8236 21.7559-51.6898 18.3272-106.318-23.2595-146.784-128.535-126.289-68.9575 13.4256-95.3694 61.9111-50.2725 70.0229z" fill="#202020"/><path d="m0 0h2048v2048h-2048z" fill="none"/></svg>