<svg clip-rule="evenodd" fill-rule="evenodd" height="2048" image-rendering="optimizeQuality" shape-rendering="geometricPrecision" text-rendering="geometricPrecision" viewBox="0 0 2048 2048" width="2048" xmlns="http://www.w3.org/2000/svg"><path d="m371.82233 759.499c-7.34646 12.998-7.80945 53.2949-5.47323 98.9847 2.27835 44.5465 7.65355 102.066 11.8725 141.083 6.99686 66.5056 36.5351 169.214-4.52244 218.482-13.7634 16.5154-109.285 49.7717-117.451 68.9422-.863386 2.02559.47126 4.03229 4.87559 5.97402 35.7024 7.91694 73.8166 2.54292 110.4-2.61614 18.4276-2.59843 36.4748-5.14607 53.8595-5.9504 8.65631-.837402 16.213-9.05198 16.4091-18.6272.583465-28.6134 7.10906-73.7339 14.4118-124.249 13.5047-93.4016 29.9303-204.672 15.7158-262.439-.608268-2.48268-6.42875-16.9477 1.61693-14.3173 62.2489 20.3469 190.113 57.3473 266.028 87.0284 14.5866-51.6449 32.4118-134.587 62.4886-179.675-40.5307-5.88898-92.3729-12.4465-133.968-16.6039-146.263-14.6221-284.629-17.4177-296.208 3.90827l-.0555119.0755906z" fill="#b7b7b7"/><path d="m957.989 1002.894c104.643 22.3666 184.801 82.4068 250.631 137.513l123.897 119.362 32.7107 33.5551c7.67127 1.30394 15.0225 1.52362 22.0417.798426 27.111-2.8063 49.7256-19.7587 66.7949-42.9898 17.3209-23.5748 28.9205-53.5548 33.7831-81.9449 2.55473-14.9138 3.24449-29.3433 1.91221-42.117l-.011811-.140551c-9.00237-103.576-128.078-149.969-254.423-199.195-72.1123-28.0949-153.606-61.6595-211.982-102.846-29.2736 46.0146-64.0075 95.0328-65.354 178.004z" fill="#b7b7b7"/><path d="m760.423 850.967c-11.1154 31.8166-18.9957 67.5296-20.8583 100.827 23.3185 9.50788 40.7221 18.5173 48.2067 26.4284 20.3103 21.4689 43.3772 33.1949 71.2359 36.7028 27.5398 3.4689 59.9056-1.0252 98.9847-12.0295.863386-49.1386 46.7681-125.361 65.354-178.004-36.815-19.2201-123.039-38.1142-221.292-52.7741-15.2256 17.3162-30.1347 45.9426-41.6315 78.8493z" fill="#8e8e8f"/><path d="m1771.91 1083.31s-22.5106-24.7181-34.1492-33.574c-11.641-8.85709-32.0835-19.076-44.8855-19.0276-9.38387.0389764-16.3004 7.96654-24.9307 3.49252-8.63032-4.47402-57.9378-36.8386-65.2867-31.8945-11.2228 7.56024-2.02914 10.6583-7.73268 20.4768-1.91693 3.3-10.3075 2.86181-14.0563 3.04961-3.74882.187795-35.0445-6.62245-46.4741 6.613-11.4307 13.2366-7.68071 32.9776-7.31103 44.5772.370866 11.5996.295276 25.9146-3.33071 34.0217-4.63465 10.3701-37.9028 10.6347-58.8426 9.72875-9.94489-.431103-19.4835 9.70985-19.4835 9.70985 0 .0011811-12.4689 5.16496-11.9681 37.9512.491339 32.7933 23.6032 62.0209 35.726 60.5528 12.124-1.47047 68.2713-19.1752 88.2816-11.6079 20.0209 7.5567 129.898 97.4422 193.173 22.4788 63.2847-74.9587 39.9048-137.682 21.2705-156.548z" fill="#b7b7b7"/><path d="m1722.66 1062.25c-12.1583 14.6906-5.12717 49.4268-30.2162 44.1815-21.4925-4.49174-19.0772-.468898-33.5587 6.76418-19.9606 9.96851-23.165 7.40788-23.9811 22.8036-2.00433 9.08741 40.2 29.8418 21.7252 50.68-18.4665 20.8406-52.05-4.98898-59.178-16.1421-6.05788-9.47599-45.8221 19.3736-42.026 47.1839 2.03032 14.8772 18.9343 24.1937 54.7642 38.9339 119.542 49.1835 177.716 11.1165 181.231-117.339 2.29961-84.1418-47.5016-127.683-68.7603-77.0658z" fill="#202020"/><path d="m1339.74 1209.78c-56.7355 17.2866-251.694 17.3929-295.78 27.4205-37.9311 8.60434-83.9115 21.3532-132.247 20.5524-25.5898-.424016-58.3571-10.337-76.669-14.1945-12.0803-2.54528-142.336.770079-75.978 31.9193 47.8973 4.65709 102.755 1.36063 152.597 15.2315 71.1662 19.8071 173.222-.98504 245.361 8.14607 87.1725 11.0327 188.94 4.4315 271.491-20.4579l-88.7753-68.6174z" fill="#b7b7b7"/><path d="m0 0h2048v2048h-2048z" fill="none"/></svg>