<svg clip-rule="evenodd" fill-rule="evenodd" height="2048" image-rendering="optimizeQuality" shape-rendering="geometricPrecision" text-rendering="geometricPrecision" viewBox="0 0 2048 2048" width="2048" xmlns="http://www.w3.org/2000/svg"><g fill="#b7b7b7"><path d="m777.806 855.557c.00236221.0106299.00236221.0212599-.00944883.0318898.0129921.0401575.0129921.0791339.0141732.119291.444095 11.7106 89.6528-35.5276 89.6009-19.1138-.200788 64.7965 3.2067 207.705-.908268 263.326 63.5292 153.775 246.084 139.218 309.614-5.35158-2.68229-72.7312-16.7858-215.12-18.9532-268.84-.544489-13.4906 78.5008 34.2449 78.1158 27.4358l-.0177165.00236221c-.0165354-.298819-.0177165-.61063-.00590552-.929528.724016-1.05473-17.0256-72.8127-53.8182-126.067-60.0756-86.954-151.677-172.155-153.58-172.912-7.66418-10.2012-12.4264 6.19607-15.3496-4.86142-2.92323 11.0575-7.68426-5.33977-15.3496 4.86142-1.91457 2.54528-102.338 91.4635-166.214 179.612-27.2044 37.5437-52.7894 121.689-53.139 122.688z"/><path d="m402.098 1708.89c-6.45591 7.74449-28.6193 18.3059-52.8201 29.8358-31.2107 14.8713-65.9504 31.4256-70.7528 42.7063-.918898 2.15551.491339 4.28386 5.15315 6.33898 37.5709 8.33386 77.6753 2.67874 116.167-2.74961 19.3866-2.73425 38.3788-5.41182 56.667-6.26103 4.89449-.721654 9.15119-3.12284 12.2091-6.5693 3.09685-3.49252 4.98426-8.06457 5.08701-13.0665.603544-29.5666 7.2189-78.0709 14.7012-132.924 13.141-96.3591 32.015-212.969 19.415-277.595l-3.04961-15.639 1.80709-9.28111c1.80473-.472441 3.60355-.934253 5.39056-1.38662 52.4835-13.2803 98.3351-18.1665 140.368-18.0307 5.02087.0165354 18.6603.445276 23.5748.598819 23.5524-35.5429 12.1854-154.205-17.8169-187.849-61.7989 15.4134-127.684 38.7425-172.019 58.6843-116.445 52.376-107.719 108.686-91.2178 215.18 7.00394 45.2091 11.4378 90.2032 18.6461 135.272 10.2496 64.0855 22.6642 141.715-11.5099 182.734z"/><path d="m1371.01 1304.92c46.5626-1.54488 106.319 2.11654 165.79 17.5984l7.52127 1.95827-1.15748 8.50749c-.747638 2.95866-1.41969 6.07796-2.01496 9.34489-11.6445 63.7441 4.7941 184.363 18.3603 283.914 7.47402 54.8386 14.0823 103.328 14.6858 132.888.205512 10.0925 8.16851 18.7524 17.2961 19.6358 18.2882.849213 37.2803 3.52677 56.667 6.26103 38.4922 5.42835 78.5965 11.0835 116.167 2.74961 4.66181-2.05512 6.07205-4.18347 5.15315-6.33898-8.59725-20.1862-109.103-55.1788-123.573-72.5422-43.1823-51.8185-12.1063-159.869-4.75867-229.838l.0437008-.312992c3.6189-35.8902 8.11654-66.6213 12.0555-93.5221 17.5382-119.815 23.7508-162.287-116.12-220.174-40.9477-16.9465-97.4056-36.3059-147.893-49.7563-40.4386 48.6674-50.8784 140.182-18.2232 189.627z"/></g><path d="m658.199 1117.025c15.1016 32.5087 23.2654 64.4516 25.7622 95.9292 2.46378 31.063-.594095 61.6701-7.94646 91.9194 37.8425 1.78937 72.7477 7.36654 107.052 14.0138 19.95 3.86693 39.5374 9.16772 59.3587 14.5323 54.8079 14.8311 111.475 30.163 179.919 15.9721.625985-.177165 1.30394-.211417 1.98662-.0720473 65.9126 13.1197 114.465.131102 161.698-12.5043 14.6516-3.9189 29.1803-7.80591 44.3386-10.9394 45.3933-9.3815 90.4465-18.4925 140.638-20.9563-7.37008-30.4075-10.435-61.1705-7.97008-92.3812 2.51929-31.8945 10.8142-64.2756 26.1945-97.245-71.2205-18.2894-146.64-28.8284-213.114-20.7225-17.7142 25.376-37.6276 45.4996-58.8154 60.4418-30.7311 21.6744-64.1563 32.4803-97.4906 32.667-33.3248.186614-66.4843-10.2496-96.6934-31.0536-20.5394-14.1449-39.7051-33.0756-56.6126-56.7036-65.3221-8.00197-138.457.446457-208.304 17.1024z" fill="#8e8e8f"/><path d="m777.806 855.557c.0011811.0106299.0011811.0200788-.0106299.0307087.0129921.0413386.0129921.0814961.0141732.120473.445276 11.7095 89.6552-35.537 89.6032-19.1138-.0838583 25.9536-.728741 56.4567-1.73268 87.2729l.960237-.625985.447638-3.11221c16.0725-28.702 35.5181-55.1859 57.3331-79.7694 22.2603-25.0855 46.8367-48.0178 72.639-69.4099 6.8315-5.66457 12.0862-12.7063 15.4488-20.5772 3.36378 7.87087 8.61851 14.9138 15.4488 20.5772 25.8012 21.3921 50.38 44.3244 72.6379 69.4099 21.4099 24.124 40.5036 50.1107 56.4367 78.1772l1.12441 1.98189 2.55945 1.5437c-1.30512-37.0063-2.5441-71.4272-3.55158-96.3343-.54567-13.4988 78.5008 34.2449 78.1158 27.4358l-.0177165.00236221c-.0177165-.298819-.0188977-.609449-.00590552-.929528.724016-1.05473-17.0256-72.8115-53.8182-126.067-60.0768-86.954-151.677-172.156-153.58-172.912-7.66418-10.2012-12.4264 6.19607-15.3496-4.86024-2.92323 11.0563-7.68426-5.34095-15.3508 4.86024-1.91339 2.54528-102.338 91.4635-166.213 179.612-27.2044 37.5449-52.7894 121.689-53.139 122.688z" fill="#9a9b9b"/><path d="m1012.509 571.05836221c18.8894-7.28504 30.476 2.39055 37.7717 19.8449 8.71064 20.837 10.7847 53.3386 12.4087 78.8528.944883 14.8488 1.7374 27.2599 3.49725 32.7922 1.3937 4.38426 2.0504 7.69489 2.59961 10.4646 1.72087 8.68938 2.1378 10.787 31.6524 21.9307 15.4299 5.82638 37.6441 23.5453 59.4603 43.5048.340158.311811.681497.624804 1.02047.936615l1.60276-39.6792c.056693-2.44016 2.08465-4.37363 4.52481-4.31693 2.44134.0555119 4.37363 2.08347 4.31811 4.52481l-1.79291 47.5441c18.1606 17.1969 35.2488 34.9028 46.9111 47.3103 1.6748 1.7811 1.58977 4.58504-.191339 6.25985-1.78228 1.67599-4.58504 1.58977-6.26103-.191339-13.7008-14.5772-34.8284-36.4122-56.0965-55.8685-21.0945-19.2992-42.3638-36.3532-56.6185-41.7343-34.1339-12.8894-34.7386-15.9295-37.2319-28.5225-.52441-2.63977-1.15039-5.79685-2.32559-9.49135-2.10945-6.63189-2.93032-19.5047-3.91181-34.9075-1.5815-24.8575-3.60118-56.5205-11.7508-76.0111-5.06575-12.1181-12.7358-19.1953-24.6981-15.5492v143.544c0 .348425-.0389764.686221-.114567 1.00984-.0968505.633071-.317717 2.31614-.356693 4.72796.00354331.421654.00236221.861024-.00236221 1.31575.101575 8.3126 2.50276 23.2276 16.5874 34.904 26.4981 21.9685 51.2646 45.1713 73.5922 70.3312 21.7465 24.5055 41.1355 50.8394 57.4937 79.6595l.783071.47126c7.58386 4.1752 14.6799 9.64253 21.4701 15.7961 13.415 12.1571 33.4347 22.5933 50.5654 15.665 3.33189-1.25906 6.87402-3.68622 9.56576-6.3815 9.14646-8.60079 15.1618-42.13 18.0449-80.4981 3.5315-46.9713 2.55473-103.533-2.19685-143.443-8.76969-73.6819-32.1414-114.243-101.28-135.697-23.6918-7.35237-53.1142-25.8803-68.7969-46.1079-8.20749-10.585-13.7976-40.9252-13.9665-52.65-7.59686 8.49095-15.4075-4.8437-24.6532.231496-16.8331 9.23859-36.0685 12.1382-56.8878 6.28347-14.5347-4.09016-29.8075 13.6323-45.5162.122835 3.2504 38.1213-54.2162 82.9631-83.7272 92.1213-69.1347 21.4512-92.5135 62.0103-101.284 135.697-4.7504 39.9118-5.72599 96.4713-2.19567 143.443 2.94449 39.1725 8.84646 71.3091 18.0378 80.5016 2.84764 2.84646 6.07205 4.97008 9.56812 6.38032 9.1441 4.04882 21.2032 2.01024 30.7666-2.33268 15.0189-6.82323 21.7229-16.6488 35.6953-25.7445.0744095-.518504.243307-1.03465.51378-1.52008 16.6299-29.7355 36.4772-56.8311 58.8107-81.9981 22.3276-25.1599 47.0941-48.3626 73.5922-70.3312 14.0799-11.674 16.4847-26.5819 16.5874-34.8945-.00472441-.46063-.00590552-.904725-.00236221-1.3311-.0389764-2.40827-.259843-4.08898-.356693-4.72205-.0755906-.323622-.114567-.661418-.114567-1.00984v-143.544c-11.9622-3.64607-19.6323 3.43111-24.6981 15.5492-8.14961 19.4906-10.1693 51.1536-11.7508 76.0111-.980316 15.4028-1.80236 28.2756-3.91181 34.9075-1.1752 3.69449-1.80118 6.85158-2.32559 9.49135-2.49331 12.5929-3.09803 15.6331-37.2319 28.5225-14.2547 5.38111-35.524 22.4351-56.6185 41.7343-21.2681 19.4563-42.3957 41.2914-56.0965 55.8685-1.67599 1.7811-4.47874 1.86732-6.26103.191339-1.7811-1.6748-1.86614-4.47874-.191339-6.25985 10.3949-11.0599 25.0996-26.3268 41.0327-41.6929-1.26142-.753544-2.12126-2.1189-2.15788-3.69685l-1.83898-49.4646c-.056693-2.44134 1.87677-4.46929 4.31693-4.52481 2.44016-.056693 4.46811 1.87677 4.52481 4.31693l1.77992 47.0445c2.95512-2.78977 5.93741-5.56654 8.92678-8.30197 21.8162-19.9595 44.0303-37.6784 59.4603-43.5048 29.5146-11.1437 29.9315-13.2413 31.6524-21.9307.549213-2.76969 1.20591-6.08032 2.59961-10.4646 1.75984-5.53229 2.55236-17.9433 3.49725-32.7922 1.62402-25.5142 3.69803-58.0158 12.4087-78.8528 7.29567-17.4543 18.8823-27.1299 37.7717-19.8449z" fill="#b7b7b7"/><path d="m871.084 784.967c21.0945-19.2992 42.365-36.3532 56.6185-41.7355 34.1339-12.8882 34.7386-15.9284 37.2331-28.5213.523229-2.63977 1.14921-5.79685 2.32441-9.49253 2.10945-6.63071 2.9315-19.5036 3.91181-34.9063 1.58268-24.8575 3.60118-56.5205 11.7496-76.0123 5.06693-12.1169 12.737-19.1941 24.6981-15.548v143.545c0 .165354.00944883.328347.0271654.488977h9.72639c.0177165-.16063.0259843-.323622.0259843-.488977v-143.545c11.961-3.64607 19.6311 3.43111 24.6969 15.548 8.14961 19.4917 10.1693 51.1548 11.7508 76.0123.981497 15.4028 1.80236 28.2756 3.91181 34.9063 1.17638 3.69567 1.8 6.85276 2.32559 9.49253 2.49449 12.5929 3.09803 15.6331 37.2319 28.5213 14.2547 5.38229 35.5229 22.4362 56.6185 41.7355 21.2681 19.4563 42.3969 41.2914 56.0965 55.8685 1.6748 1.7811 4.47874 1.86614 6.26103.191339 1.7811-1.6748 1.86614-4.47874.191339-6.25867-11.6622-12.4087-28.7504-30.1146-46.9122-47.3115l1.7941-47.5453c.0555119-2.44016-1.87677-4.46693-4.31811-4.52363-2.44016-.056693-4.46811 1.87677-4.52481 4.31693l-1.60276 39.6792-1.02165-.936615c-21.815-19.9595-44.0292-37.6772-59.4591-43.5036-29.5134-11.1449-29.9315-13.2437-31.6524-21.9319-.548032-2.76851-1.20473-6.08032-2.59961-10.4646-1.75984-5.53347-2.55236-17.9421-3.49725-32.7922-1.62402-25.5154-3.69685-58.0158-12.4087-78.8528-7.29567-17.4543-18.8835-27.1311-37.7717-19.8449-18.8894-7.28623-30.476 2.39055-37.7705 19.8449-8.71182 20.837-10.7858 53.3374-12.4099 78.8528-.944883 14.85-1.7374 27.2587-3.49607 32.7922-1.39488 4.38426-2.05158 7.69607-2.60079 10.4646-1.72205 8.6882-2.1378 10.787-31.6524 21.9319-15.4288 5.82638-37.6441 23.5441-59.4591 43.5036-2.99055 2.73544-5.97166 5.51221-8.92796 8.30316l-1.77992-47.0457c-.056693-2.44016-2.08465-4.37363-4.52481-4.31693-2.44134.056693-4.37363 2.08347-4.31811 4.52363l1.84016 49.467c.0354331 1.57559.896457 2.94213 2.15788 3.69567-15.9331 15.3662-30.6378 30.6331-41.0327 41.6941-1.6748 1.77992-1.58858 4.58386.191339 6.25867 1.7811 1.6748 4.58504 1.58977 6.26103-.191339 13.7008-14.5772 34.8284-36.4122 56.0965-55.8685z" fill="#9a9b9b"/><ellipse fill="#b7b7b7" rx="35.1555" ry="57.0319" transform="matrix(-.518615 -.155341 -.155341 .518615 1110.61 403.764)"/><ellipse fill="#b7b7b7" rx="35.1555" ry="57.0319" transform="matrix(.518615 -.155341 .155341 .518615 918.964 403.764)"/><path d="m917.629 377.579c0 18.7453 2.57953 37.7859 7.40434 55.8792 4.77402 17.9008 11.7413 34.8803 20.576 49.7315 18.9354 19.3406 37.1162 30.587 54.0296 35.3469 18.4063 5.17559 35.387 2.62559 50.23-5.52048 13.8721-7.61575 25.9701-20.1272 35.713-35.8252.8563-1.38071 1.69606-2.78622 2.51575-4.21536 15.098-26.3067 23.824-60.4453 23.824-95.3942h.0188977c0-36.3012-9.66261-60.3851-26.5146-75.2788-16.8898-14.9268-41.3008-20.9126-70.6477-20.9126s-53.7603 5.98583-70.6501 20.9126c-16.8402 14.8831-26.4992 38.9622-26.4992 75.2764z" fill="#ababab"/><path d="m932.625 436.218s-7.7067-57.7985 8.99056-75.4607c0 0 70.0016 43.0288 107.571-5.45788 0 0 2.24764-23.6008 16.2165-24.5646 0 0 19.5851 7.86615 29.8607 58.2815l-.320079 47.8453 18.4488-35.6433s27.4701-70.9654-10.4221-97.6194c0 0 1.92874-52.6619-105.323-47.2016 0 0-66.7914-3.85276-86.7001 71.2855-8.74607 33.4217-2.63622 58.5603 2.88544 72.3166l.0177165.416929.747638 1.42795c2.79331 6.52087 5.24292 9.99804 5.25 10.0099l12.776 24.3638zm-12.776-24.3626v-.0011811" fill="#202020"/><path d="m0 0h2048v2048h-2048z" fill="none"/></svg>