<svg clip-rule="evenodd" fill-rule="evenodd" height="2048" image-rendering="optimizeQuality" shape-rendering="geometricPrecision" text-rendering="geometricPrecision" viewBox="0 0 2048 2048" width="2048" xmlns="http://www.w3.org/2000/svg"><g fill="#b7b7b7"><path d="m1148.56 986.183c6.06615-37.4374 34.4882-128.785 27.4583-236.09-4.14095-63.2008 10.1185-114.39 43.2-123.478 87.0414-23.9173 183.412-16.6961 188.876-16.5815 46.3985.558662 98.0977-11.8996 154.301-11.7189 190.563.615355 370.516 9.01064 5.01969-43.9772-11.2843-1.63465-26.4449-6.42402-38.7803-8.17442-47.4225-6.72402-77.8347-12.3165-108.736-9.77599-60.4311 5.01615-189.267-20.5252-243.454 8.97638-101.41 20.9162-199.368 20.9162-312.609 0-49.3229-37.0666-180.874-26.3303-239.933-40.0807-30.2032-7.00394-61.1044-5.89489-109-6.13583-10.5957-.0531496-21.8764 1.6748-32.1603 3.64843-27.6107 5.29961-53.3292 13.3559-79.2367.884646l-147.502-22.5177c41.3233 40.9961 139.201 24.9803 156.946 50.8075 24.3378 3.7252 43.7575 10.1221 63.2587 14.6032 47.4969 10.9134 88.2414 20.9079 149.035 29.0941 5.42363.682678 101.821 7.54725 191.186 48.3355 92.2737 31.2 79.539 268.011 71.791 323.09 23.8914 44.1685 213.898 50.7367 260.339 39.091z"/><path d="m946.372 1172.35c-57.8871 73.1918-134.92 169.04-172.492 201.924-13.0264 11.4012-24.9402 26.4957-34.4622 43.6583-53.3056 111.438-122.121 100.402-219.69 312.571-18.8043 50.4036-43.4646 4.63465-137.792 39.424-22.4658-.388583-28.1764-5.65867-31.9382-30.6733-4.18937-27.8492 124.463-50.7945 140.145-76.8945 13.8992-23.1461 44.224-75.8493 91.1658-168.801 14.5949-28.8981 152.816-288.94 210.984-393.159 26.113 26.5181 113.125 59.6823 154.08 71.9504z"/><path d="m1064.97 1168.54c130.401 78.6485 263.216 89.0162 294.275 110.532-44.1296 126.985-5.39292 327.741-32.4957 449.448 2.05276 52.0052 73.7977 4.27087 168.025 37.4044 23.1744-2.83229 26.6693-13.9524 19.5366-31.0122-12.9662-28.2744-102.49-34.3973-109.374-62.8241-29.8595-123.451 94.3005-397.52 33.0992-494.039-31.1032-40.9276-162.712-81.9662-251.584-120.416-32.3681 17.1213-99.6662 58.3619-121.482 110.907z"/></g><path d="m946.371 1172.35c-19.5484-5.3126-132.4-38.9244-154.081-71.9504 12.6673-33.3154 54.7122-111.047 95.9268-153.304 30.939 42.039 224.514 45.0107 260.338 39.091 2.74134 18.8823 28.917 50.2323 37.8945 71.4473-21.6792 33.0272-101.935 105.593-121.484 110.907-8.52048-6.82205-46.6689-22.9465-63.7288-33.4359-11.7083 6.71575-40.3548 26.5524-54.8658 37.2449z" fill="#8e8e8f"/><path d="m1562.39 598.315c36.0012 8.10473 69.443 14.5193 86.8335 14.9799 45.5918 1.15276 63.2906 6.13583 115.956-7.17993 84.1312-21.2776-55.2331-43.513-69.8457-43.2733-40.8567.673229-84.7489-.320079-127.925-8.50276l-5.01851 43.976z" fill="#b7b7b7"/><path d="m476.203 546.573c-36.8729-1.48937-70.8343-3.94961-87.7524-8.00552-44.3351-10.6854-62.7213-10.4539-110.146-36.9461-75.7571-42.3284 64.6134-27.7347 78.6662-23.7213 39.2894 11.224 81.9438 21.6248 125.766 24.8953l-6.53386 43.7776z" fill="#b7b7b7"/><path d="m1122.38 297.591s23.8677 21.802 32.4142 33.0697c8.54764 11.2701 18.3992 31.0512 18.3331 43.4303-.0519685 9.07442-7.72796 15.75-3.41339 24.1028 4.31221 8.35158 35.5359 56.0764 30.7429 63.1749-7.32638 10.8413-10.3087 1.94764-19.8106 7.44804-3.1937 1.84843-2.78268 9.96261-2.96929 13.5862-.187795 3.62481 6.35197 33.8977-6.463 44.9303-12.8162 11.0327-31.8992 7.37835-43.115 7.00394-11.2169-.376772-25.0583-.323622-32.9032 3.17008-10.0335 4.46575-10.3382 36.6343-9.49371 56.8831.401575 9.61654-9.41812 18.8256-9.41812 18.8256 0 .0011811-5.0126 12.0496-36.7146 11.5181-31.7091-.52441-59.9363-22.9158-58.5-34.6359 1.44095-11.7213 18.6425-65.9871 11.3551-85.3477-7.27678-19.3701-94.0312-125.749-21.4512-186.823 72.5741-61.0831 133.192-38.3835 151.407-20.3362z" fill="#b7b7b7"/><path d="m1142.67 345.247c-14.2228 11.7354-47.8004 4.88504-42.7666 29.1532 4.31221 20.7886.426378 18.4477-6.58938 32.4402-9.66851 19.2862-7.19764 22.3878-22.0855 23.1543-8.78977 1.9252-28.7965-38.9162-48.9733-21.0827-20.1791 17.8264 4.74804 50.3374 15.5221 57.2469 9.15237 5.87245-18.802 44.2796-45.6874 40.5685-14.3823-1.98543-23.3658-18.3449-37.5674-53.0126-47.3811-115.664-10.487-171.86 113.73-175.069 81.365-2.10118 123.393 46.1197 74.4178 66.6012z" fill="#202020"/><path d="m0 0h2048v2048h-2048z" fill="none"/></svg>