<svg clip-rule="evenodd" fill-rule="evenodd" height="2048" image-rendering="optimizeQuality" shape-rendering="geometricPrecision" text-rendering="geometricPrecision" viewBox="0 0 2048 2048" width="2048" xmlns="http://www.w3.org/2000/svg"><path d="m1187.8026 1212.828c-43.5 6.66969-33.4323 12.9106-104.937 3.68386-2.78386-.350788-4.7563-2.89607-4.40552-5.67993.351969-2.78504 2.89607-4.75748 5.68111-4.40552 69.9898 9.0319 59.3056 2.88544 102.147-3.68386 29.713-4.5567 60.7477-9.31654 104.156-9.46064 9.56576-.0318898 29.6847.565748 37.904.833859-.320079-1.26024-.164173-2.64331.550394-3.85158 37.1079-44.4272-6.15473-89.2938-17.9197-126.846-265.279-30.613-630.765 167.287-269.301 265.74 28.5626 6.6567 60.1182 14.0102 121.58 7.31221l.643701-.0578741 78.0627-3.81496c149.369-7.28504 256.279-12.502 306.74-16.7102 2.27362-.257481 4.5189 1.04646 5.35276 3.28937l-.0165354.00708662c11.0079 29.5536 71.8973 25.6323 125.845 22.1563 30.3414-1.95473 58.591-3.77481 76.18.579922 10.4469 1.08898 18.2138.488977 23.9681-1.85433 5.13071-2.09173 8.76733-5.74725 11.4425-11.0102 3.04488-18.7642-7.41615-25.1209-22.754-27.8315-7.52835-1.32992-16.1362-1.88977-24.9945-2.46378-36.091-2.3374-76.0831-4.93111-76.0123-55.0441.0283465-19.7327-12.2835-26.3504-41.8382-26.3918-21.8362-.0307087-52.676 3.45-93.8316 8.09528l-10.0264 1.12913c-54.743 6.15945-77.2867-.0448819-104.856-7.63347-26.1792-7.20591-57.039-15.7004-126.719-15.4701-42.3815.140551-73.167 4.86378-102.64 9.38268z" fill="#b7b7b7"/><path d="m475.418 1094.83s38.7402 20.3646 57.0189 26.0658c18.2811 5.70119 48.0012 9.14764 63.7335 3.36969 11.5311-4.23898 16.5024-17.0835 29.1213-15.4311 12.6189 1.65 87.7512 19.4587 94.5851 10.0913 10.435-14.315-2.26063-14.0221.373229-28.6512.883465-4.91693 11.4059-8.12599 15.9343-10.0299 4.52953-1.9063 46.0855-7.50237 54.2398-28.8945 8.15434-21.3933-5.27599-44.0126-10.911-58.1221-5.63741-14.1095-11.9374-31.7599-11.0965-43.3559 1.07244-14.8311 41.8937-30.013 68.0682-38.2512 12.4299-3.91063 19.6406-20.6504 19.6406-20.6504 0-.0011811 13.037-11.9244-2.22047-52.0477-15.2504-40.1374-56.7461-65.7815-71.0079-58.5626-14.2642 7.22481-75.4536 54.0874-103.458 53.7119-28.0122-.356693-203.372-61.9016-247.761 58.6087-44.4012 120.508 12.3827 187.256 43.7398 202.149z" fill="#a8a8a8"/><path d="m545.433 1098.74c8.40119-23.5087-15.7654-63.1146 17.452-67.865 28.4551-4.07126 23.687-7.94292 38.2784-23.3126 20.1106-21.1807 25.1977-19.461 19.3264-38.7709-1.59095-12.078-62.7981-18.7701-49.3689-52.6642 13.4185-33.8941 66.2812-17.1059 80.0351-6.56457 11.687 8.95394 47.7367-44.3067 30.6449-76.8355-9.14292-17.4-34.1055-21.3154-84.782-23.4543-169.074-7.13741-223.664 65.6882-170.621 225.338 34.7469 104.573 115.479 135.913 119.035 64.1292z" fill="#202020"/><path d="m941.852 1003.94c28.9772-16.6973 60.3567-10.7315 181.038 3.76063 57.4973 6.90355 133.8 23.1473 185.271 52.0453 32.8819-3.19961 137.048-282.365 103.049-333.653-126.37-32.7874-318.349-31.2662-465.204-.994489-63.9898 13.1906-122.511 32.6374-169.089 58.5745 1.05709 64.7918 45.8268 124.272 43.4138 174.121l121.52 46.1469z" fill="#b7b7b7"/><path d="m1320.6002 891.97c-16.3701 49.2355-25.2567 103.699-15.1807 155.529.115748.601182.121654 1.19882.0307087 1.77165-.806694 8.00316 4.8189 21.091 11.4177 36.4453 13.5591 31.5414 30.939 71.967 10.0713 108.333 46.3737 2.25827 71.2016 9.09213 92.8914 15.0626 12.8209 3.52914 24.5138 6.74764 39.1524 8.4567 38.1.916536 74.5087-23.0327 105.643-57.6662 40.6819-45.2563 72.1571-108.487 86.9658-159.045 2.01614-6.88229 3.57874-13.728 4.70906-20.524 9.98032-59.9563-14.7791-113.193-55.689-155.478-41.3457-42.7335-99.0686-74.3138-154.352-90.5079-11.8228-3.46299-23.5701-6.22796-35.0457-8.24528-1.15394 1.25079-2.46024 2.74607-3.90237 4.47284-.111024.148819-.230315.290551-.355512.426378-19.1917 23.1201-61.3772 85.8402-86.3552 160.969z" fill="#8e8e8f"/><path d="m853.555 871.658c-.746457 51.9154-113.178 223.671-127.334 239.955-39.4359 25.8355-250.516 193.975-276.372 187.641-29.6138-1.82953-71.465-2.50276-108.275-.0625985-27.6142 1.83189-52.2662 5.39882-66.4406 11.5228-12.7417 5.50512-32.3386 27.3213-6.32126 30.5315 29.4898 3.63662 143.665 6.51142 174.093 3.61418 2.08819-.199606 90.4701-29.2264 110.072-35.4461l229.381-131.061c66.9934-68.7945 215.314-173.166 241.089-269.14l-169.892-37.5544z" fill="#b7b7b7"/><path d="m0 0h2048v2048h-2048z" fill="none"/></svg>