<svg clip-rule="evenodd" fill-rule="evenodd" height="2048" image-rendering="optimizeQuality" shape-rendering="geometricPrecision" text-rendering="geometricPrecision" viewBox="0 0 2048 2048" width="2048" xmlns="http://www.w3.org/2000/svg"><path d="m774.557 1644.59c2.18977 11.713 3.60827 23.1295 3.82677 34.1126 49.8284-15.1335 85.5072 9.68387 154.197 13.2154-87.4123-49.7587-196.034-245.077-171.957-415.57 66.0662-12.287 134.335-16.0536 198.072-11.2524-52.4363 152.078 162.891 221.977 175.41 366.859 4.10315 39.6378-16.0288 119.392-68.1378 135.567-26.4095 13.2106-71.517 14.9528-75.567 15.6154-91.3253 14.9693-166.074 8.09883-231.528.408662-74.5536-8.75788-79.9005.470079-73.0619-71.9044 1.15984-12.2705 2.66693-25.6323 4.29922-39.7063l84.4465-27.3449z" fill="#b7b7b7"/><path d="m1013.08 1054.35c10.5473-74.9741 36.3721-275.179 15.0662-347.6-15.7914-53.6705 2.01024-121.169 22.5331-176.196 10.2437-27.4666 47.3433-112.689 51.9792-119.53 23.4177-34.5685 75.704-88.6335 93.4761-105.582 63.8882 5.55945 50.3705-42.717 6.23386-48.8717-1.29921-.638977-6.48544-1.01339-9.53977.402756-75.9993 56.8512-124.517 51.9378-153.62 62.0823-25.9016 12.052-10.6701 47.3729-8.54292 70.8071 6.90945 76.3052-152.003 204.179-117.593 364.859 4.04882 16.8756-63.0922 247.499-84.6367 299.314 113.308 35.1709 110.213 9.3319 184.644.314173z" fill="#b7b7b7"/><path d="m958.696 1265.09c28.5591 2.89961 55.1457-187.014 54.3804-210.743-8.90434-2.56654-85.2993 25.3606-166.563 1.23425-67.089-19.9158-108.483 120.597-85.8898 220.761 42.874-1.79055 164.903-14.6232 198.072-11.2524z" fill="#8e8e8f"/><path d="m760.068 1468.13c-.536221 2.81929-.983859 5.6693-1.34764 8.53701-7.45985 58.7422 4.47284 107.146 16.0595 169.128l-84.8351 27.5599c7.40316-63.8552 14.328-144.189 21.6142-202.658 7.09607-56.9398 2.57953-29.4248 24.0957-74.5666 20.1567-42.2906 71.6067-48.0992 48.5244 54.4075-2.04449 9.08032-21.1914 6.07087-24.111 17.5925z" fill="#b7b7b7"/><path d="m1351.82 1640.56s-16.2201-21.8244-24.9236-29.9327c-8.70591-8.10946-24.424-18.0331-34.7894-19.0276-7.59804-.72756-13.8366 5.12953-20.4603.810237-6.62245-4.31811-43.9122-34.4977-50.2595-31.0902-9.69331 5.21221-2.50394 8.46142-7.91339 15.9473-1.81772 2.51575-8.57363 1.48347-11.6221 1.3311-3.04961-.15-27.828-8.19213-38.1485 1.59567-10.3205 9.78898-8.8819 26.0693-9.52087 35.4862-.636615 9.4193-1.85551 20.9988-5.44489 27.267-4.58977 8.01733-31.5355 5.54174-48.4099 3.11575-8.01379-1.15158-16.5532 6.28347-16.5532 6.28347 0 .0011811-10.5095 3.17244-12.7547 29.7484-2.25355 26.5795 14.0894 52.102 24.0189 51.8953 9.9319-.210236 56.8052-10.0004 72.3886-2.25827 15.5917 7.73386 97.252 89.3635 154.523 33.8079 57.2776-55.5496 43.4268-108.204 29.8701-124.98z" fill="#b7b7b7"/><path d="m1313.66 1619.54c-11.028 10.9075-8.14489 39.5882-28.0264 33.3154-17.0315-5.37284-15.4016-1.92166-27.7075 2.76142-16.9595 6.45473-19.3453 4.12323-21.2516 16.5177-2.3563 7.19174 30.1229 27.4004 13.487 42.7725-16.6311 15.3732-41.7225-8.24528-46.5898-17.8488-4.1374-8.15788-38.6516 11.9764-37.8272 34.7906.440552 12.2043 13.3677 21.111 41.1756 35.9374 92.7709 49.4681 142.931 23.3634 156.16-80.3162 8.66339-67.9111-28.1232-107.177-49.4197-67.93z" fill="#202020"/><path d="m0 0h2048v2048h-2048z" fill="none"/></svg>