<svg clip-rule="evenodd" fill-rule="evenodd" height="2048" image-rendering="optimizeQuality" shape-rendering="geometricPrecision" text-rendering="geometricPrecision" viewBox="0 0 2048 2048" width="2048" xmlns="http://www.w3.org/2000/svg"><path d="m492.46 1459.81h975.002v101.562h-975.002z" fill="#a8a8a8"/><path d="m895.432 1569.63-12.745 33.76 37.12 18.75 208.513.1 75.67-7.93 63.32-45.93-150.86-13.13z" fill="#a8a8a8"/><g fill="#b7b7b7"><path d="m829.837 1537h.0011811-.0011811.0011811-.0011811c-43.0004-10.924-120.659-26.6268-189.984-37.6807-54.567-8.70119-104.016-14.5134-127.495-12.8539-2.10945.147638-3.69922 1.98071-3.5504 4.08898.147638 2.10827 1.98071 3.69803 4.08898 3.5504 22.8862-1.61811 71.719 4.14922 125.758 12.7654 68.9115 10.9866 146.23 26.6268 189.193 37.5343.114567.0318898.231496.0602363.350788.0826772l.00826772-.011811c22.8638 4.22835 57.1063-5.42953 92.4237-15.3921 26.8087-7.56142 54.254-15.3024 77.1638-17.0858 2.09173-.0531496 6.06497-2.32559 9.41694-2.79567 5.62205-.790158 11.2228.302362 16.0288 2.86654 4.80591 2.56418 8.82757 6.60355 11.2984 11.7047 1.12795 2.33032 1.93347 4.88504 2.34331 7.62048.10748 1.44921 1.03819 2.77559 2.4874 3.31418l.00590552-.0129921 151.948 56.5961c1.77874 14.511 3.44173 24.4547 4.57441 31.239.640158 3.84095 1.10906 6.65079 1.31929 8.60552.187795 1.7563-.0767717 1.88268-1.07008 1.98898-22.9855 2.47087-45.4524-8.49095-71.0646-20.9858-37.1233-18.111-80.6469-39.3449-143.188-29.5831-8.77442 1.37008-92.2973 13.4764-192.905 20.6575-53.2666 3.80079-111.226 6.21615-165.206 4.90867-8.66812-.209055-21.3662.255118-36.8929.822048-61.0371 2.2311-166.227 6.07914-234.848-23.3587-24.9059-10.6819-39.7311-28.9536-47.5323-51.7619-7.88268-23.0374-8.70237-50.7697-5.52284-80.0906 16.239-31.0146 77.3008-51.4961 151.121-64.3182 118.752-20.6268 221.175-17.1425 337.659-13.4917h.0153543c1.47756 14.1508 24.274 30.7217 32.6481 36.4536 28.7445 19.6784 64.0642 33.4559 97.7965 41.4992 118.567 28.2721 236.967-6.26457 337.344-71.2075l6.0626-3.92244-1.63465-2.89725c68.4922-2.78504 147.432-.305906 225.304 7.62166 74.9658 7.63229 148.939 20.3256 211.616 38.2359 19.8732 5.67874 34.3618 12.2705 44.2099 19.578 7.49764 5.56418 12.2433 11.5051 14.5854 17.7366 2.29134 6.09567 2.29606 12.6012.350788 19.4103-1.91575 6.69922-5.6941 13.6937-11.0327 20.8878-2.75197 3.70866-5.85709 8.14016-9.18308 12.8882-15.1169 21.5788-35.0292 49.9996-58.128 60.3886-71.2004 32.0233-176.58 33.0626-286.664 34.1457-63.1772.623623-127.9 1.26142-188.724 7.74568-1.04764-6.52796-2.32795-15.098-3.68032-26.4095l.00354331-.00590552c-.190158-1.59449-1.33465-2.8441-2.79331-3.24449l-79.4127-29.5784h.0011811c65.8441-1.61811 117.278-7.67481 166.787-19.4622 51.1973-12.189 100.322-30.5055 161.189-56.3835 1.9441-.826772 2.84882-3.07559 2.02323-5.01969-.826772-1.9441-3.07559-2.84882-5.01969-2.02205-60.4418 25.6973-109.201 43.8792-159.959 55.9654-49.5024 11.7862-116.186 18.6425-183.001 20.2252l-54.3721-20.2524c-.581103-2.78622-1.48819-5.41418-2.66811-7.85079-3.19016-6.58938-8.38701-11.8075-14.5961-15.1205-6.20788-3.31063-13.4291-4.72441-20.6717-3.7063-3.18071.446457-6.36142 1.35945-9.45827 2.77795-23.5406 1.91339-51.1583 9.70276-78.1418 17.3138-34.3252 9.68268-67.6087 19.0713-88.7245 15.287z"/><path d="m1261.63 1378.75c-12.4382-22.0417-74.7402-111.013-65.7071-166.354 19.1906-117.591 28.7799-85.3489 16.8815-172.54 8.72127-17.9646 24.8953-38.0339 44.4886-6.66615 10.7835 17.2689 21.6248 31.5461 30.5918 39.274 46.2744 39.88 107.143 76.0312 136.128 108.709 58.7906 66.2623 129.354 122.123 202.725 166.515 52.5107 32.6729 113.368 66.4453 165.144 101.637 4.27441-96.3461-112.511-148.27-129.983-140.923-57.7678-62.8831-181.249-166.083-197.143-182.649-18.4441-35.6681-47.1071-73.343-78.932-104.698-5.77441-5.68701-67.9843-163.74-184.657-206.744-3.18662-.393307-55.6937-15.9614-58.8048-16.3748-10.2354-2.06693-20.276-4.13622-21.874-4.67126-29.3551-9.79725-46.3654-24.9567-50.8949-59.3764-12.3473 4.88032-25.4988 7.67717-39.2492 7.67717-18.0142 0-35.1697-4.63701-50.9563-12.4016-4.14095 35.8819-21.2292 54.1229-51.1288 64.1008-1.66417.553937-8.81694 1.97953-16.5957 3.47126-3.10276.403937-61.6583 17.1898-64.8378 17.576-116.672 43.0028-178.882 201.056-184.656 206.743-31.8248 31.3547-60.4878 69.0296-78.932 104.698-15.8941 16.5662-139.375 119.766-197.143 182.649-17.4721-7.34646-134.257 44.5772-129.983 140.923 51.776-35.1922 112.634-68.9646 165.144-101.637 73.3701-44.3929 143.934-100.253 202.725-166.515 28.9855-32.6776 89.8536-68.8288 136.128-108.709 8.96694-7.72796 19.8071-22.0063 30.5918-39.274 25.3193-40.5343 41.7544-2.6752 57.8126 25.6205-9.92009 49.6288-8.30788 32.9847 4.31575 153.22 5.83111 55.539-52.6524 143.332-64.9406 164.714-5.65985 9.84804 41.4756 66.6686 116.4 87.5127 87.7713 24.4169 214.85 6.68386 357.342-85.5072z"/><path d="m952.1416 1642.0127c34.7776-5.68111 85.1434-10.6996 144.084-16.5697 10.4386-1.03937 21.15-2.10591 32.0906-3.20788-2.17677-1.05354-4.37244-2.1248-6.59174-3.20788-36.1465-17.6339-78.528-38.3114-138.663-28.9229-5.863.914174-44.8831 6.5941-99.9391 12.4122-.105118.302362-.250394.595276-.435827.872835-22.0996 32.9799-29.4898 52.1575-28.4882 62.5453.403937 4.20355 2.44843 6.64252 5.47559 7.8319 3.68622 1.44803 8.82757 1.41024 14.5063.506693 18.8646-2.99646 41.8111-14.6575 42.3721-15.4146l.197244-.242126c9.31418-12.3685 17.4071-13.6843 33.515-16.298l1.87677-.305906z"/></g><path d="m918.226 1453.88c-33.7323-8.04331-69.052-21.8209-97.7965-41.4992-8.21339-5.62205-30.3012-21.6709-32.5394-35.6362l-102.163 130.337c55.526 9.88702 110.441 21.3697 144.11 29.9233 21.1158 3.78425 54.3993-5.60434 88.7245-15.287 26.9835-7.61103 54.6012-15.4004 78.1418-17.3138 3.09685-1.41851 6.27756-2.3315 9.45827-2.77795 17.5252-2.46142 34.2851 9.17127 37.9359 26.6776l54.3721 20.2524c66.815-1.58268 133.499-8.43898 183.001-20.2252 28.6051-6.81142 56.5748-15.5587 86.3599-26.4957l-107.832-125.982 1.63465 2.89725-6.0626 3.92244c-100.377 64.943-218.777 99.4796-337.344 71.2075z" fill="#8e8e8f"/><ellipse fill="#b7b7b7" rx="35.1555" ry="57.0319" transform="matrix(-.766369 -.229551 -.229551 .766369 1168.61 591.439)"/><ellipse fill="#b7b7b7" rx="35.1555" ry="57.0319" transform="matrix(.766369 -.229551 .229551 .766369 885.419 591.439)"/><path d="m883.446 552.745c0 27.7004 3.8126 55.8367 10.9417 82.5745 7.05473 26.452 17.3504 51.5422 30.4051 73.4894 27.9803 28.5792 54.8481 45.1996 79.8414 52.2319 27.1984 7.64882 52.2922 3.87992 74.2253-8.15788 20.4992-11.2536 38.3764-29.7414 52.7729-52.9394 1.26732-2.03977 2.5063-4.11733 3.71929-6.22914 22.3087-38.8737 35.2051-89.3221 35.2051-140.965h.0271654c0-53.6445-14.2784-89.2335-39.1819-111.242-24.9567-22.0571-61.03-30.9036-104.397-30.9036-43.3677 0-79.4422 8.84646-104.401 30.9036-24.8847 21.9933-39.1583 57.5764-39.1583 111.237z" fill="#ababab"/><path d="m905.606 639.396s-11.3882-85.4091 13.2862-111.508c0 0 103.442 63.5835 158.96-8.06575 0 0 3.32126-34.8768 23.9634-36.3 0 0 28.9429 11.6244 44.1272 86.1249l-.474804 70.7008 27.2634-52.6701s40.5922-104.867-15.4004-144.254c0 0 2.85-77.8194-155.638-69.7512 0 0-98.7001-5.6941-128.119 105.34-12.9248 49.3878-3.89646 86.5359 4.26378 106.863l.0248032.616536 1.10669 2.11063c4.12796 9.63662 7.74686 14.7732 7.75749 14.791l18.8788 36.0024zm-18.8788-36v-.00236221" fill="#202020"/><path d="m0 0h2048v2048h-2048z" fill="none"/></svg>