<svg clip-rule="evenodd" fill-rule="evenodd" height="2048" image-rendering="optimizeQuality" shape-rendering="geometricPrecision" text-rendering="geometricPrecision" viewBox="0 0 2048 2048" width="2048" xmlns="http://www.w3.org/2000/svg"><path d="m644.054 1211.96c18.6024 13.3512 45.5528 38.2571 68.5701 59.6044 75.9107-28.8839 127.657-89.8796 102.287-117.031-31.5036-33.7158-197.779-100.194-251.777-133.095-85.7339-46.5154-92.5796-90.3343-172.602-154.8-7.75394-6.24567-14.5547-11.9516-20.1532-16.9547-47.8548-85.1257-26.2429-167.412-37.8213-200.594-4.02402-11.5287-13.3902-20.2748-22.8721-27.5563-.836221-.635434-1.62874-.486615-2.14016-.269292-31.7138 14.1921-41.2701 183.928-49.6028 219.847-3.92599 7.60512-1.71969 16.8142 4.95118 22.1764 8.72835 6.73229 18.4087 12.3685 27.7772 17.8169 16.8449 9.79843 32.7603 19.0583 41.6138 33.7193 94.4009 155.675 182.092 187.417 311.769 297.136z" fill="#b7b7b7"/><path d="m1092.13 1397.73c58.8839-6.85158 156.706-19.6311 248.197-5.34922 3.41339-18.6331 12.7063-51.1914 37.624-76.989 18.7807-19.4362 50.6185-29.8677 87.3556-28.6229 7.56379.255118 15.0165 1.04528 22.2721 2.27717-14.25-18.7205-37.5343-65.7308-20.2595-103.897-91.6229-73.9442-311.312 67.6418-436.056 30.3142-16.9453 56.4095-8.24764 116.779 60.867 182.267z" fill="#b7b7b7"/><path d="m712.625 1271.57c90.456 83.8383 214.818 195.478 379.505 126.162-55.9382-66.9674-57.5032-144.902-60.867-182.267-50.2477-34.0028-109.167-12.4854-210.321-58.1115-2.01024-.907087-4.02048-1.84606-6.02953-2.81457-42.3296 32.1638-79.8922 71.0753-102.287 117.031z" fill="#8e8e8f"/><path d="m1763.59 1238.06c23.2004 71.1969 28.4445 108.513 28.4114 158.364-52.0099 32.9587-150.517 25.9252-208.96 23.5169-100.199-7.20591-138.183 34.2059-242.713-27.5575 12.6024-68.8867 37.2461-123.115 147.252-103.335 10.6984 22.1646 4.16929 44.9197 26.3622 53.1804 70.1753 11.9634 141.151 17.9799 214.232 8.32914.872835-11.2488-23.341-56.8158-22.1551-77.5453 22.8166-8.39056 41.3551-16.5366 57.5705-34.9524z" fill="#b7b7b7"/><path d="m1744.38 1112.93s-23.1496-20.0351-34.6937-26.8264c-11.5476-6.79252-31.2437-13.8685-42.88-12.4358-8.52993 1.05354-13.9595 9.013-22.2933 5.87953-8.33268-3.1311-56.68-27.215-62.8264-21.9213-9.38505 8.09174-.689764 9.91182-4.81063 19.4587-1.38543 3.20906-9.06379 3.72048-12.4512 4.29685-3.38859.578741-32.5866-2.22047-41.5441 11.0539-8.95867 13.2768-3.40866 30.8209-1.81417 41.3292 1.59567 10.5083 3.07914 23.5335.661418 31.2992-3.09095 9.9319-33.313 13.7799-52.454 15.228-9.08977.687402-16.6642 10.9429-16.6642 10.9429s-10.7776 6.04843-6.76772 35.8087c4.00394 29.7673 28.1906 53.8382 39.0544 51.189 10.8662-2.65276 60.0036-24.841 79.0205-20.1307 19.0252 4.70079 128.689 74.5217 178.1-.507874 49.4174-75.026 21.3555-129.529 2.36339-144.664z" fill="#b7b7b7"/><path d="m1697.31 1099.12c-9.463 14.6776.698032 45.502-22.6855 43.4528-20.0315-1.75394-17.3988 1.64291-29.7827 9.79135-17.0705 11.2299-20.2618 9.24804-19.3347 23.3362-.836221 8.48032 39.7926 22.7764 25.2532 43.7292-14.5335 20.9551-47.8725 1.10906-55.565-8.26064-6.53623-7.95945-39.567 22.5874-33.0992 47.465 3.46063 13.3075 19.8425 19.9465 54.0237 29.465 114.038 31.7599 162.81-9.16418 152.075-126.357-7.03347-76.7634-57.0426-110.956-70.8851-62.6221z" fill="#202020"/><path d="m0 0h2048v2048h-2048z" fill="none"/></svg>