<svg clip-rule="evenodd" fill-rule="evenodd" height="2048" image-rendering="optimizeQuality" shape-rendering="geometricPrecision" text-rendering="geometricPrecision" viewBox="0 0 2048 2048" width="2048" xmlns="http://www.w3.org/2000/svg"><path d="m983.382 849.621 25.161-65.9445s81.4028-6.45827 102.476 41.6882c21.0732 48.1465 7.9878 77.3812 7.9878 77.3812l-11.25 73.7505-68.7497-8.12481-55.6252-118.75z" fill="#a8a8a8"/><path d="m1118.47 565.264s18.789 18.7276 25.3937 28.2709c6.60591 9.54568 13.976 26.1154 13.4799 36.2622-.366142 7.43859-6.89882 12.6378-3.66024 19.6394 3.23859 7.00158 27.1323 47.2465 22.95 52.8957-6.39449 8.6256-8.52166 1.22717-16.5083 5.39764-2.68465 1.40197-2.6374 8.0693-2.91969 11.0339-.284646 2.96457 3.99567 28.0181-6.90473 36.6059-10.9016 8.5878-26.4166 4.90985-35.5985 4.20237-9.18308-.708662-20.5347-1.16102-27.091 1.42323-8.38583 3.30473-9.78426 29.667-9.81497 46.2992-.0141732 7.89922-8.3941 15.0992-8.3941 15.0992-.0011811 0-4.54016 9.69922-30.5138 8.13071-25.9784-1.56142-48.3213-20.9291-46.7256-30.4866 1.59921-9.55867 17.6421-53.4367 12.3591-69.5693-5.27481-16.141-72.6036-106.459-10.9146-153.939 61.6843-47.4886 110.573-26.713 124.863-11.2654z" fill="#ababab"/><path d="m1133.4 605.061c-12.0803 9.11339-39.3662 2.29725-36.1051 22.3736 2.79331 17.1992-.31063 15.1406-6.56221 26.3622-8.61615 15.4665-6.7004 18.098-18.9343 18.1949-7.27442 1.26496-22.2189-32.9351-39.3992-19.0347-17.1815 13.8957 2.0941 41.4414 10.6819 47.491 7.29449 5.14134-16.9973 35.6327-38.9079 31.6288-11.7201-2.14134-18.502-15.8752-28.9063-44.8063-34.7162-96.5233-2.46024-141.279 99.4973-139.473 66.7855 1.18347 99.5209 42.2209 58.6359 57.2634z" fill="#242424"/><g fill="#b7b7b7"><path d="m1142.88 1183.12c7.24607-72.3544 23.5807-270.728-31.865-357.751.418111 23.5323-.415748 47.765-3.93425 70.3064-2.80748 17.9823-9.37087 48.7205-29.4142 55.1965-19.1504 6.1878-38.0563-13.1634-49.0087-26.2512-27.5197-32.8855-23.2146-98.2642-20.2973-138.504l.178347-2.43543c-63.5788 14.1307-78.3414 99.7312-61.4859 153.602 21.7488 69.4878 30.1429 151.688 14.8075 215.31-4.9878 43.4788 157.686 76.0583 181.019 30.5268z"/><path d="m985.002 1328.49c-43.9855 56.4367-106.368 132.887-134.695 157.678-10.1728 8.90316-19.4752 20.6906-26.9114 34.0925-34.7492 72.6449-122.128 113.689-144.018 188.405 12.2457 20.3811 112.709 37.9866 109.437 59.7343-2.9374 19.5343-7.39725 17.4236-24.9402 17.7272-58.7493-21.574-104.681 1.84016-128.111-10.2413-35.7803-18.45-12.0626-63.8233 1.56142-87.4241 12.8374-22.2378 33.6827-51.8764 62.6044-109.146 11.3291-22.4303 118.872-224.78 164.753-307.01 50.5878 5.47559 91.6064 20.9055 120.319 56.1839z"/><path d="m1077.61 1325.51c101.217 60.528 205.668 69.5989 229.795 86.3138-34.4599 99.1607-4.21063 255.927-25.376 350.967 1.60394 40.6099 57.6284 3.33425 131.21 29.2075 18.0957-2.21103 20.824-10.8945 15.2551-24.2162-10.1256-22.0795-80.0327-26.8607-85.4079-49.0595-23.3185-96.4005 73.6371-310.416 25.8461-385.787-24.1122-31.728-127.173-64.2308-196.459-94.03-45.1654 7.35119-54.0296 61.8934-94.8639 86.6044z"/></g><path d="m985.002 1328.49c-15.2658-4.14803-103.39-30.3945-120.319-56.1839 9.89174-26.0162 64.9973-86.7154 97.1812-119.713 24.1606 32.8288 153.045 35.1485 181.019 30.5268 2.14134 14.7437 22.5815 39.2244 29.5914 55.7918-16.9288 25.7894-79.5993 82.4552-94.8639 86.6044-6.65434-5.32678-36.4429-36.5988-49.7658-44.791-9.14292 5.24528-31.5118 39.417-42.8433 47.765z" fill="#8e8e8f"/><path d="m1082.31 672.275c-1.85433-20.6764.989765-167.678-7.55316-244.26 15.2433-9.05788 48.8209-123.65-18.8398-172.015-6.65434 57.3154-19.6122 120.621-28.4044 177.136-13.135 78.2894-16.865 160.628-6.6378 239.779 8.28426 64.0465-27.6201 196.925 13.9217 246.567 93.0272 111.167 71.6304-187.611 47.5134-247.207z" fill="#b7b7b7"/><path d="m0 0h2048v2048h-2048z" fill="none"/></svg>