<svg clip-rule="evenodd" fill-rule="evenodd" height="2048" image-rendering="optimizeQuality" shape-rendering="geometricPrecision" text-rendering="geometricPrecision" viewBox="0 0 2048 2048" width="2048" xmlns="http://www.w3.org/2000/svg"><path d="m905.506 798.005c-1.47874-36.2209 6.51615-89.5524 32.4107-116.234 40.9595-42.1961 84.293-60.5079 170.449-68.8808 8.77442-2.54646 50.7544-2.33386 50.1603 16.6795l75.6036 225.744c-51.9307-8.78741-138.43-2.91378-188.509 19.0666-37.6607 16.5319-98.0564 48.7559-98.478 41.7957-32.0185-36.2835 6.20906-52.5201-37.5425-109.016-1.0878-1.40551-2.4874-1.51654-3.53504-1.10433l.679134 8.46615c-5.86182 28.6134-5.76615 55.539-12.45 82.7564-.943702 3.83977-1.9937 7.6004-3.14764 11.2984.298819 14.7484.680315 28.4138.8563 38.7839 1.14331 30.4689 118.251-8.98111 166.927-8.6256 100.531.735827 202.213-20.3469 262.993-31.5059 11.7862-33.1559-27.5516-157.41-48.802-239.692-20.1319-77.9623 1.49291-197.938-86.6469-244.367-90.5528-55.1788-172.651-63.7146-262.094-5.61615-100.597 65.3327-213.636 244.836-258.892 354.428 58.8437 51.9697 170.441 51.9237 240.019 26.0221z" fill="#b7b7b7"/><path d="m668.168 1253.75c17.126 140.176 37.1705 289.931 42.1796 428.769-1.92166 42.6177-63.4725 43.2874-111.5 47.067-74.0008 5.82284-97.8119 31.9205-81.1418 59.8843 65.106-.510237 124.72-10.6169 172.82-2.82284 41.9693 6.80197 94.8851 11.165 104.534-12.978 14.5559-40.5591-12.6697-125.835-4.05473-202.005 41.9055-320.993-27.189-311.799 2.3315-461.514 3.02835-15.3614 9.50552-37.787 13.5484-50.4532-63.978-25.1918-104.066-44.8394-173.91 2.15433 7.57087 67.8249 27.7689 130.602 35.1933 191.899z" fill="#b7b7b7"/><path d="m806.885 1059.7c38.4508-110.228 109.492-126.473 98.6209-261.697-16.3477 2.42835-49.1292 6.45119-87.3674 6.5256-65.6859.134646-116.769-11.1933-152.254-33.626-35.5441 96.0142-39.9555 197.606-33.7181 281.368.240945 3.22914.512599 6.42166.807875 9.58347 33.6874-12.0284 61.8154-16.2012 89.08-15.587 27.7087.623623 54.2752 6.17953 84.8304 13.4327z" fill="#8e8e8f"/><path d="m1498.59 309.907s-29.0185-21.926-43.2378-29.067c-14.2217-7.14213-38.126-13.9772-51.8067-11.3634-10.0276 1.92047-15.8362 11.7827-25.9618 8.72481-10.1244-3.05551-69.3284-27.7961-76.1977-21.0378-10.487 10.3311-.0366142 11.8039-4.17048 23.4449-1.38898 3.91181-10.4504 5.12363-14.4201 6.07441-3.97087.951969-38.8016-.0673229-48.3744 16.3748-9.57284 16.4421-1.61221 36.8008 1.10433 49.1315 2.7189 12.3295 5.50276 27.6532 3.24922 37.0477-2.88071 12.0177-38.4024 18.9591-60.9768 22.1823-10.7209 1.52953-18.8917 14.2831-18.8917 14.2831s-12.3 8.01851-5.20158 42.9792c7.08898 34.9689 37.6548 61.5969 50.3244 57.6012 12.6709-3.99922 69.169-34.1705 92.0812-30.0839 22.9217 4.07244 158.411 78.1997 211.07-14.628 52.6689-92.8241 15.1134-155.219-8.59016-171.664z" fill="#b7b7b7"/><path d="m1441.7 297.249c-10.0618 18.1429 4.41024 53.8808-23.4685 53.2937-23.8819-.501969-20.4945 3.31772-34.5331 13.9512-19.3488 14.6551-23.2878 12.5587-21.0792 29.1851-.324803 10.1173 48.9615 23.8642 33.3768 49.8449-15.5764 25.9831-56.6587 5.08347-66.515-5.41654-8.37402-8.91969-45.1217 29.8902-35.4957 58.8697 5.14961 15.502 25.0902 22.0807 66.3567 30.6721 137.676 28.6666 192.266-23.6847 170.312-161.753-14.3811-90.4371-76.3524-127.03-88.9536-68.6469z" fill="#202020"/><path d="m0 0h2048v2048h-2048z" fill="none"/></svg>