<svg clip-rule="evenodd" fill-rule="evenodd" height="2048" image-rendering="optimizeQuality" shape-rendering="geometricPrecision" text-rendering="geometricPrecision" viewBox="0 0 2048 2048" width="2048" xmlns="http://www.w3.org/2000/svg"><path d="m1764.77 1140.43-16.52-55.67-125.22 34.49-9.11 79.59 7.22 57.15 17.13-7.78 28.29-.58-41.89 34.46-20.38 95.21 31.69 32.4 89.19-132.15z" fill="#a8a8a8"/><path d="m1058.21 1449.04c-14.5795 3.3567-39.6851 8.75552-53.504 11.1154-67.9985 11.6102-122.747 4.8-182.462 12.1784-125.237 15.3414-259.407 30.2162-380.875 55.7764-64.304 13.526-132.604 18.1784-178.559 19.6925-6.62126.218504-9.313-8.21694-3.98268-11.9693 101.818-51.4335 86.2902-69.1949 117.077-82.4316 15.0295-10.0205 25.8473 1.00984 38.6469 7.50119 27.5929 13.9949 60.0012 13.0736 86.6942-2.45197 121.393-70.5969 262.894-50.6221 386.357-108.468 38.1437-17.8725 74.2264-45.8882 98.204-67.2296 2.86418 56.0516 25.3004 131.026 72.404 166.286z" fill="#b7b7b7"/><path d="m1623.03 1119.25c-2.65984 51.7595-2.92205 105.639-1.88977 136.742-4.05827-.667323-78.6733 77.1556-97.4528 91.128-8.24764-14.152-47.987-53.902-55.1374-80.7237-6.41693-24.0732 8.59961-52.402 8.44016-66.3945 13.5331-5.85237 34.591-15.2917 46.9158-21.3874 35.5205-17.5654 66.8564-36.5469 99.1241-59.3646z" fill="#b7b7b7"/><path d="m1231.06 1378.21c-51.0733 30.1229-121.175 58.102-172.844 70.8343-19.6453-12.7701-34.5071-31.7788-45.489-53.3197-18.5197-36.3236-26.0421-79.7386-26.915-112.967 49.4741-42.013 93.1631-49.604 199.761-135.112-.672048 1.10551-1.30394 2.22638-1.89213 3.36496-30.4618 111.537-6.00709 145.756 47.3788 227.199z" fill="#878787"/><path d="m1367.022 1036.679c55.9926-45.1973 99.6202-105.628 137.152-157.614 35.9516-49.7989 66.2339-91.7422 95.5914-103.934 14.4083-6.56103 34.9051-3.28819 52.2603 3.33544 25.7752 9.83741 49.9122 27.9272 61.5036 40.6453 15.2728 21.8067 24.8126 52.1847 29.7284 88.0205 5.5063 40.1611 5.19567 87.0615.625985 136.428-8.11064 87.5942-17.3138 163.539-28.7764 246.13-.590552 4.25315-2.1248 12.3803-4.09252 22.8201-54.4323 288.721-36.9815 161.173 80.9871 230.306-4.97481 1.73268 5.31024 2.30788-28.311 2.11536-41.5063-.238583-86.6056-2.12362-94.017-4.7504-7.90394-2.79921-14.791-17.0138-19.6158-37.141-5.20276-21.6957-7.67127-49.8437-6.26339-78.1961 1.87795-37.7929-1.48583-61.2095-5.5004-89.1544-6.06969-42.254-13.6441-94.9808-6.50906-224.6.103937-1.9004-.832678-3.19488-2.11181-3.84331-1.10669-.622441-2.46142-.712205-3.6567-.20315-.504331.188977-.969686.472441-1.36181.853938-34.1752 24.6095-66.9343 44.7284-104.423 63.267-37.2048 18.3992-80.915 43.9453-133.582 62.1272-19.0217-7.65709-60.9154-13.6228-75.9296-38.3386-20.0032-32.9303-10.4563-87.7111-11.3835-113.33 20.0764-11.6622 48.4748-29.4378 67.6843-44.9445z" fill="#b7b7b7"/><path d="m1162.79 1274.35c-9.65552-38.4981-8.65394-77.4449 6.78308-107.349 7.99016-15.4772 25.8945-28.6028 49.1339-42.0048 11.6162-6.69922 24.5646-13.4669 38.2748-20.6339 13.5591-7.08544 27.8481-14.5559 42.3544-22.741 1.78347 30.7595 10.7764 65.3351 26.8536 94.1327 14.0563 25.1811 33.5433 46.0252 58.4091 56.2831 1.08307 1.20827 2.82166 1.72205 4.45158 1.16221 32.9705-11.3433 61.8036-22.1835 87.9426-33.2008 1.01221 47.9965 22.3925 105.679 46.6973 147.119-56.9563 41.6185-178.662 95.9221-249.508 68.7922-20.7933-7.96182-39.3721-21.4382-55.2721-38.1107-27.567-28.904-47.0811-67.4138-56.1201-103.449z" fill="#8e8e8f"/><g fill="#b7b7b7"><path d="m1725.17 1277.55c8.98347-65.5182 16.3465-125.582 23.0799-192.789 42.2646 12.0142 41.302 52.2142 19.1079 102.853-8.79331 20.0646-29.8725 65.8512-42.1878 89.9363z"/><path d="m1530.63 1450.33c17.2146-51.8493 65.4189-119.079 94.0359-168.243 1.65118 16.1315 3.59055 42.1996 5.39646 54.7713 3.40276 23.6906 6.33426 44.0823 5.91733 72.8422-.484252.28937-.918898.682678-1.26378 1.1752-8.09883 11.4969-17.9587 19.4398-26.9599 26.6894-6.18189 4.97953-11.9823 9.65316-16.7551 15.0071-.773623.869292-1.28622 1.85433-1.55079 2.9315-.87756 3.56811 1.28622 7.37245 5.25119 11.0929 3.1063 2.91851 7.45394 6.02008 12.1512 8.93741 11.1354 6.91772 24.8563 13.0394 28.6524 13.2484 1.19173.0649607 2.29488-.380315 3.09567-1.14331.95315 6.09449 2.08819 11.8973 3.3874 17.3173 1.53898 6.41339 3.32953 12.3236 5.34922 17.5878-.266929-.0389764-.540945-.0543308-.820867-.0413386-33.9142 1.72205-70.8461-.462992-100.011-2.1874l-5.03268-.296457c-1.86851-.111024-3.52796-.420473-4.9878-.904725-5.3126-1.76221-8.61024-6.08504-10.5083-11.7236-2.11181-6.2693-2.55236-14.1319-2.0811-22.1351.804331-13.6087 4.23898-27.404 6.73465-34.9252z"/><path d="m1671.97 513.442s27.9425 17.6906 38.5677 27.5103c10.6264 9.82205 24.0886 27.9851 26.237 40.4658 1.57087 9.14883-4.96536 17.2477.874016 24.8882 5.83937 7.64056 45.828 50.126 42.2717 58.1327-5.44016 12.2315-10.0347 3.80551-18.6225 11.0469-2.88662 2.43307-1.02047 10.5331-.559843 14.2169.459449 3.68504 12.463 33.0071 1.52953 46.4126-10.9347 13.4055-30.8103 13.1398-42.1748 14.7685-11.3646 1.62874-25.2981 4.15866-32.5748 9.0815-9.30709 6.2941-3.85866 38.7496.616536 58.9949 2.1248 9.61536-6.11811 20.648-6.11811 20.648-.0011811 0-2.89252 13.0335-34.9205 18.1701-32.0327 5.14607-64.4717-12.3567-65.1225-24.4181-.646063-12.065 6.97087-69.8032-3.83386-88.0005-10.7965-18.2091-117.215-109.837-55.0371-184.342 62.1721-74.5123 127.291-62.4945 148.867-47.576z"/></g><path d="m1700.93 557.815c-12.228 14.3658-47.2748 13.4728-37.8614 37.017 8.06339 20.1685 3.72992 18.5055-.833859 33.8551-6.28701 21.1559-3.24331 23.8382-18.1016 27.274-8.50867 3.51142-35.9693-34.0453-53.1012-12.4725-17.1354 21.5669 13.7894 49.8532 25.878 54.8859 10.2697 4.27677-11.015 47.9646-38.7603 49.037-14.8417.574016-26.8181-14.2973-47.3256-46.676-68.4213-108.025-41.315-171.23 83.23-196.69 81.5788-16.6748 132.542 24.3756 86.8761 53.7697z" fill="#202020"/><path d="m0 0h2048v2048h-2048z" fill="none"/></svg>