<svg clip-rule="evenodd" fill-rule="evenodd" height="2048" image-rendering="optimizeQuality" shape-rendering="geometricPrecision" text-rendering="geometricPrecision" viewBox="0 0 2048 2048" width="2048" xmlns="http://www.w3.org/2000/svg"><path d="m396.501 1535.69c13.924 21.626 25.3713 42.867 31.3547 63.5008 71.5867-21.4063 173.992 11.1744 286.728 14.3823-214.95-122.362-334.716-250.031-389.843-357.691-4.57796 6.00473-18.0945 8.6752-18.3024 18.6685.114567 2.90788.323622 5.8252.620079 8.74135 6.05552 59.739 63.8315 193.812 89.4438 252.398h-.0011811zm-103.065-362.868c-8.56654-36.7099-8.70473-69.391-2.16024-96.5705 55.0914-101.277 175.68-83.0292 273.378-11.0693-67.5461 204.767 403.272 273.136 420.113 467.998 5.5004 53.1402-21.4914 160.065-91.3524 181.751-35.4059 17.713-95.882 20.0469-101.31 20.9374-545.109-77.6068-377.864 96.6509-490.933-187.093l.0980316-.0259843c-28.7492-78.9461-36.8764-203.399-42.1677-260.576-5.36221-57.9367-4.17638-29.6599 6.76182-79.1753 4.35591-19.715 15.802-34.2024 27.5729-36.176z" fill="#b7b7b7"/><path d="m1170.15 623.03c40.6973-63.0036 124.837-103.988 198.688-131.293 36.8622-13.6288 155.888-50.517 166.893-51.7961 55.604-6.46182 156.272-.661418 189.04 2.55827 50.2571 69.7595 87.4642 13.7858 55.0949-36.4311-.486615-1.87914-4.64646-7.47402-8.7567-9.3378-124.249-27.4488-144.208-60.7111-179.98-81.3957-34.9063-15.7642-57.4548 30.6142-79.3973 53.2819-71.4603 73.7871-340.401 24.2693-473.498 199.823-13.598 18.8764-323.795 136.381-395.331 161.355 20.6126 83.2607 46.4847 149.029 160.995 182.093 101.805-74.8099 299.1-184.906 366.252-288.858z" fill="#b7b7b7"/><path d="m556.825 1061.17c22.0465 31.5461 223.642-127.736 247.075-149.28-5.18504-11.2902-114.391-78.4382-160.995-182.092-377.589-25.552-352.184 347.074-351.63 346.458 58.3122-64.8556 242.308-48.3544 265.55-15.0862z" fill="#8e8e8f"/><path d="m1286.21 1528.89s-22.7079-28.7067-34.7469-39.2634c-12.0425-10.5579-33.5929-23.2725-47.5796-24.1914-10.252-.669686-18.4087 7.46339-27.4949 1.92047-9.08623-5.54056-60.4808-44.6351-68.8819-39.7926-12.8327 7.40552-3.02717 11.4862-10.0028 21.7772-2.34331 3.45827-11.4744 2.34331-15.5823 2.26299-4.10906-.0791339-37.774-9.8941-51.2622 3.69331-13.4894 13.5886-10.8933 35.4343-11.3705 48.1311-.475985 12.698-1.64646 28.3276-6.22205 36.9059-5.85 10.9748-42.2044 8.73662-65.0067 6.15709-10.8284-1.22599-22.0169 9.1252-22.0169 9.1252-.0011811 0-14.0114 4.6937-15.9555 40.5414-1.95354 35.8536 21.0697 69.5315 34.4221 68.8489 13.3536-.68504 76.0229-15.7571 97.3028-5.97284 21.2929 9.77363 134.473 116.293 209.276 39.2233 74.8123-77.0634 54.0414-147.346 35.1213-169.367z" fill="#b7b7b7"/><path d="m1234.02 1502.15c-14.3953 15.1217-9.35434 53.5937-36.3579 45.9603-23.1331-6.53859-20.8016-1.96063-37.167 4.83898-22.5579 9.37205-25.8626 6.33189-27.9236 23.0847-2.87953 9.77245 41.6398 35.6457 19.8791 57.0024-21.7524 21.3591-56.4697-9.40276-63.4087-22.1256-5.89725-10.8083-51.5185 17.6799-49.4847 48.3437 1.0878 16.402 18.8433 27.861 56.8571 46.6819 126.827 62.7969 193.257 25.6394 206.851-114.393 8.90316-91.7233-42.1831-143.062-69.2457-89.393z" fill="#202020"/><path d="m0 0h2048v2048h-2048z" fill="none"/></svg>