<svg clip-rule="evenodd" fill-rule="evenodd" height="2048" image-rendering="optimizeQuality" shape-rendering="geometricPrecision" text-rendering="geometricPrecision" viewBox="0 0 2048 2048" width="2048" xmlns="http://www.w3.org/2000/svg"><path d="m1049.59 1239.92c11.7791 57.4453 2.53465 119.126-6.58111 174.686 43.4244 4.0441 76.1457 3.19134 119.947.232677 25.1563-1.69961 49.7575-3.36024 75.7005-2.45315 13.8638.470079 27.8398.927166 41.8937 1.38425 111.065 3.62126 227.179 7.40906 334.166 20.2512 27.4973 3.29764 55.4847 4.92284 81.9827 5.50276 34.9441.765355 67.4741-.269292 92.9292-1.6689.711024-.0389764 1.25906-.290551 1.62874-.657875.328347-.324803.555119-.752363.664961-1.21654.113386-.478347.101575-.982678-.0484252-1.43858-.155906-.474804-.479528-.921261-.988583-1.26024-65.7733-26.2937-84.7288-43.5756-97.63-55.343-7.06772-6.44646-12.202-11.1272-22.891-14.6445-.33189-.109843-.637796-.258662-.918898-.440552-10.1646-5.38465-17.7721.0897638-25.7776 5.85473-2.31378 1.66772-4.65827 3.3567-6.98623 4.80709-13.3949 8.34804-28.3595 13.0146-43.5437 13.9217-15.1713.904725-30.567-1.95236-44.8394-8.65158-66.1264-31.0359-135.99-36.3827-205.738-41.7189-60.5859-4.63465-121.093-9.26457-179.523-30.6083-43.904-16.037-85.9465-45.2197-113.447-66.5386z" fill="#b7b7b7"/><path d="m646.25 826.892c-68.4001 17.7343-112.563 126.207-133.96 178.662-22.2567 54.5611-39.5445 110.777-53.3079 157.151-29.9362 100.847-38.9646 190.653-42.8918 229.728-2.97047 29.289-33.6307 26.1756-61.2378 29.3268-42.3225 4.83307-94.2757 10.7669-98.8536 44.0126 3.30945.807875 21.0768 1.02756 43.6264.946064 45.8339-.166536 109.807-3.25276 119.655-4.0937l.0555119-.00472441.0153543.0011811c34.291-2.95512 50.4426-90.1513 63.9662-163.173 8.01379-43.2697 15.1347-81.7075 25.2248-96.5375 19.063-28.0146 35.4225-56.8394 50.0044-82.5308l4.69607-8.26772c.216142-.381496.486615-.712205.800788-.98504 1.21772-1.09961 3.05079-1.34646 4.5567-.49252.381496.216142.712205.486615.983859.800788.0555119.0507874.102756.10748.148819.165354 18.776 20.9339 34.3559 39.3272 48.7737 56.3481 54.2079 63.9934 97.2603 115.652 209.649 184.155 45.4536-46.8307 70.1032-139.06 53.0705-198.005-16.6819-1.63937-43.4481-3.80906-60.6154-12.3413-16.8095-8.35749-32.0965-19.6854-42.3142-33.274-23.1177-30.7441-27.9638-78.1654-32.8914-126.412-6.04725-59.2052-12.228-119.693-52.6642-148.989-13.4988-9.78072-30.3768-10.3677-46.4918-6.19016z" fill="#b7b7b7"/><path d="m875.044 1226.7c-4.42914 28.6358-10.8626 53.7107-19.2366 75.1193-7.73268 19.7669-17.139 36.4583-28.174 49.9961 33.8173 18.4394 69.2788 32.0339 104.493 41.9634 38.0362 10.7232 75.7902 17.1673 110.886 20.8252 9.55276-25.376 16.0193-51.9792 17.7709-80.4473 1.79764-29.1874-1.35118-60.3697-11.1898-94.239-5.47796-4.39843-10.8236-8.78623-16.1067-13.1244-42.352-34.7681-80.6847-66.2315-152.26-72.6981-.120473 7.05591-.434646 16.3784-1.16929 27.1642-.896457 13.1823-2.42953 28.7445-5.01378 45.4406z" fill="#8e8e8f"/><path d="m733.506 593.764s-30.2599 5.82402-42.8197 10.7221c-12.5622 4.89922-30.4252 16.0654-36.5398 26.1579-4.47992 7.39961-1.56851 16.65-9.23623 21.287-7.66654 4.63819-56.8217 27.8622-56.4638 36.0189.551575 12.4606 7.4067 6.7193 12.3874 15.9236 1.6748 3.09331-2.70355 9.48308-4.35709 12.5209-1.65354 3.03898-22.0524 24.3815-17.1366 39.7323 4.91693 15.352 22.2461 21.8906 31.5461 27.176 9.30237 5.28307 20.5252 12.2232 25.1587 18.9721 5.92796 8.62914-9.85394 34.9217-20.6303 50.9563-5.1189 7.61457-1.72795 19.9914-1.72795 19.9914s-1.9311 12.2894 24.0969 27.6544c26.0292 15.3756 60.1252 11.2453 64.7977 1.00512 4.67008-10.2425 17.7331-62.9138 33.3024-75.0154 15.5658-12.1146 139.074-55.3311 110.528-141.129-28.539-85.8024-89.1107-97.5627-112.905-91.9737z" fill="#b7b7b7"/><path d="m693.272 622.382c5.71063 16.624 36.4099 27.789 20.2264 45.0012-13.8638 14.7449-9.53859 14.7791-10.8095 29.6457-1.75394 20.491-5.30788 21.7795 6.40867 29.8217 6.18308 5.94331 42.7926-17.2748 50.3032 7.27087 7.51536 24.5421-28.9418 38.5406-41.1402 38.7863-10.3642.211417-6.78662 45.352 16.9122 55.7339 12.6756 5.55237 28.1292-3.26457 56.9434-24.3603 96.1406-70.3819 94.1611-134.433-5.1815-198.939-65.0729-42.2516-123.256-24.0095-93.6627 17.0398z" fill="#202020"/><path d="m0 0h2048v2048h-2048z" fill="none"/></svg>