<svg clip-rule="evenodd" fill-rule="evenodd" height="2048" image-rendering="optimizeQuality" shape-rendering="geometricPrecision" text-rendering="geometricPrecision" viewBox="0 0 2048 2048" width="2048" xmlns="http://www.w3.org/2000/svg"><g fill="#b7b7b7"><path d="m1015 730.397 89.5914-56.6977c.577559-11.3799 6.24567-19.7091 20.0717-22.4563 8.40119-11.3197 18.3567-12.8776 28.8874-8.52757l86.1178-54.4996c-27.026 7.28268-92.7213.797245-108.699-29.954-5.47914 17.9504-25.7516 11.7839-34.8957 21.9532-13.0984 14.5665-29.224 21.6614-46.5839 22.7445-9.53387.594095-9.05198 14.5831-18.9791 11.765 5.54882 9.05552 15.9662 34.9843 14.811 47.0611-2.2063 23.0764-15.75 51.5091-30.3213 68.6115zm99.4276-62.9221 10.9016-6.90001-.681497-1.0748c-5.15315 1.41732-8.41654 4.19882-10.2201 7.97481zm18.3862-11.6362 10.9004-6.89764c-4.18347.0129921-8.09528 1.77165-11.5819 5.82166l.681497 1.07599z"/><ellipse rx="35.1555" ry="57.0319" transform="matrix(.321688 -.370091 .370091 .321688 968.556 570.717)"/><ellipse rx="35.1555" ry="57.0319" transform="matrix(-.472172 .132306 .132306 .472171 1115.23 477.892)"/></g><path d="m1103.57 457.205c9.07914 14.3457 16.3276 30.1689 21.398 46.3536 5.01733 16.0134 7.90867 32.3835 8.34095 48.0296-5.12481 23.9729-13.5921 41.3882-24.2327 53.2229-11.5795 12.8764-25.8118 19.1492-41.1177 20.1047-14.3055.889371-29.6244-2.82638-44.6859-10.1221-1.32402-.641339-2.64685-1.31102-3.96733-2.00669-24.2965-12.8221-47.5122-34.7244-64.4398-61.4717l-.0129921.00826772c-17.5843-27.7843-21.854-50.8973-16.1693-70.4587 5.69528-19.6051 21.4795-36.0107 43.9418-50.2252 22.461-14.2146 44.0445-21.4571 64.2012-18.2138 20.0988 3.23386 39.1548 16.9854 56.7437 44.7792z" fill="#ababab"/><path d="m1120.5 509.348s-22.0973-47.9705-43.4315-53.4c0 0-32.7355 66.8386-84.9745 47.9256 0 0-13.1528-16.9736-24.3106-10.9465 0 0-11.1791 15.5091 5.3752 59.0717l23.4201 36.463-31.3855-18.3437s-55.3973-41.0091-39.3059-79.7623c0 0-26.9835-39.3709 57.7465-87.1406 0 0 49.2544-35.3008 100.886 12.5646 22.8815 21.3437 30.3827 43.5426 32.8181 56.7461l.188977.327166.119291 1.45512c1.02047 6.34489.830316 10.1917.830316 10.2047l2.02323 24.8351z" fill="#202020"/><path d="m1252.21 1224.84c6.25985 65.7012-4.23307 173.589 10.1516 208.426 12.2492 29.9516 12.3272 280.664 10.9618 294.286-3.65315 36.4595 37.7634 17.7756 122.4 64.4469 21.6614-.261024 24.5292-3.16418 40.3701-17.7992 17.6398-16.291-94.4198-60.9461-98.8973-81.3969-13.7587-142.337 22.7729-170.71 23.8229-231.664.604725-35.0587-7.93347-54.5552-4.57796-110.378 1.28386-21.4488 21.1276-120.474 24.3638-163.747-36.9544 19.7847-91.2142 29.2796-128.595 37.826z" fill="#b7b7b7"/><path d="m1089.1 1188.17c2.85 43.9748 21.2811 139.017 22.6937 162.595 3.35551 55.8225-5.18268 75.319-4.57796 110.378 1.05 60.9544 37.5815 89.3268 23.8217 231.664-4.47638 20.4508-116.536 65.106-98.8973 81.3969 15.841 14.6351 18.7087 17.5382 40.3713 17.7992 84.6367-46.6713 126.053-27.9874 122.399-64.4469-1.36417-13.6217-1.28622-264.334 10.9618-294.286 14.3457-34.7422 13.7752-153.504 20.0445-219.247-26.3256 5.5689-104.896-11.8311-136.817-25.8532z" fill="#b7b7b7"/><path d="m1234.36 1183.29c2.45669 22.604 12.8221 33.2445 17.8524 41.5548 19.7551-5.08111 106.687-6.23977 128.595-37.826 5.2937-65.3977 13.1599-149.806-10.7079-201.306-31.2662 40.2059-232.497 32.8465-261.331-4.23189-24.7252 59.8453-19.6654 146.307-19.6654 206.69 43.5307 20.2843 108.934 44.8028 128.035 35.0988 19.1008-9.70513 12.3024-23.3362 17.2217-39.9792z" fill="#8e8e8f"/><path d="m1108.77 981.478c-22.1681-78.104-51.9662-139.999-100.322-195.026-29.1059-33.1193-56.4662-79.4918-120.737-113.539-69.6827-36.9272-96.7477-160.067-151.97-215.386-40.2697-39.3744-83.5477-85.9949-125.72-124.102 78.7678-27.0744 151.141 65.4969 149.443 82.989 66.6249 36.8221 136.588 168.923 154.309 179.23 186.65 145.838 298.826 5.49922 264.963-130.732-3.36614-13.5768-105.025-99.1028-122.485-112.047-19.3217-6.8563-178.65-9.49253-249.816-36.5138-12.248 12.6059-129.662 17.2453-159.933-60.352 56.3374 7.5378 119.884 10.4102 175.958 15.6732 77.9068 6.36378 182.264-9.01772 255.488 20.2677 173.31 69.3438 184.878 119.36 228.342 287.375 2.81693 10.891-.659056 56.68 2.06575 75.4571 13.1421 90.5032 49.0205 256.811 61.7469 330.937-44.7863 54.9201-221.814 56.3504-261.331-4.23189z" fill="#b7b7b7"/><path d="m0 0h2048v2048h-2048z" fill="none"/></svg>