<svg clip-rule="evenodd" fill-rule="evenodd" height="2048" image-rendering="optimizeQuality" shape-rendering="geometricPrecision" text-rendering="geometricPrecision" viewBox="0 0 2048 2048" width="2048" xmlns="http://www.w3.org/2000/svg"><path d="m816.892 1518.39c11.1071 5.35512 17.6929 7.9819 30.7677 13.2248 4.1563-1.21417 26.0563-8.93505 34.7658-11.5228 43.676-12.9803 128.117-38.0729 139.642-37.9902 14.3303.103937 81.4548 19.1091 126.982 31.9984 15.8303 4.48229 46.6737 12.8681 53.7933 14.7331 6.63308 1.71732 24.4418-13.6937 31.761-17.6551 10.9193-14.5913 45.7843-137.599 69.5847-234.358-17.7473 2.31378-38.9315 3.93662-43.9134 3.97559-1.49528.138189-3.30236.0330709-4.88032.0968505-140.653 72.2386-330.304 92.6505-466.662-.0649607-2.14725-.0944883-33.965 1.35709-36.4772 1.27913-40.8768-1.27087 53.5063 205.634 64.6371 236.283z" fill="#8e8e8f"/><g fill="#b7b7b7"><path d="m806.565 720.081c-107.335 73.1753-136.791 234.911-160.478 364.987l-4.19646 22.9559c-.162992.885827 25.1658 115.957 48.5847 222.35 19.8827 90.3237 38.3977 174.423 38.8524 178.557 2.18032 19.6406 3.87284 31.8508 8.78977 42.2965 4.90512 10.4173 13.2662 19.6016 28.8461 33.3319 8.95631 7.89568 21.913 12.4512 35.889 13.4232 11.0953.773623 22.7894-.711024 33.6272-4.56969 10.7327-3.82087 20.6114-9.97796 28.1953-18.5811 7.63819-8.66221 12.9685-19.8543 14.5169-33.691-21.1618-7.62166-40.4481-15.926-57.2575-24.0532-1.1811-.279921-2.2252-1.08071-2.77205-2.26772-1.58858-3.42638-17.8571-52.3902-33.1488-110.411-23.6776-89.8418-39.2611-208.244-49.5591-238.472-.193701-.468898-.302362-.981497-.307087-1.52008l.0153543-.00944883c-.0212599-2.29252.0826772-4.77284.302362-7.41497 2.67284-31.8166 6.6567-101.334 29.85-162.861 23.602-62.6091 51.5008-117.215 70.4906-117.402.461811-.00354331.836221.00472441 1.10551.0271654 2.25355.184252 3.93071 2.16496 3.74528 4.41851l-.0496063.380315c-12.3756 84.7194-11.1532 91.1658-4.38662 126.842 3.77008 19.8839 9.23268 48.6744 15.0579 104.161 2.37992 22.663-1.76575 49.0666-8.46851 74.1532-10.3158 38.6162-35.8949 91.4635-43.8355 105.444 128.786 79.3134 312.72 61.5591 445.111-2.30788-8.33623-15.0189-33.9827-66.0686-44.0646-104.425-6.47717-24.6378-10.0146-50.4437-6.37678-72.73 5.46851-33.5044 10.0949-56.3611 13.6181-73.78 10.4079-51.4441 11.041-54.5823-3.73465-157.273l-.0649607-.465355c-.185433-2.25355 1.49173-4.23426 3.74528-4.41851l.0602363-.0011811c.134646-.0106299.269292-.011811.402756-.00826772 26.1213-.910631 63.9319 98.2796 71.1331 117.384 23.1933 61.5272 27.1784 131.045 29.85 162.861.311811 3.72284.670867 6.64134-.346063 10.291-6.26812 22.3229-.480709 62.328-11.5689 107.412-24.5091 99.6568-55.0855 223.979-67.2449 238.216-.0248032.0283465-.0484252.056693-.0744095.0838583-.193701.22441-.414567.427559-.660237.607087-.145276.106299-.297638.20315-.459449.291733-.0200788.0106299-.0389764.0212599-.0602363.0307087-20.3882 11.0646-40.0099 20.4331-62.55 28.5898-1.22244.442914-2.44016.871654-3.65197 1.28622 1.49173 13.0217 6.52087 23.5677 13.7717 31.7929 7.65119 8.67875 17.804 14.8311 28.911 18.6225 11.2347 3.83386 23.4307 5.25827 35.0197 4.4504 15.1087-1.05236 29.0953-5.89134 38.4154-14.1071 15.5811-13.7303 23.9433-22.9158 28.8473-33.3319 4.91811-10.4445 6.60827-22.6559 8.78977-42.2965.461811-4.19764 21.1252-92.6576 42.9071-185.923 24.6012-105.339 50.6457-216.847 50.491-217.687-12.3602-66.9107-26.615-144.06-52.0937-214.14-25.3252-69.6615-61.7646-132.395-118.541-171.099-2.14961-1.46575-8.40591-4.65473-15.8351-7.58032-5.14607-2.02677-10.7929-3.89292-15.9024-4.9063-2.42717-.367323-18.4937-3.81614-34.0607-7.15749-11.8843-2.55-41.5477-7.37481-53.4307-11.3516-16.8154-5.61142-29.8796-12.9567-39.2174-24.3603-8.51457-10.3973-8.87127-43.3311-10.9039-61.8591-27.991 10.1811-64.0819 7.99134-91.0406-4.44922-1.85197 18.9827-4.16693 52.8544-12.6614 64.1221-19.3146 25.6264-57.7985 30.1902-90.8032 37.4422-16.5189 3.63071-33.4689 7.35591-36.4689 7.85316-4.40433.881103-10.7705 2.97284-16.7858 5.24174-7.29922 2.75197-13.9465 5.68583-15.8799 7.00512z"/><path d="m705.184 1440c-7.86142-35.8914-15.7701-71.7721-23.6646-107.655l-13.7941-62.6977 10.5969.957875c4.39134 19.9571 8.71418 39.6 13.1067 59.5571 8.92205 40.5296 17.8559 81.0579 26.7118 121.6 2.91142 13.3358 5.82284 26.6729 8.67402 40.0205.839764 3.92953 1.67717 7.85906 2.48504 11.7957.335433 1.63819.814961 3.59174.998032 5.24292 1.47756 13.3453 2.93504 29.7366 8.70237 41.9894 6.03662 12.8209 18.1453 23.791 28.6099 33.0142l35.3114 13.1835c11.1638.777166 22.6855-.761812 33.2315-4.51654 10.5874-3.77008 20.3268-9.84213 27.7902-18.3071 8.28072-9.39331 12.8929-20.7567 14.2795-33.1536l.137008-1.22126 9.80552 3.45591-.10748.787796c-1.87087 13.7882-7.27678 26.3681-16.5012 36.8327-8.61497 9.77245-19.8095 16.8106-32.0292 21.1606l-38.0965 4.43032-42.3083-16.6122-.357874-.314173c-11.7839-10.3347-22.148-20.0209-28.9264-34.4197-6.40158-13.5921-7.97953-30.417-9.613-45.1985-.161811-1.46102-.616536-3.25985-.916536-4.7126-.773623-3.74528-1.57323-7.48701-2.3752-11.2264-2.72599-12.7205-5.50158-25.4303-8.27953-38.1402-12.4252-9.84331-24.3709-20.2441-36.3118-30.6638-37.8567-33.0319-71.706-62.2229-122.674-72.4004-2.74016-.548032-4.52953-3.22441-3.98386-5.96693.546851-2.74252 3.22441-4.53189 5.96693-3.98504 53.2784 10.6417 87.8233 40.2414 127.352 74.7343 8.65985 7.55552 17.3232 15.1039 26.1803 22.428zm580.667 150.875c41.3788-16.1551 82.2213-31.5532 112.828-40.0677 35.4709-9.87166 200.673-75.776 299.582-143.919 28.4764-19.6193 51.352-39.3544 63.8162-57.8528 11.6835-17.3374 13.9051-33.4831 2.28189-47.1496-9.11457-10.7173-26.465-20.2524-53.9705-28.1138-39.065-11.1614-93.7772-14.4851-151.929-14.0776-56.3445.394488-124.119 4.88622-176.586 8.61615l-10.5095.440552c-4.20355 18.0106-8.40946 36.0213-12.6165 54.0319-9.83623 42.1158-19.6866 84.2304-29.4473 126.364-3.2315 13.9476-6.46182 27.8965-9.62481 41.8595-.930709 4.1126-1.86024 8.22638-2.75433 12.3461-.36378 1.67835-.911812 3.77599-1.09961 5.46851-1.47638 13.3453-2.93622 29.7378-8.70355 41.9894-6.0378 12.8209-18.1429 23.791-28.6075 33.0142-10.0807 8.88544-24.6803 12.9484-37.8402 13.8662-11.5961.807875-23.6197-.641339-34.637-4.40197-10.8248-3.69331-20.8902-9.71812-28.4929-18.3425-7.8189-8.87009-12.1795-19.7823-13.5201-31.487l-9.85513 3.17953c1.79528 13.1788 6.94607 25.0087 15.7618 35.0091 8.78623 9.96615 20.3362 16.9654 32.8512 21.2374 12.2728 4.18819 25.6524 5.8193 38.5725 4.91693 7.07835-1.42795 37.9618-12.2504 43.8615-16.3654l.637796-.562205z"/><path d="m1053.7031 1593.587c.833859 6.42048 16.376 174.476 34.8284 196.018 1.8189 2.1248 3.36969 2.74607 4.64292 2.2063 2.02795-.859843 4.16811-3.55394 6.26457-7.54725l.111024-.22441c7.48347-14.4106 12.3933-42.2977 11.0162-65.9776-.890552-15.3059.390945-31.415 2.83583-43.9985 2.78032-14.3114 7.61221-24.6248 13.2059-25.6866 23.6705-4.49292 69.854-22.3736 119.927-42.0626-1.73386.217323-3.48425.387402-5.24764.511418-12.6177.878741-25.9181-.679134-38.191-4.86733-12.4063-4.23544-23.7886-11.1543-32.4319-20.9587-7.99725-9.07205-13.6311-20.5725-15.5492-34.6477-30.7973 9.3378-58.2119 10.9488-82.4977 18.1299-3.95788 1.17047-7.64056 3.27756-10.7705 6.23977-3.12756 2.95984-5.44016 6.53623-6.83741 10.4528-1.39134 3.90355-1.86024 8.13426-1.3063 12.4122z"/><path d="m887.0909 1543.9271c-2.00788 14.7886-7.92757 26.8583-16.2685 36.3201-8.5441 9.69331-19.6205 16.6122-31.6229 20.8854-11.8961 4.23426-24.7252 5.86418-36.8918 5.01733-.72756-.0507874-1.45394-.109843-2.17559-.179528 50.4166 19.8284 97.0087 37.8945 120.821 42.4146 5.59252 1.06063 10.4268 11.374 13.2071 25.6866 2.4437 12.5835 3.72638 28.6914 2.83583 43.9985-1.37835 23.6882 3.5315 51.5811 11.015 65.993 2.13307 4.10788 4.31221 6.88111 6.37678 7.75631 1.27323.539764 2.82402-.0814961 4.64292-2.2063 5.69292-6.64489 11.5276-23.6894 16.6217-55.878l.022441-.233858.0141732.0011811.00944883-.0590552 18.1606-139.849c.553937-4.27796.0850394-8.50867-1.3063-12.4122-1.39725-3.91654-3.70985-7.49292-6.83741-10.4528-3.12992-2.96221-6.8126-5.0693-10.7705-6.23977-3.86339-1.14213-7.99607-1.38898-12.1429-.672048-.578741.152362-1.20118.179528-1.82599.0519685-24.7205-4.80118-48.3201-11.3173-70.1717-18.678-1.2437-.419292-2.4815-.840946-3.71339-1.26496z"/><path d="m277.94 1317.68c-7.13859 25.65 5.55355 51.0284 29.9528 75.065 25.1126 24.7429 62.4804 47.9693 103.624 68.6658 91.18 45.8681 200.645 79.1741 237.364 89.3918 30.6248 8.52048 71.4934 23.9292 112.897 40.0961-.0755906-.0649607-.151181-.132284-.225591-.197244-16.4504-14.4957-25.3618-24.3744-30.8315-35.9894-5.45552-11.5878-7.24961-24.3933-9.5256-44.8902-.19252-1.7504-4.73859-22.8402-11.6622-54.5197-12.8008-10.128-24.8256-20.6209-36.5492-30.8504-37.2059-32.4638-71.3469-62.2548-123.124-72.6237-2.21811-.441733-3.66024-2.59961-3.21851-4.8189.441733-2.21811 2.59961-3.65906 4.8189-3.21733 53.8725 10.7894 88.819 41.2831 126.901 74.5111 9.14528 7.97835 18.4748 16.1209 28.3795 24.2386-6.82678-31.1717-15.4122-70.1717-24.2693-110.411-4.57205-20.7697-9.21615-41.8677-13.7291-62.4048-72.4064-6.67914-164.079-13.4563-238.018-10.2803-73.304 3.14764-132.654 15.7087-148.415 47.0398-1.88977 3.75591-3.3378 7.48938-4.3689 11.1945z"/></g><path d="m879.192 1541.14c-1.54843 13.8354-6.87993 25.0264-14.5169 33.6898-7.58268 8.60316-17.4626 14.7602-28.1953 18.5811-10.8378 3.85866-22.5307 5.34331-33.626 4.57087-13.9772-.973229-26.9339-5.52874-35.889-13.4244-15.5823-13.7303-23.9421-22.9146-28.8473-33.3319-4.91693-10.4457-6.60945-22.6559-8.78977-42.2965-.455906-4.13386-18.9709-88.2331-38.8524-178.557-4.38544-19.9228-8.83701-40.1481-13.1764-59.8713l-8.55119-.750001 13.7232 62.3835c8.85709 40.239 17.4425 79.239 24.2693 110.411-9.90473-8.11654-19.2354-16.2591-28.3784-24.2386-38.0835-33.2292-73.03-63.7217-126.902-74.5111-2.21811-.441733-4.37717 1.00039-4.8189 3.21851-.441733 2.21811 1.00039 4.37599 3.21851 4.81772 51.7772 10.3689 85.9182 40.1587 123.124 72.6237 11.7236 10.2295 23.7496 20.7236 36.5492 30.8504 6.92363 31.6796 11.4697 52.7693 11.6622 54.5197 2.27717 20.4969 4.0689 33.3024 9.5256 44.8902 5.46969 11.615 14.3823 21.4937 30.8315 35.9894l.225591.197244 40.5319 15.2421c12.1654.848032 24.9945-.78189 36.8906-5.01733 12.0024-4.27087 23.0788-11.191 31.6229-20.8854 8.34095-9.46064 14.2606-21.5303 16.2685-36.3189l-7.89922-2.78268zm480.507-218.134c-21.7819 93.2646-42.4441 181.726-42.9071 185.923-2.1815 19.6406-3.87284 31.852-8.79095 42.2965-4.90394 10.4161-13.265 19.6016-28.8461 33.3319-9.32009 8.21575-23.3067 13.0536-38.4154 14.1071-11.589.807875-23.7851-.616536-35.0209-4.45158-11.1059-3.79016-21.2587-9.94253-28.9099-18.6213-7.25079-8.2252-12.2799-18.7713-13.7717-31.7918l-7.9252 2.55591c1.91811 14.0752 7.55197 25.5768 15.5492 34.6477 8.64331 9.80434 20.0256 16.7232 32.4331 20.9575 12.2728 4.18937 25.5709 5.74725 38.1898 4.86851 1.76339-.124016 3.51378-.294095 5.24764-.511418l36.5646-14.3669c.499607-.407481.990946-.822048 1.47165-1.24606 16.4504-14.4957 25.363-24.3744 30.8303-35.9894 5.45788-11.5878 7.24961-24.3933 9.5256-44.8902.218504-1.97008 6.24922-28.2744 15.1476-66.5989 4.97835-3.96024 10.2295-8.19331 15.3992-12.3567 44.4154-35.7839 83.504-67.2768 142.23-79.0382 2.21811-.441733 3.66024-2.59961 3.21733-4.81772-.441733-2.21811-2.59961-3.66024-4.81772-3.21851-60.6638 12.15-100.494 44.2394-145.753 80.7036l-7.28504 5.86182c7.17048-30.8315 15.7984-67.7717 24.6095-105.5l13.1847-56.4768-8.54056.589371c-4.15512 17.8004-8.40709 36.0059-12.6165 54.0319z" fill="#a8a8a8"/><ellipse fill="#b7b7b7" rx="35.1555" ry="57.0319" transform="matrix(-.739749 -.221577 -.221577 .739748 1157.31 466.769)"/><ellipse fill="#b7b7b7" rx="35.1555" ry="57.0319" transform="matrix(.739749 -.221577 .221577 .739748 883.954 466.769)"/><path d="m882.05 429.418c0 26.7378 3.67914 53.8973 10.5614 79.7056 6.80906 25.5331 16.748 49.7528 29.3492 70.9371 27.0083 27.587 52.9418 43.63 77.0682 50.4178 26.2524 7.38308 50.4756 3.74528 71.6469-7.87442 19.7858-10.8626 37.0429-28.7079 50.9398-51.1004 1.22244-1.9689 2.4189-3.97441 3.58937-6.013 21.5351-37.5225 33.9827-86.2194 33.9827-136.069h.0259843c0-51.7807-13.7823-86.1331-37.8201-107.378-24.091-21.2906-58.9099-29.8288-100.771-29.8288-41.8618 0-76.6831 8.5382-100.775 29.8288-24.0201 21.2303-37.7977 55.5768-37.7977 107.374z" fill="#ababab"/><path d="m903.44 513.061s-10.9925-82.4434 12.8244-107.635c0 0 99.8493 61.3749 153.438-7.78583 0 0 3.2067-33.665 23.1307-35.0386 0 0 27.9378 11.2205 42.5953 83.1331l-.458268 68.2453 26.3162-50.8418s39.1819-101.223-14.8654-139.243c0 0 2.75079-75.1158-150.232-67.3288 0 0-95.2725-5.49567-123.669 101.682-12.4748 47.6717-3.76063 83.5288 4.11614 103.15l.0236221.595276 1.06772 2.03622c3.98504 9.30237 7.47756 14.2606 7.48819 14.2772l18.2232 34.7528zm-18.2232-34.7504v-.00236221" fill="#202020"/><path d="m0 0h2048v2048h-2048z" fill="none"/></svg>