<svg clip-rule="evenodd" fill-rule="evenodd" height="2048" image-rendering="optimizeQuality" shape-rendering="geometricPrecision" text-rendering="geometricPrecision" viewBox="0 0 2048 2048" width="2048" xmlns="http://www.w3.org/2000/svg"><g fill="#b7b7b7"><path d="m636.07 1332.41c-11.2016-103.291-86.6481-351.894-93.2339-448.307-4.71969-69.0993-20.615-345.653-1.31221-399.323 18.5079-51.4441 67.3205-136.98 84.3721-164.243 82.8544-13.6512 50.0599-70.5154-7.92993-64.0205-1.85433-.389764-8.55591.817323-11.9717 3.60236-77.993 96.7536-115.759 99.7631-149.394 122.065-28.9559 23.6847 1.81536 63.5575 12.1087 92.5997 33.4949 94.565-126.667 308.294-30.9378 500.989 10.7988 20.4638-11.4945 282.125-18.3461 339.464 73.6678 7.55079 143.327 9.22324 216.645 17.1732z"/><path d="m657.186 1647.11c44.6859 31.6666 335.473-40.5201 408.185-12.6933-64.578 25.2921-261.692 62.8619-312.181 78.5469-43.4422 13.4669-95.8914 32.4957-152.316 35.941-29.8713 1.82362-68.9693-6.76418-90.6674-9.60355-14.315-1.87323-165.872 13.7917-85.6879 44.0965 56.2642 1.08898 119.92-7.72323 179.284 3.93307 84.7607 16.6441 201.858-16.8402 286.787-12.7311 213.117 10.3122 492.77-73.6867 485.224-231.588-31.2071-136.35-122.23-147.767-244.666-156.657-142.656-10.3583-286.292 55.6949-437.638-10.5638 22.461 65.9457-81.0095 239.653-36.3248 271.319z"/><path d="m1065.37 1634.41c-64.578 25.2933-261.692 62.863-312.18 78.5469-43.4433 13.4669-95.8926 32.4957-152.317 35.941-29.8713 1.82362-68.9705-6.76418-90.6674-9.60473-14.315-1.87205-165.872 13.7929-85.6867 44.0965 56.2619 1.09016 119.919-7.72205 179.283 3.93425 84.7607 16.6441 201.858-16.8414 286.787-12.7311 102.627 4.96654 220.674-11.9492 314.659-48.4441l-139.878-91.7387z"/></g><path d="m694.817 1370.48c1.74921-15.6177-55.7658-5.31496-58.7469-38.0693-57.4937-19.1327-180.795-17.9599-216.645-17.1744-.271654.908268-1.68307 4.9063-2.31496 5.90434-101.225 158.844 2.14488 382.755 240.033 331.679 52.3619-61.3512 59.2311-241.49 37.6737-282.339z" fill="#8e8e8f"/><path d="m1655.2 1500.29s-19.0772-28.2319-29.517-38.8713c-10.4421-10.6406-29.5607-23.9457-42.4796-25.774-9.47009-1.33701-17.6091 5.64331-25.6571-.135827-8.04804-5.77678-53.0304-45.652-61.167-41.7426-12.4287 5.97874-3.61063 10.4504-10.8036 19.5166-2.41654 3.04843-10.8165 1.3748-14.6232 1.01457-3.80906-.360236-34.3748-11.8193-47.8441-.147638-13.4693 11.674-12.5835 32.1343-13.9122 43.8874-1.32756 11.7543-3.50315 26.1803-8.34922 33.8256-6.19607 9.77835-39.7878 5.16496-60.7748 1.17992-9.96615-1.89213-21.0744 6.93544-21.0744 6.93544-.0011811.0011811-13.3335 3.38032-17.6386 36.5221-4.31457 33.1465 14.7095 66.0142 27.1512 66.3119 12.4429.295276 71.6705-9.32481 90.7418 1.24252 19.0843 10.5567 116.719 117.332 191.532 51.0059 74.8217-66.3178 60.443-133.01 44.4154-154.771z" fill="#b7b7b7"/><path d="m1608.62 1471.82c-14.4177 13.0335-12.4217 49.0985-36.9567 40.1292-21.0177-7.68308-19.1717-3.27166-34.839 1.89921-21.5941 7.12678-24.45 4.07363-27.5315 19.4823-3.35433 8.87009 36.1677 35.9929 14.4791 54.3-21.6827 18.3106-51.7654-12.6662-57.3189-24.9614-4.71969-10.4445-49.0571 12.8197-49.3075 41.426-.134646 15.3012 15.548 27.1772 49.5237 47.2996 113.352 67.1398 177.61 37.2803 199.996-91.7623 14.6622-84.5257-29.1803-135.745-58.0453-87.8127z" fill="#202020"/><path d="m0 0h2048v2048h-2048z" fill="none"/></svg>