<svg clip-rule="evenodd" fill-rule="evenodd" height="2048" image-rendering="optimizeQuality" shape-rendering="geometricPrecision" text-rendering="geometricPrecision" viewBox="0 0 2048 2048" width="2048" xmlns="http://www.w3.org/2000/svg"><path d="m788.639 923.301c-108.928-26.6091-205.642 22.5543-288.591 26.5784 53.7213 133.845-12.411 174.725-14.1059 312.673-.53504 43.6866 24.5681 98.6351-12.685 120.964-4.73859 2.61614-9.87166 3.07796-15.5587 1.38189-11.2937-3.34725-33.854-5.14607-34.1209-5.1567-28.2626-3.7063-94.9702 7.0193-152.596 15.6839-15.5138 1.50591-22.4339-23.0433-3.63544-28.5768 44.6693-29.9918 61.8945-37.8331 114.026-61.6465 13.1102-5.92087 26.3067-12.9839 29.7047-25.4055 14.7673-53.9599-29.8878-244.995-17.354-373.127 5.22638-53.4284 17.4732-59.2276 65.3894-77.0245 68.5264-25.4504 213.019-64.0111 372.317-77.328-3.39095 46.6075-11.3622 126.729-42.7902 170.984z" fill="#b7b7b7"/><path d="m1026.39 930.346c73.8591-24.8965 247.948 24.0142 362.418 1.40315 14.3492 60.7489 16.8992 137.614 20.7272 174.145-24.1477 72.2516 26.0906 217.7 21.2504 224.097-20.1307 26.6055-202.78 68.2619-75.8245 65.2855l99.1607-.735827c14.165 1.29449 27.0969-38.8004 28.6654-57.1902 8.78977-48.4252-11.3917-142.185-5.36339-188.74 32.0162-247.544 18.4406-150.346 46.0937-287.231 9.26221-46.1327 4.20473-119.581-52.4115-129.91-211.035-38.5205-204.131 52.3996-415.664 21.9366-81.2032-11.6953-24.7689 129.698-29.0516 176.94z" fill="#b7b7b7"/><path d="m788.64 923.303c-13.298-44.3681 41.3658-143.61 42.789-170.984 32.1839-8.59253 188.185-4.8189 224.013 1.08662.53504 38.2347-3.75591 142.52-29.0492 176.94-53.5619 50.002-181.218 55.0028-237.753-7.04292z" fill="#8e8e8f"/><path d="m1771.33 720.096s-21.4512-21.6012-32.3882-29.2004c-10.9394-7.6004-29.9386-16.0925-41.5831-15.5445-8.53583.403937-14.5169 7.88859-22.5449 4.15748-8.02678-3.72992-54.1583-31.2343-60.6485-26.4473-9.913 7.32048-1.42677 9.77599-6.23032 18.9331-1.61339 3.07796-9.26457 3.00945-12.6673 3.32717-3.40276.318898-32.1425-4.64528-42.0201 7.84489-9.87757 12.4925-5.68937 30.3036-4.89685 40.8426.793701 10.5378 1.2874 23.5642-1.69134 31.0831-3.80906 9.61536-34.0642 11.165-53.1496 11.165-9.06379 0-17.3433 9.60001-17.3433 9.60001 0 .0011811-11.1402 5.18977-9.39568 34.9973 1.7374 29.8146 23.9138 55.4953 34.8851 53.6835 10.9713-1.81536 61.356-20.1307 79.8579-14.0339 18.5114 6.08623 122.009 83.5371 176.625 12.8492 54.6237-70.6831 30.887-126.828 13.1917-143.257z" fill="#b7b7b7"/><path d="m1725.7 702.877c-10.4835 13.8437-2.72008 45.1678-25.7516 41.3835-19.7291-3.24095-17.374.324803-30.2646 7.4752-17.7662 9.85394-20.7815 7.65001-20.9185 21.6886-1.46693 8.34568 37.7457 25.5662 21.7583 45.2516-15.9803 19.6854-47.5489-2.49095-54.4725-12.3579-5.88426-8.38111-40.9252 19.4291-36.3768 44.5807 2.43189 13.4539 18.1772 21.2646 51.3544 33.2646 110.688 40.0418 162.115 3.12166 160.258-113.881-1.21772-76.6382-48.2386-114.291-65.5867-67.4056z" fill="#202020"/><path d="m0 0h2048v2048h-2048z" fill="none"/></svg>