<svg clip-rule="evenodd" fill-rule="evenodd" height="2048" image-rendering="optimizeQuality" shape-rendering="geometricPrecision" text-rendering="geometricPrecision" viewBox="0 0 2048 2048" width="2048" xmlns="http://www.w3.org/2000/svg"><path d="m1248.55 1048.49c.741733 96.2174-41.9563 204.369-33.0272 281.523 123.082-47.315 222.134 21.6721 303.807 20.0646 51.8386-1.02047 66.0331-44.0481 104.543-45.7004 5.17796-.0377953 9.70394 1.91339 13.7091 5.93386 7.96772 7.96418 26.1095 19.7634 26.3303 19.8945 22.0677 16.0039 75.3697 27.6591 127.761 46.6559 1.51772.551575-2.38347 24.9815-9.9756 25.6795-51.2256 4.83898-123.735 9.81733-178.415 6.06024-12.7323-.875198-25.924-1.02756-40.3252-.477166-26.8016 1.0311-58.4918 2.74016-92.041 4.54961-116.001 6.26103-259.966 14.0339-325.943.477166-70.9217-91.0182-93.3249-284.919-89.5477-400.231 66.626-36.6768 171.476 19.4965 193.125 35.5701z" fill="#b7b7b7"/><path d="m1016.98 957.476c-78.5705-22.5154-278.123-24.3603-376.37-68.0953-3.80315 70.226 15.2504 168.885 4.49528 211.911-5.40591 21.4949 15.1831 188.568 11.7248 250.883-3.83622 69.0556-1.44095 65.2878-20.2016 65.2878-9.78898-.259843-46.7847 1.49764-91.5733.229134-26.5229-.752363-55.6914 1.02165-83.3528-2.60669-7.05827-.900001-11.9976-5.73308 6.4441-14.5004 16.226-7.71379 47.5713-8.44843 72.6603-10.6193 36.2599-3.13701 64.741-7.52717 59.8902-25.6134-7.84016-46.8402-4.58859-112.815-29.0977-169.843-7.55552-17.5547-11.2713-36.1713-11.0457-55.3548 3.44528-288.278-35.0799-180.345-44.5524-341.365-3.12874-54.2587 14.5417-137.437 80.9599-140.087 104.96-4.19292 309.847 35.2099 461.23 112.737.437008 55.2166-42.5882 136.756-41.2111 187.036z" fill="#b7b7b7"/><path d="m1055.43 1012.92c42.0189-18.7288 110.43 11.8276 187.217 33.7063 7.35827 2.0941 4.81063 5.76497 8.08701 1.3748 18.9567-25.3961 120.186-250.729-192.539-277.566-20.5559 39.091-49.2473 138.358-41.2111 187.036 26.6433 29.8831 35.4496 42.965 38.4461 55.4493z" fill="#8e8e8f"/><path d="m268.422 787.445s16.4658 24.2551 25.4681 33.3898c9.00355 9.13701 25.4776 20.5488 36.5977 22.0984 8.15079 1.13268 15.1406-4.88859 22.076.068504 6.93544 4.95709 45.7122 39.1819 52.7056 35.804 10.6819-5.16733 3.0874-8.99883 9.25867-16.813 2.07402-2.62677 9.30355-1.20354 12.5811-.89882 3.27756.301181 29.5973 10.1055 41.165.0377953 11.5677-10.0689 10.7669-27.6721 11.889-37.787 1.11969-10.115 2.96575-22.5319 7.12087-29.1189 5.31378-8.42481 34.2236-4.51772 52.2886-1.12795 8.57953 1.60984 18.1205-6.00591 18.1205-6.00591 0-.0011811 11.4662-2.93386 15.1087-31.4563 3.65079-28.5272-12.7784-56.7721-23.4839-57.0059-10.7067-.230315-61.6477 8.1567-78.0768-.900001-16.4398-9.04843-100.642-100.737-164.89-43.5331-64.2544 57.1997-51.7595 114.555-37.9288 133.249z" fill="#b7b7b7"/><path d="m308.557 811.848c12.3815-11.2406 10.5969-42.2681 31.7233-34.5957 18.098 6.57166 16.5024 2.77914 29.9729-1.69843 18.5658-6.17126 21.0295-3.5504 23.6516-16.813 2.87008-7.63819-31.1847-30.9024-12.5575-46.6937 18.6225-15.7949 44.563 10.8024 49.3642 21.3709 4.08071 8.97757 42.1843-11.1213 42.3473-35.7343.0874016-13.1658-13.428-23.3551-42.6981-40.6063-97.6524-57.5575-152.884-31.7469-171.908 79.3229-12.4595 72.7536 25.3583 116.743 50.1048 75.4477z" fill="#202020"/><path d="m0 0h2048v2048h-2048z" fill="none"/></svg>