<svg clip-rule="evenodd" fill-rule="evenodd" height="2048" image-rendering="optimizeQuality" shape-rendering="geometricPrecision" text-rendering="geometricPrecision" viewBox="0 0 2048 2048" width="2048" xmlns="http://www.w3.org/2000/svg"><path d="m1009.54 1063.49c-45.8705 18.8173-246.292 113.085-254.766 126.108-83.2064 121.283-264.123 96.7666-309.444 148.233-13.9158 15.8102-27.4855 47.452-51.2622 38.0433-24.5103-12.6626-38.8725-34.213-122.599-48.587-2.8004-1.11378-5.75079-4.7126-6.13583-5.9504-23.1744-32.465-.132284-70.969 35.5902-26.0386 21.9532 1.11024 89.2701 1.79528 126.145-4.27323 7.29922-1.20118 85.5095-29.5654 109.661-39.8197 48.3863-20.5453 94.4139-57.0178 128.347-93.841 82.9949-90.0568 225.174-159.848 315.734-222.08 9.08387 39.6071 1.0311 94.9902 28.7303 128.206z" fill="#b7b7b7"/><path d="m1191.63 982.646c57.502-36.3296 186.277 8.97166 280.066-36.4205 2.05748 56.1508-3.32717 125.547 4.7752 157.957-12.3284 66.9993-7.48465 221.195-10.9713 227.467-7.03347 12.6591-54.9178 25.95-89.0682 32.5618-36.215 7.01221-16.9795 15.6354 6.51615 14.9587 45.5575-2.26181 91.1174-4.52244 136.675-6.78426 24.7784-28.6524-11.1626-55.8485 12.2421-190.332 12.0969-69.5422 40.6618-246.542 44.563-312.854 2.42126-42.0083-11.2595-106.408-62.6835-108.46-36.7465-1.46811-87.8245 4.01339-143.593 16.0099-67.2721 14.4697-121.043 59.8713-213.647 74.2264 17.6669 34.5591 38.3528 93.5977 35.126 131.669z" fill="#b7b7b7"/><path d="m1008.1 1067.49c-28.5756-29.9847-21.0095-114.252-30.9638-136.651.483071-.432284 2.5441-2.46969 2.97756-3.15118 39.6225-19.0996 104.569-56.8654 176.534-79.6619 15.9142 30.2658 47.1178 100.142 40.8957 137.83-22.4445 61.5603-119.236 108.199-189.443 81.6343z" fill="#8e8e8f"/><path d="m1762.98 705.337s-21.7772-15.6898-32.387-20.7201c-10.6122-5.03032-28.3642-9.67324-38.413-7.51536-7.36536 1.58504-11.4862 8.95867-19.0075 6.87166-7.52008-2.08465-51.6154-19.3453-56.5689-14.2441-7.56497 7.79764.170079 8.70946-2.68465 17.3669-.959056 2.91024-7.62402 3.95551-10.5366 4.72323-2.91378.768898-28.6276.601182-35.4154 12.8917-6.78662 12.2906-.572835 27.1772 1.63819 36.2292 2.21339 9.05079 4.52363 20.3103 3.01772 27.2788-1.92402 8.91379-28.0146 14.6303-44.615 17.387-7.88386 1.30866-13.6984 10.8543-13.6984 10.8543s-8.93977 6.12166-3.11811 31.7953c5.81693 25.6807 28.8142 44.8146 38.0941 41.654 9.28111-3.16299 50.4579-26.3693 67.4315-23.7378 16.9784 2.62087 118.181 55.0394 155.477-14.3291 37.3028-69.3662 8.54883-114.77-9.21379-126.506z" fill="#b7b7b7"/><path d="m1720.8 696.951c-7.11969 13.5543 4.1563 39.678-16.4221 39.7122-17.628.0307087-15.065 2.79095-25.2437 10.8721-14.0291 11.1366-16.9701 9.65552-15.0626 21.8847-.0696851 7.47048 36.5221 16.7858 25.4599 36.215-11.0563 19.4303-41.7166 4.70079-49.1634-2.88071-6.32835-6.44056-32.7886 22.8083-25.2012 44.0268 4.05827 11.3504 18.8811 15.8705 49.4705 21.5173 102.054 18.8421 141.451-20.6965 122.941-122.191-12.1264-66.4819-58.4599-92.4402-66.7784-49.1563z" fill="#202020"/><path d="m0 0h2048v2048h-2048z" fill="none"/></svg>