<svg clip-rule="evenodd" fill-rule="evenodd" height="2048" image-rendering="optimizeQuality" shape-rendering="geometricPrecision" text-rendering="geometricPrecision" viewBox="0 0 2048 2048" width="2048" xmlns="http://www.w3.org/2000/svg"><path d="m571.437 1184.73s43.8048 4.26024 62.9894 2.6315c19.1882-1.62874 48.1713-9.7004 60.6284-21.052 9.12875-8.32323 8.88308-22.1717 21.261-25.4221 12.3768-3.25276 89.0989-15.1854 91.9087-26.5016 4.28386-17.2914-7.42796-12.1984-10.5284-26.8217-1.04291-4.91457 7.5378-11.8961 11.0327-15.3886 3.4937-3.4937 40.0666-24.4772 39.541-47.4922-.526772-23.0173-21.6177-38.9823-32.2205-49.9819-10.6051-10.9996-23.1697-25.0453-26.7874-36.1618-4.63111-14.2181 27.6201-43.8496 48.867-61.454 10.0902-8.36103 10.4516-26.6847 10.4516-26.6847-.0011811-.0011811 7.61457-16.0524-21.8221-47.6256-29.4355-31.5862-77.8087-39.7181-88.3501-27.5823-10.5402 12.1406-49.7339 79.004-75.9544 89.2831-26.2205 10.2992-212.875 19.5449-208.471 148.612 4.39016 129.07 82.6005 169.674 117.454 171.641z" fill="#a8a8a8"/><path d="m638.122 1161.81c-1.09843-25.0807-38.6339-52.7894-9.50552-69.8209 24.9532-14.5902 19.0429-16.3866 26.7969-36.2362 10.6878-27.3579 16.0772-27.6862 3.2811-43.4398-6.06497-10.6429-65.6008 6.35552-65.9611-30.3036-.368504-36.6555 55.2296-41.0859 72.0379-36.489 14.2819 3.90237 27.6366-59.3764-.624804-83.1804-15.1181-12.7335-39.8504-6.90473-87.8516 10.3382-160.152 57.5233-183.346 146.058-73.3583 274.592 72.0461 84.1902 159.121 82.7339 135.186 14.5394z" fill="#202020"/><path d="m1237.2377851 435.5146135c-131.658 35.7851-403.037 186.35-508.485 349.108 10.3973 55.9252 37.989 117.013 107.154 134.294l.187795-.0850394.0885827-.034252.0177165-.00708662.184252-.0625985.0283465-.00944883.0732284-.0236221.0330709-.00826772.0696851-.0200788.0377953-.00944883.0673229-.0165354.0401575-.00944883.0625985-.0141732.0437008-.00944883.0614174-.011811.0472441-.00944883.0578741-.00826772.0496063-.00826772.056693-.00826772.0519685-.00708662.0519685-.00708662.0555119-.00472441.0496063-.00590552.0590552-.00472441.0484252-.00472441.0590552-.00236221.0472441-.00236221.0614174-.00236221.046063-.0011811h.0614174l.214961.00354331.0437008.0011811.0637796.00354331.0425197.00354331.0649607.00472441.0425197.00354331.0637796.00826772.0413386.00354331.0649607.00944883c.579922.080315 1.15158.275197 1.67717.590552l.0212599.0141732.0744095.046063.0165354.011811.0885827.0590552.0897638.0614174.0862205.0625985.0885827.068504.0897638.0720473.0850394.0732284.0696851.0625985.0153543.0129921.0649607.0602363.0177165.0177165.0590552.0590552.0200788.0188977.0555119.0578741.0212599.0248032.0531496.056693.0720473.0826772.0236221.0259843.0472441.0578741.022441.0283465.0472441.0590552.0200788.0283465.0448819.0602363.246851.37441.011811.0188977.102756.188977.0507874.0956694.0484252.102756c26.5736 54.3544-102.995 303.356-113.635 328.611l-210.591 309.347c-9.1252 10.1835-11.3728 12.685-22.4693 10.441-36.8233-.767717-88.7694.516142-134.304 5.40591-34.1587 3.67087-64.5532 9.34489-81.8257 17.6587-15.5268 7.47402-39.163 24.8705-6.72993 27.5339 39.5055 3.24213 88.8757 5.86654 131.088 7.08662 39.013 1.12795 71.9847 1.07835 85.4682-.764174 18.8575-2.57599 35.2772-9.0815 54.1264-20.4154l69.9012-50.341 212.834-242.816c55.813-114.008 177.082-296.048 153.002-420.692-.380315-1.99134.630709-3.92835 2.3504-4.80355l302.846-158.987c-56.2666-74.9327-63.3733-203.325-46.604-292.864z" fill="#b7b7b7"/><path d="m1530.2129 1135.6564c40.9583 119.333 117.937 345.594 133.459 383.491.814961 1.86378.271654 4.10906-1.44095 5.36221-23.0681 17.1118-51.4489 23.5606-82.8438 30.6921-32.4378 7.37008-68.1815 15.4902-103.846 37.0359-.296457.219685-.625985.407481-.989765.548032-5.3315 2.1626-6.92717 14.0398-6.34489 20.5051.468898 5.20512 2.57244 14.2146 8.05158 14.9433 13.852 1.20591 55.9359 1.63465 101.104 1.61102 17.8654-.00826772 218.58 16.65 214.579-40.4752-1.74331-24.9036-21.926-71.0564-43.9347-124.016-22.5709-54.3367-25.6453-98.4391-29.1166-148.251-3.23386-46.4138-6.82087-97.8532-27.1288-167.178-28.1232-96.0036-49.8626-70.3524-64.2945-177.626-5.31851-39.5221-11.0457-87.6237-16.9477-137.183-8.46733-71.1107-13.7669-162.762-21.6154-216.933-79.0914 28.0866-162.877 81.3733-225.238 140.471 10.4787 24.678 32.4922 65.6835 50.1083 105.839 33.8634 77.1839 77.1733 175.896 116.196 270.581.0944883.184252.175984.377953.243307.582284z" fill="#b7b7b7"/><path d="m1234.289789 436.58327559c-5.7 22.3217-19.5603 91.4694-6.67914 165.767 7.46221 43.0394 23.9315 87.789 56.2335 126.03 12.874-6.48426 38.9185-20.4437 47.3764-17.1473l.0177165-.00944883.592914.265748.0141732-.0153543.539764.249213c7.9878 3.67559 25.3748 37.774 30.1477 47.4036.715749-.405118 1.53543-.637796 2.35276-.650788 52.467-49.5331 136.921-94.0052 189.659-121.774 14.2476-7.50119 26.1697-13.7799 34.363-18.5185-11.9953-183.971-205.133-236.558-354.618-181.599z" fill="#8e8e8f"/><path d="m0 0h2048v2048h-2048z" fill="none"/></svg>