<svg clip-rule="evenodd" fill-rule="evenodd" height="2048" image-rendering="optimizeQuality" shape-rendering="geometricPrecision" text-rendering="geometricPrecision" viewBox="0 0 2048 2048" width="2048" xmlns="http://www.w3.org/2000/svg"><path d="m1065.89 1040.93c73.6961 25.5142 261.222 58.1245 328.845 78.743 63.9367 19.4941 208.191 114.147 267.202 124.746 39.7382 7.13623 70.3382 88.069 83.1886 108.038-16.9441 59.6504 31.3654 55.6288 45.2681 14.8441.843308-1.1185 2.14488-5.97402 1.35827-9.13347-40.1067-82.5449-30.2339-108.722-34.5532-138.21-6.71457-26.7957-43.0347-18.7819-65.6752-21.0402-73.7162-7.37245-166.125-181.614-324.981-178.276-16.8083.764174-181.632-94.8024-221.025-119.048-17.9752 39.9177-52.004 105.545-79.6288 139.337z" fill="#b7b7b7"/><path d="m907.422 961.028c-68.693-19.298-239.76-37.8768-305.233-46.8579-2.57126 60.9036 12.7299 139.376 3.90237 174.686-4.52008 17.9788 12.6992 185.378 9.80788 237.497-3.20906 57.7583-.980316 57.7583-16.6725 57.7583-11.7378 0-86.6776 3.3189-149.991-5.13898-9.72993-1.24016 31.2284-33.8764 54.2717-34.6394l45.2622.0366142c16.2378-.538583 21.9662-16.3453 19.2791-32.3622-6.55749-39.1784-2.9374-97.4847-23.439-145.184-6.31772-14.6835-9.42757-30.2528-9.23859-46.2992 2.88307-241.116-29.3398-150.841-37.2626-285.519-2.61614-45.3827 12.163-114.952 67.7162-117.169 87.5386-3.49725 259.31 29.8158 385.775 94.2934-17.948 34.8378-44.1981 107.255-44.1792 148.897z" fill="#b7b7b7"/><path d="m1014.82 1018.78c9.88465 6.0815 28.252 13.839 51.0733 22.1504 30.8693-32.3918 68.8749-115.139 79.6276-139.337-.520867-.467717-2.74725-2.66811-3.21614-3.40394-26.5252-41.9965-95.5146-84.3367-190.707-86.0587-17.1933 32.6965-50.902 108.183-44.1803 148.897 38.0752 16.4894 79.9477 40.8555 107.402 57.7524z" fill="#8e8e8f"/><path d="m265.86 791.299s12.1665 25.063 19.3831 34.8851c7.21654 9.82324 21.1477 22.8095 31.3925 25.7882 7.51064 2.18032 14.9067-2.52638 20.7508 3.08504 5.8441 5.60906 37.6276 43.1008 44.667 40.8803 10.7528-3.39803 4.13504-8.03977 11.0079-14.5441 2.30906-2.18622 8.91379.141732 11.9539.875198 3.04016.733465 26.4508 13.5532 38.7071 5.66811 12.2551-7.88623 13.911-24.5492 16.35-33.9083 2.43662-9.35906 5.87126-20.7839 10.6807-26.4095 6.14882-7.19646 32.8028.433465 49.3264 6.09331 7.84725 2.68819 17.8618-3.1689 17.8618-3.1689.0011811-.0011811 11.185-1.19055 18.5126-27.515 7.33583-26.328-4.24961-55.1374-14.2843-56.8217-10.0382-1.68189-59.0918-.764174-73.3016-11.5287-14.2228-10.7587-80.8631-108.503-149.108-63.4973-68.2512 44.9989-64.3477 100.647-53.8996 120.118z" fill="#b7b7b7"/><path d="m300.266 819.739c13.1811-8.87717 15.7476-38.2996 34.5662-28.1941 16.1209 8.65631 15.1382 4.87205 28.4185 2.50276 18.3047-3.26339 20.2618-.46063 24.5433-12.574 3.74292-6.79134-25.0996-33.3284-5.42126-45.6296 19.6736-12.3059 40.4292 16.2555 43.4977 26.85 2.60906 9.00237 41.1933-4.68544 44.7142-27.8103 1.88268-12.3685-9.43347-23.8004-34.5992-44.028-83.9587-67.4871-139.43-50.7721-172.517 51.0768-21.6697 66.7134 7.8756 113.255 36.7973 77.8064z" fill="#202020"/><path d="m0 0h2048v2048h-2048z" fill="none"/></svg>