<svg clip-rule="evenodd" fill-rule="evenodd" height="2048" image-rendering="optimizeQuality" shape-rendering="geometricPrecision" text-rendering="geometricPrecision" viewBox="0 0 2048 2048" width="2048" xmlns="http://www.w3.org/2000/svg"><path d="m1216.248 905.368c27.7666 96.7985 74.0316 188.73 90.1465 211.971 22.4362 1.3689 196.211-31.5378 202.197-48.9355-43.3418-44.9221-57.4477-103.817-63.1796-157.099-5.78622-53.7815 1.2378-110.304 8.50394-165.99 3.61772-27.7406.670867-60.078-8.78387-90.1938-17.5488-55.9004-52.6701-98.3705-113.245-100.133-2.33504-.0673229-4.70552-.0755906-7.11733-.0200788-10.6937.240945-21.2752 1.86378-31.2059 4.84016-14.9492 4.48111-28.4244 12.0319-38.589 22.5685-.518504.536221-1.02638 1.08071-1.52835 1.63228-.47126.522048-.936615 1.05118-1.39252 1.58504-12.6284 14.7638-56.0563 6.98741-96.391 10.1126-39.4937 3.06024-76.1445 5.90197-103.349-.0129921-50.3918-10.9488-102.126-17.6303-154.049-20.6339-86.1178-4.98307-166.198 1.73858-251.01 9.17009-49.0181 4.29567-99.1217 8.68583-146.603 10.3937 7.99371 11.7673 17.6681 21.3425 28.4351 29.0563 30.6473 21.9532 70.2095 28.904 105.337 28.4681 35.1272-.437008 65.5808-8.18268 78.2505-15.6945 2.13189-1.26496 3.60827-2.43071 4.33347-3.4441 1.03583-1.44685 2.81929-2.04095 4.44685-1.63228 69.0851 13.7327 182.403 24.137 255.929 30.8859 34.2992 3.14882 60.0083 5.50985 68.6764 7.03819.526772.0933072 1.01457.281103 1.44685.542126 20.4473 10.363 43.2118 19.5106 67.2627 27.0697 23.9386 7.52245 49.0973 13.4669 74.4603 17.4662.0188977.0011811.0389764.00354331.056693.00472441 2.31496.198425 4.02992 2.23937 3.83032 4.55315-5.27126 60.6107 5.89134 126.318 23.1331 186.43z" fill="#b7b7b7"/><path d="m1112.33 1186.22c-34.415 13.513-64.3583 26.1-80.2524 34.6583-69.5847 37.4717-48.2835 124.66.0862205 214.481 47.5489 88.2957 121.244 179.034 161.973 229.184 11.5913 14.2713 20.5205 25.2662 25.5662 32.1815 2.9504 4.04174 3.8374 9.08505 2.3374 13.9559-1.47874 4.80355-5.11063 8.5819-9.78072 10.2484-.62126.220866-1.26142.288189-1.87677.219685-19.5969-1.27205-89.2075 20.5016-127.521 41.4319-9.64843 5.27008-17.1602 10.4091-21.1264 14.9764-2.5441 2.9315-3.19488 5.39292-1.17874 7.063 4.52008 3.74292 16.0736 6.39686 38.9114 7.38544 25.0925-.105118 54.2268-3.21733 84.0379-7.60749 44.0138-6.48308 89.4261-15.7595 119.72-22.3878.441733-.0968505.833859-.201969 1.17165-.309449 4.52008-1.45276 8.68701-5.33386 11.5228-9.96733 2.79095-4.56378 4.21536-9.71457 3.3189-13.8059l-.0921261-.39567c-16.6807-26.765-31.9855-55.5591-45.7052-84.7879-15.3697-32.739-28.7197-65.9682-39.7713-97.4516l-1.77756-5.0941c-11.4732-32.9776-45.189-129.871-87.5162-184.191l-.0141732.00472441c-1.42795-1.83307-1.10079-4.47756.732284-5.90552.666142-.519685 1.43858-.806694 2.22284-.874016 22.6122-3.28465 46.539-6.47126 70.6985-9.68505 74.1296-9.86103 162.435-23.3386 232.466-41.2099-49.4882-55.9985-169.19-100.846-186.585-178.331-39.4796 14.0929-103.787 37.4492-151.567 56.2134z" fill="#b7b7b7"/><path d="m1263.9 1130c6.89056 32.1213 28.9075 62.1815 55.7363 88.2402 47.1071 45.7548 108.972 79.0583 130.85 90.0934 14.8146-5.83347 31.5969-13.8366 46.4918-24.3366 15.2185-10.7268 28.4327-24.0484 35.3859-40.2733 13.2721-30.9662 17.6953-61.6028 13.4232-91.3217-4.18701-29.1154-16.7445-57.4406-37.5225-84.4241-34.8461 5.59725-68.9623 12.7453-99.0768 19.8201-58.33 13.7067-101.464 27.137-105.836 28.5107-.153543.0507874-.305906.0980316-.458268.145276-1.52835.520867-8.58662 2.93858-19.6264 6.77599l-19.3666 6.77008z" fill="#8e8e8f"/><path d="m1232.27 279.231s-25.3914 24.6213-34.3701 37.2213c-8.98111 12.6036-19.1091 34.5567-18.6343 48.0922.35315 9.92127 8.96457 16.9725 4.5189 26.2465-4.44449 9.27402-37.0347 62.4827-31.5626 70.089 8.36575 11.6173 11.3374 1.7941 21.9083 7.50001 3.55276 1.91693 3.36733 10.8047 3.68977 14.7614.323622 3.95788-5.84174 37.2756 8.53229 48.9237 14.3752 11.6469 35.1248 7.02875 47.3776 6.25394 12.2539-.777166 27.3933-1.17047 36.0851 2.3941 11.1189 4.55788 12.5008 39.7264 12.2362 61.8981-.126378 10.5295 10.9122 20.2807 10.9122 20.2807.0011811 0 5.87481 13.0134 40.526 11.3988 34.6595-1.6063 64.7989-27.013 62.8465-39.7819-1.95709-12.7725-22.5378-71.5571-15.1984-92.9658 7.32638-21.4205 98.7331-140.581 17.3705-205.005-81.3568-64.4351-146.907-37.6359-166.238-17.3067z" fill="#b7b7b7"/><path d="m1211.64 332.008c15.9366 12.3697 52.4339 3.78425 47.7189 30.4878-4.03819 22.8744.135827 20.1874 8.26418 35.2607 11.2016 20.7768 8.60079 24.2492 24.9071 24.6024 9.67442 1.8189 30.2221-43.4965 52.8685-24.652 22.6488 18.8374-3.55158 55.2036-15.1087 63.1111-9.81851 6.7193 22.004 47.8099 51.2847 42.8752 15.6626-2.63977 24.9543-20.8229 39.3544-59.1981 48.0473-128.032 5.8689-188.284-130.076-187.746-89.0481.354331-133.439 54.4571-79.2131 75.2587z" fill="#202020"/><path d="m0 0h2048v2048h-2048z" fill="none"/></svg>