<svg clip-rule="evenodd" fill-rule="evenodd" height="2048" image-rendering="optimizeQuality" shape-rendering="geometricPrecision" text-rendering="geometricPrecision" viewBox="0 0 2048 2048" width="2048" xmlns="http://www.w3.org/2000/svg"><path d="m1399.4487 1148.7051c-12.2894 98.9387-5.74134 196.064-3.33307 277.829 2.11654 71.8536 4.13386 140.301-4.03229 211.055-.270473 3.06733-3.23977 4.67008-5.78032 3.62953l.00236221-.0141732c-142.102-58.2804-262.074-24.5705-368.253 5.26536-57.489 16.1539-110.985 31.1859-162.232 30.1772-50.4863-.992127-80.8595-23.9162-109.08-45.2115-22.8898-17.2748-44.3091-33.4359-73.7776-34.7977l-.152362-.00708662-.134646-.00944883c-8.31379-.0212599-14.9232 3.22796-20.876 9.18072l-.0165354-.0011811c-13.115 13.1079-36.9095 28.6087-46.5496 35.2359l-.0425197.0271654-.0519685.034252c-25.6311 18.5622-73.989 33.626-130.032 51.0804-29.4992 9.1878-61.1469 19.0465-92.4863 30.3366.145276 8.59725 6.63189 37.1221 14.2512 37.6429l-.0011811.0141732c90.6178 8.56064 217.08 17.0977 311.746 10.5969 23.2984-1.59921 47.0233-1.75748 71.0398-.838583 23.6185.90945 49.2166 2.10945 76.2036 3.47481l85.154 4.50237c202.003 10.8992 452.423 24.4122 568.069 1.20709 31.3725-40.6949 108.24-161.261 160.446-310.57 28.9689-82.8544 57.5245-226.382 52.1918-313.707-104.034 44.2477-216.122 33.8681-322.273-6.13229z" fill="#b7b7b7"/><path d="m1371.21 940.954c-5.70355 57.3508-.252756 124.515 28.0264 206.808.218504.635434.274016 1.2874.191339 1.91103.751182-.0897638 1.56496.0200788 2.38701.379134 56.2276 21.6768 111.267 33.9614 164.899 35.1898 53.067 1.21417 104.803-8.38465 155.003-30.404 6.71221-72.3024 4.67244-149.299-4.21654-219.385-9.11339-71.8512-25.4126-136.375-46.8461-181.021-67.9123 19.9087-123.986 31.9547-169.332 37.9276-38.0079 5.00552-68.5477 5.73662-92.2631 3.24567-12.8303 34.0063-25.813 70.8378-33.3366 112.943-.0188977.152362-.046063.305906-.0814961.459449-1.83307 10.3193-3.33662 20.9563-4.43032 31.9465z" fill="#8e8e8f"/><path d="m1367.52947 906.8468c91.7434-256.891-65.4721-27.0697-68.8394-26.5524l-.288189.0354331c-65.4083 8.16969-137.322-13.8803-207.949-35.5382-50.2323-15.4028-99.8103-30.6059-145.489-34.3536-2.30788-.180709-4.03229-2.2004-3.85158-4.50827.0850394-1.0689.563386-2.01496 1.28268-2.70118 17.804-48.4949 13.0984-82.9737 7.92166-120.907-1.93465-14.178-4.20237-28.8154-4.89331-44.8477l-.477166-11.0551 8.33859-2.30788c5.13662-.650788 10.5815-1.25551 16.3028-1.78937 60.0922-5.60788 150.88-3.64134 238.402 28.1658 51.9721 18.8858 102.794 48.2788 145.399 92.8087.656693.394488 1.18937.959056 1.54488 1.62638 11.0268 11.674 44.3528 36.8729 54.1323 50.6835 74.4662 19.7339 198.16-7.39253 261.595-41.1733-88.2438-155.146-177.147-280.144-281.008-360.234-104.687-80.7284-224.169-124.956-372.045-135.85-129.804-9.56339-206.778 12.9071-249.853 50.8855-27.4358 24.1914-41.1248 54.7796-45.991 87.3733-4.91811 32.9398-.885827 67.9654 7.08662 100.602l16.7102 53.543c1.09843 42.1677 9.82324 81.7973 30.5941 117.41 6.78662 11.6374-.741733 26.6894-.805512 39.6886-.205512 41.7296 1.5248 80.9434 3.54803 118.201.745276 13.7209 1.18937 25.702 1.5815 36.3473 3.11693 84.2989 3.32599 89.8879 106.021 86.6493 10.7551-.337796 22.0595-.735827 33.7949-1.14685 117.972-4.1374 280.165-9.82324 375.961 25.4599.303544.111024.611811.185433.921261.225591 21.8374 3.3437 36.8079-1.24016 48.8493-12.7134 6.49371-6.18898 12.0071-14.3374 17.2347-24.3012 1.10197-10.2071 2.54764-20.1059 4.26969-29.7248z" fill="#b7b7b7"/><path d="m337.922 414.992s19.9583-38.4343 31.5839-53.393c11.628-14.9622 33.8197-34.5567 49.8638-38.7544 11.7614-3.07323 23.0575 4.55197 32.374-3.92244 9.31654-8.47087 60.28-65.3941 71.1249-61.6477 16.565 5.73189 6.08623 12.6673 16.4929 23.0622 3.49725 3.49488 13.8567.154725 18.6118-.858662 4.7563-1.00984 41.6717-19.9488 60.3839-7.18111 18.7134 12.7689 20.5866 38.7307 23.9823 53.3764 3.39449 14.6457 8.25237 32.5429 15.4878 41.4863 9.25276 11.4402 50.9894.703938 76.904-7.39607 12.3071-3.84803 27.6225 5.67402 27.6225 5.67402.0011811.0011811 17.3291 2.31851 27.6107 43.5319 10.2933 41.2193-8.91851 85.4989-24.5835 87.6946-15.6673 2.19213-91.852-1.29449-114.386 14.8358-22.5508 16.1209-130.208 165.207-234.364 92.406-104.165-72.7914-95.7627-159.096-78.7087-188.914z" fill="#b7b7b7"/><path d="m392.579 372.245c20.1095 14.348 22.8614 60.1737 52.5272 45.2611 25.4138-12.7736 23.7284-6.93308 44.2654-2.69528 28.3051 5.83937 31.4646 1.56851 37.6087 20.5713 5.53229 10.7091-40.4008 50.7331-10.3406 70.6749 30.0532 19.9488 63.5044-23.5606 68.719-39.8965 4.43268-13.8768 63.8115 9.01182 68.3115 45.0922 2.40709 19.3004-15.6567 36.5882-55.6111 66.9615-133.297 101.343-218.791 73.0382-265.925-86.6115-30.8717-104.575 16.9925-175.655 60.4453-119.358z" fill="#202020"/><path d="m0 0h2048v2048h-2048z" fill="none"/></svg>