<svg clip-rule="evenodd" fill-rule="evenodd" height="2048" image-rendering="optimizeQuality" shape-rendering="geometricPrecision" text-rendering="geometricPrecision" viewBox="0 0 2048 2048" width="2048" xmlns="http://www.w3.org/2000/svg"><path d="m929.918 812.123c87.417 45.2634 311.259 155.868 402.469 160.217 69.2209 3.3 123.739 73.8662 179.81 120.219 27.9886 23.1343 129.932 78.8044 136.058 87.0048 30.952 41.4378 73.0075 124.575 85.6312 152.252-32.4355 72.515 29.5524 76.2875 54.6685 27.1288 1.27441-1.25906 3.81614-7.17875 3.39922-11.328-35.6918-112.019-18.3697-143.397-18.4311-181.576-3.59174-35.2063-51.1122-31.7138-79.4032-38.7355-92.1083-22.8815-177.274-260.763-379.292-285.701-21.7323-2.14488-216.072-155.801-258.368-191.521-29.9705 47.0764-85.206 123.241-126.542 162.039z" fill="#b7b7b7"/><path d="m872.665 838.973c-67.8993 190.027 198.281 273.919 213.853 454.105 6.12048 59.1355-19.8036 168.601-84.7855 178.005l-56.3445 8.15552-90.73-103.204c-11.7461-4.73504-24.1606-11.8595-36.9284-21.0815-133.056-96.1099-304.566-420.091-159.598-642.141 102.255 12.6059 166.967 80.5678 214.533 126.161z" fill="#b7b7b7"/><path d="m869.232 838.638c11.4154 9.52678 33.2788-41.2429 60.6863-26.5134 45.0863-35.4012 108.465-133.334 126.542-162.039-.575197-.688583-2.9941-3.88701-3.45355-4.90748-72.5812-162.738-311.124-146.766-394.875 67.6359 45.2457 27.8977 179.394 99.3603 211.1 125.824z" fill="#8e8e8f"/><path d="m1402.35 1327.64s-17.3717-30.5929-27.2646-42.3839c-9.8941-11.7921-28.5071-27.0236-41.6587-29.9433-9.64253-2.13662-18.5811 4.39607-26.4024-2.19921-7.82008-6.59292-50.9244-51.2528-59.615-47.8819-13.2732 5.1567-4.55552 10.4693-12.6874 19.2248-2.73307 2.94213-11.2453.546851-15.1358-.131102-3.89174-.675591-34.4362-14.9268-49.239-3.99213-14.8028 10.9358-15.5339 32.0681-17.8441 44.0611-2.31024 11.9929-5.70945 26.6693-11.3114 34.1504-7.16339 9.56812-41.3717 2.12244-62.6563-3.66378-10.1079-2.74961-22.252 5.44607-22.252 5.44607 0 .0011811-13.9973 2.40945-21.0886 36.1796-7.10316 33.776 9.84095 69.1382 22.6252 70.4434 12.7854 1.30276 74.5276-3.84567 93.3119 8.56418 18.7973 12.4004 110.731 130.154 193.071 67.8839 82.3465-62.2619 72.8989-132.07 58.1469-155.758z" fill="#b7b7b7"/><path d="m1356.68 1294.6c-15.8882 12.2587-16.728 49.5449-41.2642 38.3422-21.0201-9.59646-19.474-4.90748-36.0166-.842127-22.8012 5.60315-25.4965 2.2311-29.9055 17.8441-4.16457 8.863 34.3418 39.9567 10.5449 57.0615-23.791 17.1083-52.2709-17.1957-57.0012-30.2977-4.02048-11.1307-51.528 9.25749-54.0827 38.6847-1.36772 15.7417 13.8236 29.2264 47.1827 52.6678 111.295 78.215 179.841 52.6359 213.246-78.4052 21.8799-85.8343-19.1398-142.081-52.7032-95.0552z" fill="#202020"/><path d="m864.601 1376.45c-60.0497 18.2977-240.565 38.3788-287.225 48.9922-40.1481 9.10631-88.8142 22.6004-139.975 21.7536-27.0839-.448819-61.7658-10.9406-81.1477-15.0248-12.7866-2.69292-150.652.814961-80.4178 33.7855 50.6965 4.92756 108.76 1.43858 161.515 16.1209 75.3225 20.9634 183.341-1.04291 259.695 8.62205 92.2654 11.6776 199.98 4.69016 287.352-21.6532l-119.796-92.5961z" fill="#b7b7b7"/><path d="m0 0h2048v2048h-2048z" fill="none"/></svg>