<svg clip-rule="evenodd" fill-rule="evenodd" height="2048" image-rendering="optimizeQuality" shape-rendering="geometricPrecision" text-rendering="geometricPrecision" viewBox="0 0 2048 2048" width="2048" xmlns="http://www.w3.org/2000/svg"><path d="m881.926 1301.89c30.7004.690945 87.6083 6.64961 139.884 10.2508-11.224-52.6359-43.1835-99.0402-55.33-145.906-37.2733 7.21418-87.0095 9.83387-123.324 16.4445-50.0445 9.11103-88.669 25.0595-124.908 31.6902-86.0339 15.7476-115.461-11.002-207.603-11.002-8.92914 0-16.8886-.158268-23.6103-.50315-85.4575-35.1697-185.407-32.3799-196.957-58.8969-9.29528-5.78859-20.7532-6.62717-31.4717-6.37678-.94252.0259843-1.4126.575197-1.64528 1.01575-14.1626 27.75 132.352 91.7505 146.739 121.519 1.53662 7.5189 8.25709 12.7087 15.9307 12.7004 9.88229-.207874 19.813-1.71851 29.4201-3.18425 17.2736-2.63268 33.5965-5.12008 48.0248.137008 153.49 55.6052 232.579 28.441 384.85 32.1118z" fill="#b7b7b7"/><path d="m1299.31 1179.56c15.7677-61.8745 74.126-127.264 170.303-143.351 77.543-22.5166 94.5331 149.245 113.184 204.937-35.7437 8.90079-96.4016 27.6921-158.149 27.4063-58.9359-.271654-117.444 20.3327-139.603 44.478-12.8469 13.9996 103.467-7.23071 143.948-10.4008 88.2001 16.8532 175.113.737008 234.845-19.6299 10.4787-29.4792-22.1929-137.114-41.0859-210.271-24.5008-94.8816 10.3347-192.24-108.442-191.509-20.4815-5.05748-63.1843-24.7843-72.5906-61.1528-105.064-.0944883-241.79 170.821-287.444 266.458 15.528 50.7626 62.7532 87.1855 145.034 93.0343z" fill="#b7b7b7"/><path d="m1021.81 1312.15c121.474 7.7693 263.326 4.28504 273.887-88.6548 1.78347-15.7323 2.90788-30.2835 3.61063-43.9288-76.7316-15.2953-121.664-68.8371-145.032-93.0343-54.2115 4.52126-83.2512 52.6878-179.551 77.7296-2.71299.7063-5.4626 1.36299-8.2441 1.98189 12.3567 47.7603 30.0638 99.5587 55.33 145.906z" fill="#8e8e8f"/><path d="m1563.9 813.566c-35.4544-2.13898-86.1709-9.4878-122.183 6.50315-17.1579 61.5426 49.0536 61.5095 136.011 70.1481-8.54764-19.8118-13.5402-41.2028-14.1272-62.5347-.12874-4.67244-.034252-9.3945.298819-14.1165z" fill="#b7b7b7"/><path d="m1782.39 832.256s-11.8512-24.4134-18.8799-33.9803c-7.02875-9.57048-20.5996-22.2189-30.5776-25.1209-7.31693-2.12244-14.5217 2.46142-20.2134-3.00473-5.69174-5.46496-36.6508-41.9823-43.5071-39.8197-10.4752 3.30945-4.02874 7.8319-10.7232 14.1673-2.25 2.12953-8.68229-.138189-11.6433-.853938-2.96221-.713386-25.7658-13.2012-37.7032-5.52048-11.9374 7.68308-13.5508 23.9126-15.926 33.0284-2.37402 9.11694-5.72008 20.2453-10.4032 25.7244-5.99056 7.00985-39.5788 34.1894-55.6737 28.676-7.6441-2.61732-17.3988 3.0874-17.3988 3.0874-.00236221-.0011811-51.7347 38.2666 3.50788 47.537 9.73583 4.57441 57.2245 21.052 71.4001 11.2311 13.8532 10.4799 78.7654 105.69 145.24 61.8508 66.4808-43.8319 62.6788-98.0363 52.5012-117.002z" fill="#b7b7b7"/><path d="m1748.88 804.553c-12.8398 8.64686-15.339 37.3051-33.6697 27.4618-15.7016-8.4319-14.7461-4.74449-27.6815-2.4378-17.8288 3.17835-19.7362.45-23.9055 12.2492-3.64725 6.61418 24.4477 32.4626 5.27953 44.4461-19.1622 11.9858-39.3803-15.8351-42.3697-26.1544-2.54173-8.76851-40.1244 4.56378-43.5532 27.0886-1.83425 12.0484 9.1878 23.1827 33.7004 42.8859 81.7808 65.7378 135.814 49.4552 168.041-49.7516 21.1087-64.9831-7.67008-110.317-35.8418-75.7879z" fill="#202020"/><path d="m0 0h2048v2048h-2048z" fill="none"/></svg>