<svg clip-rule="evenodd" fill-rule="evenodd" height="2048" image-rendering="optimizeQuality" shape-rendering="geometricPrecision" text-rendering="geometricPrecision" viewBox="0 0 2048 2048" width="2048" xmlns="http://www.w3.org/2000/svg"><path d="m938.798 587.083s-18.0862 20.8984-24.2162 31.3193c-6.13229 10.4232-12.5197 28.2047-11.2252 38.7083.950788 7.69961 8.13544 12.6012 5.3067 20.1236-2.82756 7.52245-24.5681 51.1666-19.7894 56.7154 7.30512 8.47205 8.94804.622441 17.5654 4.34292 2.89725 1.25079 3.35906 8.1815 3.87992 11.2394.522048 3.05906-2.00551 29.4177 9.97914 37.5036 11.9847 8.08701 27.8221 3.07677 37.3075 1.63701 9.48662-1.43976 21.2445-2.77914 28.2544-.596457 8.96694 2.78977 12.4406 30.0721 13.7469 47.3504.620079 8.20512 9.87875 15.0437 9.87875 15.0437s5.46024 9.72993 32.3244 6.10867c26.8725-3.61299 48.6012-25.4481 46.2095-35.2548-2.3941-9.80906-22.4244-54.1666-18.1713-71.3339 4.24252-17.1744 67.2721-116.17-.459449-160.773-67.728-44.6115-116.928-19.278-130.591-2.13425z" fill="#ababab"/><path d="m926.335 629.575c13.2496 8.54292 41.0752-.630709 39.2268 20.478-1.58386 18.0827 1.48228 15.7063 8.8382 26.8866 10.1374 15.4087 8.34922 18.2894 21.0662 17.4532 7.65591.755906 20.5606-35.9209 39.476-22.7965 18.9154 13.1197 1.00039 43.2154-7.45749 50.1591-7.18465 5.90079 20.3894 35.7189 42.8469 29.8796 12.0142-3.12284 18.0071-17.9114 26.5996-48.7678 28.6701-102.944-8.27363-146.972-114.065-137.281-69.2965 6.34843-100.162 51.4926-56.5311 63.9886z" fill="#242424"/><path d="m1073.1107 802.747-8.1756.467717c-11.1567-44.2536-24.3449-88.1717-25.7492-119.389-2.4874-55.2981-11.4142-110.973-25.1162-165.169-.0354331-.121654-.0673229-.244488-.0921261-.368504-7.42087-29.3067-16.2378-58.18-26.1957-86.3257l-.0874016-.282284c-7.28504-21.4051-15.0921-43.0311-23.002-64.9418-13.3465-36.9674-26.9811-74.7402-37.9689-110.739-27.2362 32.1827-26.7567 76.6607-16.2591 114.373 7.54607 27.1169 19.7622 49.0796 28.1445 57.3154 1.36536 1.34055 2.49921 2.20158 3.34016 2.52047l.0129921-.00472441c1.61693.612993 2.60788 2.15551 2.60079 3.7878 3.55512 56.3941 18.815 146.645 28.715 205.201 4.60985 27.2646 8.06694 47.7024 8.67402 54.8622.0413386.49252-.00826772.970867-.133465 1.42087-7.82717 36.6945-14.3138 80.315-5.14961 121.658 22.7232 102.507-9.75709 30.0673-18.0839 133.129l-.0673229.784253-.00236221.0188977-.00472441.0649607c-4.22244 48.7406 5.19213 98.002 19.7504 142.102 23.1071 69.9945 63.2764 135.163 78.2233 156.297 56.3764-6.44292 116.902-11.8973 160.922-38.615-32.6209-36.1595-53.0847-83.6646-57.6319-125.927-4.73977-44.067.964961-90.0024 6.86812-135.245.752363-5.76851 1.12795-11.8854 1.12795-18.2374 0-27.3756-7.18938-57.7489-21.4914-82.1705-14.0929-24.065-35.1095-42.3107-62.9292-45.9378-3.24331-.422835-6.65552-.644882-10.239-.650788z" fill="#b7b7b7"/><path d="m1247.22 1278.21c-3.33544-23.1957-13.3146-45.7725-29.8181-67.2945-27.867 4.48701-55.1587 10.2083-79.2662 15.8717-46.9276 11.0268-81.626 21.8339-85.0843 22.9229l-.402756.124016c-1.33819.455906-6.99922 2.39646-15.7772 5.44961l-14.9847 5.23583c5.64449 25.4847 23.1839 49.3595 44.5288 70.0914 37.637 36.554 87.0284 63.2233 104.826 72.2174 11.8075-4.66536 25.1445-11.0469 36.9886-19.3949 12.1524-8.56654 22.7008-19.1941 28.239-32.1166 10.6264-24.7973 14.1709-49.3241 10.7504-73.1067z" fill="#8e8e8f"/><path d="m1021.89 1260.52c-31.7138 11.3256-84.2694 30.4146-122.417 45.3957-27.6591 10.8614-51.7182 20.974-64.4752 27.8421-55.5237 29.8996-38.4083 99.6957.330709 171.633 38.2158 70.9654 97.4646 143.916 130.208 184.233 7.65119 9.42048 13.8614 17.0669 18.0957 22.5957 1.46811 1.91575 3.69449 4.35945 3.98977 6.87756.39567 3.36378-2.0126 6.7193-6.59174 10.0642-10.8402 7.91812-36.7488 17.6256-62.7827 27.3792-32.4414 12.1536-65.0871 24.3851-65.3079 30.111-.408662 10.611 78.7477 2.77441 103.45-.864568 35.3799-5.21103 71.8914-12.6697 96.2481-17.9988.346063-.0744095.638977-.153543.882284-.230315 3.48425-1.11969 6.70749-4.13386 8.91379-7.73977 2.16496-3.5374 3.27402-7.50591 2.58898-10.6311l-.046063-.20315c-13.4055-21.5162-25.7079-44.6693-36.7406-68.1745-12.3732-26.3551-23.1189-53.1012-32.0138-78.4406l-1.42677-4.09016c-9.21497-26.4898-36.3095-104.358-70.2898-147.966l-.0141732.00590552c-1.36772-1.75512-1.05473-4.28977.700394-5.65748.638977-.496063 1.37835-.772442 2.12953-.836221 18.0969-2.62914 37.3666-5.19449 56.8241-7.78229 59.028-7.85316 131.245-19.1008 187.101-33.2138-45.5115-35.739-114.709-90.2528-149.358-142.309z" fill="#b7b7b7"/><path d="m1064.93 803.215c3.00118 11.9067 5.85591 23.8382 8.29489 35.5524 8.78741 42.2126 12.1725 81.6154-2.43425 106.938-2.63032 4.58032 4.32284 8.58072 6.96142 3.99922 15.8126-27.4736 12.4335-68.7319 3.41103-112.28-2.37638-11.4697-5.14489-23.1-8.05749-34.6772l-8.1756.467717z" fill="#a8a8a8"/><path d="m0 0h2048v2048h-2048z" fill="none"/></svg>