<svg clip-rule="evenodd" fill-rule="evenodd" height="2048" image-rendering="optimizeQuality" shape-rendering="geometricPrecision" text-rendering="geometricPrecision" viewBox="0 0 2048 2048" width="2048" xmlns="http://www.w3.org/2000/svg"><path d="m1221.69 754.303-48.326-34.141-132.468-6.16536 6.55394 57.45 51.8965 79.3949 4.20827 9.4819 32.0646 119.835 9.91182 5.95276s75.5764 7.64528 123.434-57.3981l-47.2748-174.41z" fill="#a8a8a8"/><g fill="#b7b7b7"><path d="m1139.68 942.166c-4.33111-10.6453-12.2421-28.3453-22.5756-51.4678-4.15512-9.29528-8.69764-19.4599-13.5484-30.3733-78.1052-9.763-139.67-2.52402-201.616 4.75985-30.3697 3.57048-70.9772 7.58505-103.658 9.19843-37.6961 41.863 15.2185 115.694 40.9926 152.981 92.6257 1.33228 239.909-17.5323 306.258-41.1532-2.5878-14.9173-4.54843-29.6126-5.85237-43.9453z"/><path d="m1159.44 1389.06c137.097-27.8138 250.715-82.7481 287.408-167.831 26.4567-102.611-53.2583-170.348-122.326-229.032-20.6587-17.5524-40.389-34.317-56.2548-51.0874-.467717-.111024-.923623-.3-1.35118-.571654-1.11732-.707481-1.81181-1.83189-2.00906-3.0437-12.9638-14.2181-22.9996-28.4799-28.317-43.2685-5.38465-14.9669-8.87127-24.763-12.1158-33.8799-28.415-79.8508-39.6827-111.513-82.0985-170.132-8.70355-12.0319-40.2473-22.539-66.7878-23.8536-8.30079-.409843-16.0382.109843-22.3181 1.80473-5.66457 1.52835-10.0075 3.97914-12.2209 7.52599-2.28307 3.65906-2.4378 8.87363.399213 15.9579 30.9709 77.3127 62.4768 147.809 83.7615 195.435 10.6795 23.8949 18.8091 42.0874 22.9524 52.3134.222047.548032.325985 1.11496.325985 1.67126 1.41614 15.6744 3.63071 31.7965 6.60827 48.1796.0129921.068504.0259843.137008.0366142.206693 2.60669 14.315 5.79213 28.8272 9.53268 43.4103l17.263 56.7095c-135.729 1.79055-315.255-13.6559-436.794-83.9434-46.8272 189.895-73.3406 253.67-101.795 384.669 139.721 37.963 354.241 31.5957 516.1-1.23898z"/><path d="m1099.34 850.842c-16.076-36.2823-35.0799-79.8945-54.3804-126.891-1.35473-3.30236-2.71181-6.62126-4.07008-9.95552-13.2673-2.7437-28.9429-5.36457-47.3067-6.83741-22.2851-1.78937-48.5823-1.90866-79.4457 1.45984l-.0236221.00236221-.177165.0200788-85.8686 4.19646c-161.42 7.87442-334.464 31.5425-388.662 46.4363-54.437-37.3441-105.98-109.683-164.211-126.373l-.89882-.180709c-22.1445-6.60355-29.6717 19.5331 9.07087 58.702 28.5815 35.8122 57.4111 82.8946 67.7859 129.054-.0401575 29.1792 16.4339 38.9551 55.9949 39.0095 24.7382.034252 58.7622-3.80788 104.173-8.93268l10.9949-1.23898c7.63347-.859843 14.6776-1.4941 21.2209-1.92756 10.8898-4.43386 22.252-7.35945 33.9874-8.20276 4.56024-.327166 9.1382-.336614 13.6973-.0129921 15.9957 1.13386 29.687 5.43426 44.9067 9.62481 17.3067 4.76339 33.8977 8.87127 51.6957 11.5807 28.8803 4.39843 58.5638 5.54174 87.7394 5.44489 7.46575-.0248032 14.9315-.175984 22.3937-.442914l5.01851-.179528v-.0011811l2.26299-.111024.0165354-.0011811c.198425-.0236221.398032-.034252.598819-.0307087h.0177165.0177165l2.09173-.103937c31.1339-1.53662 61.9737-5.07874 92.9115-8.71536 31.7599-3.73347 63.4134-7.36654 95.3824-8.82402 34.5662-1.57559 68.7355-.555119 103.065 3.43111z"/></g><path d="m743.339 1199.93c63.613-197.414-58.6973-175.03 95.9328-172.662-9.57284-43.5036-64.1363-101.831-40.9926-152.982-7.43032.265748-14.9847.422835-22.6831.448819-77.8713.257481-112.474-9.26576-141.829-17.3469-14.1402-3.89292-27.0343-7.44213-43.1705-9.32717-42.2729-1.06536-82.5993 25.4114-117.034 63.7193-44.8052 49.839-79.467 119.475-95.7768 175.154-2.22992 7.61339-3.9567 15.176-5.20512 22.6736-11.0315 66.2658 16.3087 125.08 61.4835 171.776 45.5563 47.087 109.152 81.88 170.055 99.7205 13.2461 3.87992 26.3906 6.96142 39.2209 9.19253 17.6079-19.0984 69.965-97.1493 99.9993-190.367z" fill="#8e8e8f"/><path d="m1271.15 769.746c-8.43072-14.6362-19.637-27.0331-33.5244-35.8477-17.2583-10.9559-38.7343-16.3902-64.2674-13.7362 25.0358 40.3689 36.9071 73.7268 59.5004 137.221 4.16929 11.7154 8.67993 24.3874 12.0815 33.8433 4.52953 12.5965 12.991 25.0051 24.0201 37.4882 18.7205-32.7166 24.8776-72.7654 19.2142-109.11-2.80512-18.0047-8.51221-35.0788-17.0244-49.8579z" fill="#b7b7b7"/><path d="m1731.86 940.885s-35.191-19.337-51.8611-24.8764c-16.6736-5.54056-43.8768-9.20552-58.4067-4.17284-10.6488 3.69331-15.4264 15.3921-26.9752 13.6618-11.5465-1.72795-80.1638-19.3382-86.5914-10.8614-9.81497 12.9555 1.83662 12.9012-.827953 26.276-.894095 4.49646-10.6004 7.26024-14.7874 8.93032-4.18701 1.67244-42.4004 6.1004-50.2441 25.5851-7.84253 19.4858 4.0937 40.4622 9.02363 53.5004 4.93229 13.0382 10.4114 29.3362 9.44292 39.9591-1.23543 13.5862-38.9386 26.8205-63.0875 33.9331-11.4685 3.37677-18.3662 18.6095-18.3662 18.6095 0 .0011811-12.1618 10.7173 1.15394 47.7827 13.3087 37.076 50.9374 61.304 64.1422 54.9225 13.2071-6.38504 70.1315-48.3343 95.8135-47.5146 25.689.801969 185.503 60.2315 228.265-49.5603 42.7748-109.789-8.1815-171.98-36.6933-186.175z" fill="#b7b7b7"/><path d="m1667.7 936.105c-8.10591 21.4229 13.3902 58.1634-17.1602 61.9571-26.1721 3.25158-21.8634 6.88465-35.5075 20.7354-18.8079 19.089-23.4449 17.4248-18.3862 35.2382 1.25433 11.1047 57.2859 18.2823 44.3929 49.1457-12.8835 30.8634-61.0902 14.5677-73.5272 4.66418-10.5685-8.41182-44.5406 39.8327-29.4142 69.9615 8.09056 16.1162 30.9236 20.1319 77.3729 22.9524 154.971 9.41576 206.282-56.4626 160.332-203.809-30.0992-96.5139-103.624-126.632-108.103-60.8457z" fill="#202020"/><path d="m0 0h2048v2048h-2048z" fill="none"/></svg>