<svg clip-rule="evenodd" fill-rule="evenodd" height="2048" image-rendering="optimizeQuality" shape-rendering="geometricPrecision" text-rendering="geometricPrecision" viewBox="0 0 2048 2048" width="2048" xmlns="http://www.w3.org/2000/svg"><path d="m927.008 930.837 53.265 32.549 64.407 76.304-78.261 90.66-104.466-49.42-40.002-72.99z" fill="#a8a8a8"/><path d="m807.036 978.365c-180.012 38.8961-255.939-44.9268-373.461-2.98583-20.6811 26.3008-34.0796 19.5839-42.6992 11.8937-36.313-32.4213-87.0107-78.1879-118.512-121.717-32.2051-48.3189-12.2563-49.0831 20.0244-33.2126 36.9768 18.1807 66.4241 47.4851 84.7406 58.4304 25.037 17.1886 417.573-92.8843 531.279-4.84725 13.161 12.0992 41.0989 42.6107 71.8654 77.4603-6.48426 1.67008-12.9496 3.38859-19.3925 5.15433-46.3607 12.7087-92.4981 26.6858-138.93 39.3957-5.28662-10.2083-10.6311-21.2977-14.915-29.5713zm237.647 61.3205c17.7945 21.2752 47.7662 42.9721 56.7556 53.9162-39.0118 44.2347-109.46 122.306-135.98 173.121-23.5288-39.3792-70.3914-125.908-103.506-185.792 5.82048-.462992 11.6303-1.16575 17.3965-2.08819 20.0362-3.2067 40.6725-9.13111 59.1603-17.5512 7.85197-3.57756 21.6543-10.5083 28.5166-18.4524 25.6855-.0389764 51.7536-1.34646 77.6575-3.15355z" fill="#b7b7b7"/><path d="m1233.12 1293.56c105.432-93.2965 159.891-128.401 260.162-149.106 117.037-24.176 178.179-163.256 90.4867-211.383-3.91772-2.14843-45.7229-24.4689-66.8847-28.963-33.1772-32.7142-488.442 39.6674-553.916 72.0308-68.3729 18.3071-144.553 42.639-214.195 58.4221 68.4768 76.8438 205.029 20.3469 214.154.388583 95.3635.366142 275.867-22.611 301.555-23.0705 2.90788.826772 5.85119 1.62402 8.82757 2.38937-43.8473 48.0957-93.8457 99.8552-146.522 113.16 26.3669 54.8941 60.1146 112.58 106.334 166.132z" fill="#b7b7b7"/><path d="m1101.44 1093.6c-76.7812 43.0264-133.925 142.931-138.241 175.989 2.40827 41.9433 84.7005 99.4276 118.899 101.878 63.6674 4.55906 115.277-22.2484 151.021-77.9044-46.3973-86.8879-103.06-163.488-105.725-167.074-.00590552-.00590552-.011811-.011811-.0177165-.0177165-.348425-.451181-10.4917-13.4504-25.9358-32.8713z" fill="#8e8e8f"/><path d="m1674.2 689.512s-29.8051 3.47008-42.3555 7.3193c-12.5528 3.84922-30.7063 13.402-37.3725 22.761-4.88504 6.86221-2.72599 16.0559-10.5071 20.0055-7.77993 3.94961-57.1914 22.9524-57.4335 30.8988-.36378 12.1406 6.70749 7.05945 10.8791 16.3583 1.40315 3.1252-3.31063 9.013-5.13544 11.8441-1.82599 2.83229-23.1768 22.0831-19.5106 37.3453 3.66496 15.2634 20.0209 22.865 28.6713 28.6689 8.65158 5.80276 19.0477 13.3524 23.0599 20.2406 5.13426 8.80867-12.091 33.2008-23.7142 47.993-5.52048 7.0252-3.12166 19.2886-3.12166 19.2886 0 .0011811-2.76378 11.7945 21.4016 28.5957 24.1654 16.8106 57.5752 15.2622 62.8524 5.6563 5.27481-9.60828 21.7642-59.8134 37.7575-70.4398 15.991-10.6406 139.05-43.6866 117.526-129.066-21.515-85.3831-79.4859-101.178-102.997-97.4694z" fill="#b7b7b7"/><path d="m1633.07 714.395c4.3441 16.5567 33.3508 29.6162 16.3914 45.1618-14.5276 13.3169-10.3299 13.663-12.639 28.0075-3.18307 19.7717-6.72756 20.7673 4.07008 29.4225 5.57481 6.21851 42.8032-13.6843 48.3225 10.6949 5.5252 24.3744-30.8882 35.3351-42.7524 34.6937-10.0795-.544489-9.86576 43.5496 12.398 55.343 11.9079 6.30827 27.5516-1.1374 57.0579-19.5425 98.4438-61.402 101.149-123.745 9.33662-193.562-60.1394-45.7311-117.958-32.2181-92.1851 9.78072z" fill="#202020"/><path d="m0 0h2048v2048h-2048z" fill="none"/></svg>