<svg clip-rule="evenodd" fill-rule="evenodd" height="2048" image-rendering="optimizeQuality" shape-rendering="geometricPrecision" text-rendering="geometricPrecision" viewBox="0 0 2048 2048" width="2048" xmlns="http://www.w3.org/2000/svg"><g fill="#b7b7b7"><path d="m1161.55 977.323c-7.93465-61.4056-25.6418-344.785 66.3095-374.21 85.5745-27.3862 182.275-25.8414 187.741-26.0339 86.5064-3.75945 133.041-12.3508 217.513-17.465 34.3111-1.94528 130.344 18.0047 158.884-40.9689l-145.291-8.6752c-36.9555 13.1894-75.4453 18.3307-114.38 15.2669-47.7674-3.75827-78.4749-7.37835-109.2-3.28347-60.0839 8.05867-190.28-24.1855-242.707 6.67796-101.485 19.8106-199.517 19.8106-312.844 0-52.4268-30.8634-182.623 1.38071-242.707-6.67796-30.7252-4.09489-61.4327-.474804-109.2 3.28347-38.9351 3.06378-77.4249-2.07756-114.38-15.2669l-145.291 8.6752c28.5402 58.9737 124.573 39.0237 158.884 40.9689 84.4725 5.11418 131.007 13.7055 217.513 17.465 5.46615.19252 102.167-1.35236 187.741 26.0339 91.9548 29.4272 74.419 312.972 66.3107 374.21 47.8548 55.7882 245.798 45.7134 275.104 0z"/><path d="m1156.94 583.959c-93.3036 0-172.797 0-265.878 0 26.7307-8.29843 78.776-48.9107 75.8327-83.439 14.2288 12.2374 28.0618-3.81378 41.2264-.111024 18.8575 5.30433 36.2788 2.67638 51.5268-5.69174 8.37402-4.59685 15.4476 7.48229 22.3288-.207874.153543 10.6193 5.21693 38.1 12.6508 47.687 14.2051 18.3201 40.8544 35.1024 62.3126 41.7626z"/><path d="m1210.42 1173.89c13.9134 42.9803 25.813 118.579 34.6831 145.958 6.35434 19.624 16.2414 37.3843 29.3882 52.7882 24.9083 29.1803 55.8343 101.987 68.641 176.252 13.0016 75.4217 24.3071 118.898 29.8878 138.105 6.30119 21.6579 118.819 60.0874 103.364 79.1776-13.8791 17.1473-16.3677 20.5264-37.2567 22.6843-86.2383-42.978-124.419-19.2484-124.419-58.8685 0-76.4032-2.86536-87.6757-18.4051-125.747-17.3327-42.4595-66.3426-80.882-74.7768-116.828-3.30709-14.0894-9.96615-27.163-19.2673-37.8095-30.978-35.4638-84.1654-150.519-124.565-217.88 35.7567-8.76969 103.315-35.152 132.725-57.8327z"/><path d="m971.509 1229.74c-40.3559 67.3713-94.7871 184.397-125.765 219.862-9.30119 10.6465-15.9602 23.7201-19.2673 37.8095-8.43426 35.9457-57.4441 74.3682-74.7768 116.828-15.5398 38.0717-18.4051 49.3441-18.4051 125.747 0 39.6201-38.1803 15.8906-124.419 58.8685-20.889-2.15788-23.3776-5.53701-37.2567-22.6843-15.4547-19.0902 97.0631-57.5197 103.364-79.1776 5.58071-19.2071 16.8862-62.6835 29.8878-138.105 12.8067-74.2654 43.7327-147.072 68.641-176.252 13.1469-15.4039 23.0339-33.1642 29.3882-52.7882 8.87009-27.3792 20.7721-102.978 34.6855-145.958 29.6528 22.8638 97.2072 46.8638 133.923 55.8508z"/></g><path d="m970.312 1231.72c-21.3803-5.49922-109.013-23.6457-132.725-57.8327 15.9508-51.0756 5.19449-163.996 48.8622-196.566 31.1162 40.0122 243.99 40.0122 275.105 0 43.6678 32.5701 32.9114 145.491 48.8622 196.566-23.7118 34.187-111.345 52.3335-132.725 57.8327-11.1543-18.4252-31.0252-40.9937-55.0099-41.0504-21.6839-.0507874-42.15 24.1701-52.3689 41.0504z" fill="#8e8e8f"/><ellipse fill="#b7b7b7" rx="35.1555" ry="57.0319" transform="matrix(-.532337 -.159451 -.159451 .532336 1122.36 410.818)"/><ellipse fill="#b7b7b7" rx="35.1555" ry="57.0319" transform="matrix(.532337 -.159451 .159451 .532336 925.644 410.818)"/><path d="m924.274 383.94c0 19.2414 2.64803 38.7863 7.6004 57.3579 4.89922 18.3744 12.052 35.8028 21.1205 51.0473 19.4351 19.852 38.0977 31.3973 55.4587 36.2823 18.8917 5.3126 36.3236 2.6941 51.5587-5.66693 14.2382-7.81772 26.6563-20.6587 36.6579-36.7737.878741-1.41614 1.74095-2.85945 2.58307-4.32638 15.4961-27.0024 24.4536-62.0445 24.4536-97.917h.0188977c0-37.2626-9.91772-61.9831-27.2162-77.2713-17.3362-15.3213-42.3922-21.4666-72.5162-21.4666s-55.1823 6.14528-72.5197 21.4666c-17.2854 15.2764-27.1996 39.9933-27.1996 77.2678z" fill="#ababab"/><path d="m939.666 444.13s-7.90985-59.3268 9.22914-77.4556c0 0 71.8536 44.1662 110.417-5.60315 0 0 2.30788-24.2256 16.6453-25.2142 0 0 20.1047 8.07402 30.652 59.8241l-.329528 49.1103 18.9378-36.5859s28.1965-72.8434-10.6973-100.202c0 0 1.97953-54.0544-108.11-48.45 0 0-68.5595-3.95551-88.9938 73.1717-8.97757 34.3051-2.70709 60.1087 2.96221 74.2288l.0177165.42874.767717 1.46575c2.86772 6.69331 5.38111 10.2614 5.38937 10.2732l13.1126 25.0087zm-13.1126-25.0063v-.00236221" fill="#202020"/><path d="m0 0h2048v2048h-2048z" fill="none"/></svg>