<svg clip-rule="evenodd" fill-rule="evenodd" height="2048" image-rendering="optimizeQuality" shape-rendering="geometricPrecision" text-rendering="geometricPrecision" viewBox="0 0 2048 2048" width="2048" xmlns="http://www.w3.org/2000/svg"><g fill="#b7b7b7"><path d="m1076.93 1556.29c-8.93741-37.1433 30.2292-71.0859 51.0485-79.8969 4.14685 44.68 39.2185 280.023 57.3709 315.603l58.4363-5.72363-26.8181-336.892c-2.28307-27.5114-30.6154-86.3646-55.7197-118.029 14.3799-113.485-17.8016-172.606 11.5075-280.336 13.7551-50.5595-228.229-59.0008-291.225-6.08268 5.27835 40.715 10.95 87.7642 11.224 122.57.0425197 5.47914-.0212599 98.4934-.205512 164.669-23.8299 32.6173-46.8248 91.4091-49.8142 117.208l-38.5181 332.38 58.4363 5.72363c18.1512-35.5796 62.6174-263.349 66.7642-308.029 19.5744 8.28544 62.628 41.7851 54.6969 76.8225 13.6004-9.4689 29.9634-15.1134 49.3111-15.0685 6.9815.0165354 13.8791 1.08425 20.5406 3.17599 8.40001 2.63622 16.0536 6.75001 22.9642 11.9055z"/><ellipse rx="35.1555" ry="57.0319" transform="matrix(.436615 .130779 .130779 -.436615 949.181 1632.39)"/><ellipse rx="35.1555" ry="57.0319" transform="matrix(-.436615 .130779 -.130779 -.436615 1110.52 1632.39)"/><path d="m1111.65 1654.43c0-15.7807-2.17205-31.8118-6.23386-47.0445-4.01811-15.0697-9.88465-29.3646-17.3221-41.8677-15.9414-16.2827-31.2473-25.7516-45.4866-29.7579-15.4961-4.35827-29.7921-2.21103-42.2882 4.64764-11.6787 6.41103-21.8634 16.9441-30.0662 30.1607-.721654 1.16221-1.42795 2.34567-2.1189 3.54922-12.7099 22.1469-20.0563 50.8878-20.0563 80.3103h-.0153543c0 30.5622 8.13426 50.8382 22.3217 63.3768 14.2193 12.5658 34.7705 17.6055 59.478 17.6055 24.7063 0 45.2587-5.03977 59.4792-17.6055 14.1768-12.5303 22.3087-32.8028 22.3087-63.3745z"/></g><path d="m1081.87 1556.74c-39.3107-9.12757-60.5729-9.76772-102.424-1.82599-25.878 30.9673-62.8099 134.386-23.8394 161.798 0 0-1.62402 44.3351 88.669 39.7382 0 0 56.2323 3.24449 72.9922-60.0142 11.9539-60.6957-19.4386-124.916-35.3977-139.696z" fill="#202020"/><path d="m996.302 816.869c-3.4937-54.3248-4.2437-116.203-8.77914-145.078-1.78465-11.3776-1.75984-23.5276.0708662-36.117 8.90198-61.115-14.5665-212.531-11.7059-229.486l-52.0229-.390945c-2.48386 9.70985-12.9 38.4284-15.587 48.7181-18.6177 71.2725-7.62166 152.053-8.11182 223.951-.145276 21.4984-4.30394 43.0146-12.3602 63.9544-11.6362 30.2303-18.3461 73.6926-20.7638 107.146 29.55-22.8603 93.3178-39.0296 129.26-32.6977z" fill="#b7b7b7"/><path d="m914.838 416.948c-6.763-11.8358 6.24567-25.2732 7.34882-38.8571l6.68977-82.4965c1.39016-17.1225 3.34961-17.9953 20.5925-25.9016 10.8047-4.95355 23.6563-8.71772 34.95-10.3087 17.2807-2.43425 30.8492-3.32362 30.0626 15.737-.0744095 1.80827-4.17402 8.24528-4.51654 10.3642-.742914 4.60512 2.06811 8.43072.772442 13.5402-4.85433 19.1351-12.6 39.88-15.9508 47.7945l-9.77599 23.1c-4.72914 11.1791-5.70945 23.3292-2.83819 35.1296 5.15552 36.0614-56.8465 30.2504-67.3347 11.8984z" fill="#c4c4c4"/><path d="m1175.14 846.389c-2.22047-40.9784-7.08544-84.9615-14.4225-103.969-8.05631-20.9398-12.215-42.4559-12.3602-63.9544-.490158-71.8985 10.5047-152.679-8.113-223.951-2.68701-10.2898-11.5417-37.467-14.0256-47.1768h-62.5678c7.52835 44.628-12.7252 159.651-2.72126 228.336 1.83071 12.5894 1.85551 24.7394.0708662 36.117-4.54725 28.9536-4.88859 90.2894-8.22638 144.447 35.1969-4.65827 92.693 9.39095 122.366 30.1524z" fill="#b7b7b7"/><path d="m1172.75 1051.02c3.45355-67.6678 5.113-143.303 2.39055-204.63-12.1713-10.1858-30.2445-17.9599-49.389-23.2193-26.804-7.363-55.415-9.74292-72.9768-6.93308-3.53622 51.6969-10.6512 47.1685-28.5154 78.1111-17.2004-29.7933-24.274-25.3819-27.9614-77.4792-17.0977-3.74055-47.7544-1.55433-76.3512 6.30119-21.0886 5.79331-40.8768 14.6374-52.9087 26.3965-3.13347 64.2674 6.19961 131.952 14.4874 195.37 32.3233-14.5866 90.8103-20.7945 147.996-19.6453 58.5815 1.1752 116.145 10.1232 143.229 25.728z" fill="#8e8e8f"/><path d="m1128.2 414.844c6.763-11.8358-6.24567-25.2732-7.34882-38.8571l-6.68977-82.4965c-1.39016-17.1225-3.34961-17.9953-20.5925-25.9016-10.8047-4.95355-23.6563-8.71772-34.95-10.3087-17.2807-2.43425-30.8492-3.32362-30.0626 15.737.0744095 1.80827 4.17402 8.24528 4.51654 10.3642.742914 4.60512-2.06811 8.43072-.772442 13.5402 4.85433 19.1351 12.6 39.88 15.9508 47.7945l9.77599 23.1c4.72914 11.1791 5.70945 23.3292 2.83819 35.1296-5.15552 36.0614 56.8465 30.2504 67.3347 11.8984z" fill="#c4c4c4"/><path d="m0 0h2048v2048h-2048z" fill="none"/></svg>