<svg clip-rule="evenodd" fill-rule="evenodd" height="2048" image-rendering="optimizeQuality" shape-rendering="geometricPrecision" text-rendering="geometricPrecision" viewBox="0 0 2048 2048" width="2048" xmlns="http://www.w3.org/2000/svg"><g fill="#b7b7b7"><path d="m1065.14 649.158c-6.26457 31.767 29.1874 58.5709 47.237 66.2103 3.64961-39.3177 15.0638-81.241 31.037-112.551 3.06851-17.1874 11.4543-140.552 24.2221-204.085-12.1063-8.70591-31.8425-107.17 28.3855-142.733 1.37717 48.5067 7.59449 102.493 10.8201 150.483 5.2689 66.5528 2.36221 135.808-12.0047 201.371-7.0878 32.3268-2.30433 87.2694-6.17953 133.981-2.00906 24.2091-26.4768 75.9568-48.5681 103.82.871654 6.88938 1.30039 134.268 2.1874 143.191 2.3752 23.8996 5.22756 63.4654 7.1256 96.8694-40.3914 29.354-214.958 31.4752-254.417.37441 3.88819-30.9414 8.1567-69.4182 8.36812-96.2068.0377953-4.82126.783071-91.1658.620079-149.4-20.9705-28.7032-42.7477-75.8682-44.6374-98.6481-3.8752-46.7115.908268-101.654-6.17953-133.981-14.3669-65.563-17.2736-134.818-12.0047-201.371 3.22559-47.9906 9.4441-101.976 10.8201-150.483 60.228 35.563 40.4929 134.027 28.3855 142.733 12.7677 63.5327 21.1536 186.898 24.2221 204.085 15.9732 31.3099 27.3874 73.2331 31.037 112.551 16.9736-7.18465 54.0119-35.9138 48.4134-66.2516 11.9528 8.09646 26.2595 12.9095 43.115 12.8705 6.23977-.0141732 12.4039-.969686 18.3567-2.83701 7.15276-2.2441 13.6973-5.68701 19.6382-9.99213z"/><path d="m993.715 1310.03c-2.39764 43.4422-3.31772 92.8619-6.96378 116.078-1.56969 10.0134-1.54843 20.7047.0625985 31.7823 7.0441 48.3591-2.6126 151.055-2.43425 181.382.0283465 4.72323 1.28386 9.39213 3.63071 13.5012 5.95158 10.415 8.58308 22.2402 7.61221 34.1929l-6.81024 83.9812c-.549213 6.79371-4.08662 12.9012-9.71103 16.7563-12.2221 8.38347-19.0158 3.11221-28.7587-4.01457-13.9925-4.14567-25.5957-14.0941-31.8272-27.2882-6.23504-13.1976-6.54804-28.4764-.858662-41.9162l8.60198-20.328c4.16221-9.83741 5.02441-20.5288 2.49803-30.913-3.56339-14.628-7.53426-29.8347-11.739-45.9355-16.3843-62.7178-6.70749-133.804-7.13977-197.075-.127559-18.9165-3.78662-37.852-10.8768-56.2784-9.9319-25.8047-15.7878-61.3713-18.039-89.8725 53.9304-22.1103 67.7528 35.3799 112.753 35.9481z"/><path d="m1151.48 1280.33c-2.07047 32.4851-6.33189 68.126-12.313 83.6197-7.09016 18.4264-10.7492 37.3618-10.8768 56.2784-.432284 63.2717 9.2445 134.358-7.13977 197.075-4.20473 16.1008-8.1756 31.3075-11.739 45.9355-2.52638 10.3843-1.66299 21.0756 2.49803 30.913l8.60198 20.328c5.68937 13.4398 5.37638 28.7185-.858662 41.9162-6.2315 13.1941-17.8347 23.1425-31.826 27.2882-9.7441 7.12678-16.5366 12.398-28.7599 4.01457-5.62441-3.85512-9.16182-9.96261-9.71103-16.7563l-6.81024-83.9812c-.970867-11.9528 1.66063-23.778 7.61221-34.1929 2.34803-4.10906 3.60236-8.77796 3.63071-13.5012.178347-30.3272-9.47835-133.023-2.43425-181.382 1.61102-11.0776 1.63228-21.7689.0625985-31.7823-3.67087-23.3693-4.27914-72.7217-6.54686-116.179 44.1248-11.974 68.9705-21.2811 106.61-29.5937z"/></g><path d="m1149.4 1085.72c3.42992 64.1103 5.0941 137.374 2.07402 194.62l-6.81378 3.28819c-34.2059 16.5343-57.3107 27.7004-99.7961 26.3055-2.85945-49.0512-8.80394-99.5351-25.7847-128.946-16.4126 28.428-22.35 79.3997-25.3689 129.047-36.665-.446457-58.7894-11.1366-90.3816-26.4071-6.3567-3.07205-13.0725-6.31772-19.5449-9.33426-.921261-.42874-1.92284-.474804-2.82638-.206693-3.65788-61.8071 6.23386-127.437 14.0256-187.993 24.3732 15.6874 79.7245 22.3819 133.669 21.2988 49.2804-.989765 97.7351-8.5252 120.748-21.6732z" fill="#8e8e8f"/><ellipse fill="#b7b7b7" rx="35.1555" ry="57.0319" transform="matrix(-.42487 -.127261 -.127261 .42487 1102.5 577.496)"/><ellipse fill="#b7b7b7" rx="35.1555" ry="57.0319" transform="matrix(.42487 -.127261 .127261 .42487 945.499 577.496)"/><path d="m944.405 556.045c0 15.3567 2.11299 30.9555 6.06615 45.7784 3.91063 14.6646 9.61891 28.5744 16.8567 40.7422 15.5114 15.8433 30.4063 25.0583 44.263 28.9571 15.078 4.24016 28.9902 2.15079 41.1496-4.52244 11.3646-6.23977 21.2764-16.4882 29.2571-29.3492.702756-1.1315 1.39016-2.28307 2.06221-3.45355 12.3685-21.5516 19.5177-49.5201 19.5177-78.1501h.0141732c0-29.7402-7.91575-49.4705-21.7217-61.6725-13.8354-12.228-33.8339-17.1319-57.8764-17.1319s-44.0422 4.90394-57.88 17.1319c-13.7965 12.1937-21.7087 31.9205-21.7087 61.6701z" fill="#ababab"/><path d="m956.69 604.084s-6.313-47.3504 7.36654-61.8201c0 0 57.3473 35.2512 88.1257-4.47166 0 0 1.84134-19.3347 13.285-20.1236 0 0 16.0465 6.4441 24.4642 47.7461l-.263386 39.1973 15.1146-29.2004s22.5047-58.1374-8.5382-79.9737c0 0 1.58032-43.1422-86.2843-38.6693 0 0-54.7182-3.15709-71.028 58.3997-7.16457 27.3803-2.16024 47.9752 2.36457 59.2441l.0129921.341339.614174 1.17047c2.2878 5.34213 4.29449 8.18977 4.3004 8.2004l10.4658 19.9595zm-10.4658-19.9583v-.0011811" fill="#202020"/><path d="m0 0h2048v2048h-2048z" fill="none"/></svg>