<svg clip-rule="evenodd" fill-rule="evenodd" height="2048" image-rendering="optimizeQuality" shape-rendering="geometricPrecision" text-rendering="geometricPrecision" viewBox="0 0 2048 2048" width="2048" xmlns="http://www.w3.org/2000/svg"><g fill="#b7b7b7"><path d="m927.483 670.048c7.70197 17.9705 4.82953 40.6004-3.41221 55.6867l-6.02245 9.6378c-31.4752 50.9138-83.2194 27.7358-98.7851 78.2741-9.60591 31.1894-12.0142 71.0162-7.74213 89.5879 10.2614 44.6185 31.0252 94.3276 34.0252 126.514 6.09567 65.2784 23.9516 130.59 48.613 190.958 17.2488 43.7032 39.0614 92.0953 54.7441 136.826 27.4878-24.2374 19.9784-128.987-15.9591-141.253-6.98032-62.9126-35.8016-180.206-38.0492-197.111 5.57008-33.8788 28.6536-107.271 21.5362-144.345 2.39173 7.26851 39.365 126.027 41.1886 134.596 3.00473 14.1142 18.4772 82.3182 18.0225 90.1654 40.6063 36.5918 199.501 44.9233 248.427 3.28229-15.3945-134.721-42.3142-175.984-68.2938-299.805 4.39134-15.8315-14.9717-167.667-18.1382-201.636-9.52205-143.188-108.848-208.975-151.406-258.384-30.2362-35.9611-54.2433-49.6111-83.3197-87.0438-26.9433 62.7839 33.3839 113.86 47.9492 113.733 22.004 47.5134 73.3182 114.465 110.933 163.729 3.37677 10.1575-1.8874 37.8473.726379 64.8048 4.14095 42.7099 14.3835 88.3135 6.22441 95.3056-17.0469-1.56496-57.2552-19.5402-64.506-47.5536-8.7378 11.2122-20.6917 20.041-36.5162 25.0488-5.81221 1.83898-11.8323 2.7815-17.928 2.81103-7.70906.0366142-15.1831-1.36299-22.3122-3.83032z"/><path d="m1127.5 1319.91c2.40709 42.9201 3.28465 91.7694 6.88229 114.684 1.53307 9.78072 1.51299 20.224-.0602363 31.0453-6.88111 47.237 2.55118 147.551 2.37756 177.174-.0283465 4.61339-1.25433 9.17481-3.54685 13.1882-5.81339 10.1728-8.38347 21.724-7.43505 33.3992l6.65197 82.0335c.536221 6.63544 3.99213 12.6012 9.48544 16.3665 11.9386 8.18977 18.5752 3.04016 28.0914-3.92126 13.6677-4.04882 25.0016-13.7669 31.089-26.6551 6.09095-12.8906 6.39567-27.815.838583-40.9429l-8.40237-19.8567c-4.06536-9.60946-4.90748-20.0528-2.44016-30.1961 3.48071-14.289 7.35945-29.1425 11.4673-44.8701 16.0039-61.2626 6.55158-130.699 6.97323-192.502.125197-18.4784 3.69922-36.9744 10.6252-54.9733 8.94095-23.2276 14.9102-58.3808 17.3847-83.8548-27.45 19.1669-77.7083 23.9197-109.982 29.8819z"/><path d="m973.322 1289.05c1.98071 33.1736 6.15119 69.1949 12.1866 84.8304 6.92599 17.9988 10.5 36.4949 10.624 54.9733.422835 61.8036-9.02953 131.239 6.97441 192.502 4.10788 15.7276 7.98662 30.5811 11.4673 44.8701 2.46732 10.1433 1.62402 20.5866-2.44016 30.1961l-8.40237 19.8567c-5.55827 13.128-5.25237 28.0524.838583 40.9429 6.08623 12.8882 17.4201 22.6063 31.0878 26.6551 9.51733 6.96142 16.1528 12.111 28.0925 3.92126 5.49331-3.76536 8.94922-9.73111 9.48544-16.3665l6.65197-82.0335c.948426-11.6752-1.62165-23.2264-7.43505-33.3992-2.2937-4.01339-3.51969-8.57481-3.54685-13.1882-.173622-29.6233 9.25867-129.937 2.37756-177.174-1.57323-10.8213-1.59449-21.2646-.0614174-31.0453 3.6378-23.1638 4.19764-72.2233 6.50788-115.357-42.5457-13.0654-66.8764-21.7347-104.408-30.1843z"/></g><path d="m975.642 1099.59c-3.37677 62.0504-5.08583 133.27-2.31969 189.469 3.02481 1.45158 6.03426 2.90433 8.96457 4.32166 32.8878 15.8965 55.3111 26.7343 95.4438 25.8626 2.83583-47.3197 8.70473-95.7261 25.0736-124.081 15.8894 27.5197 21.7264 76.6701 24.7004 124.754 16.7528 1.21654 40.2792-1.29449 62.5052-7.39961 18.4677-5.07284 35.8866-12.6024 47.4768-22.4823 4.29213-61.9335-5.79449-127.721-13.4173-187.162-26.7898 13.2957-78.052 18.9579-128.113 17.9528-48.8386-.980316-96.8705-8.35985-120.314-21.2351z" fill="#8e8e8f"/><ellipse fill="#b7b7b7" rx="35.1555" ry="57.0319" transform="matrix(.364235 -.253848 .253848 .364235 867.349 610.903)"/><ellipse fill="#b7b7b7" rx="35.1555" ry="57.0319" transform="matrix(-.443809 .0118146 .0118145 .443809 1016.65 561.819)"/><path d="m1010.98 541.078c4.80118 14.6032 7.6689 30.0969 8.5441 45.4288.865749 15.1677-.21378 30.1796-3.29173 44.0126-9.79725 19.9158-21.0803 33.3355-33.0378 41.3752-13.0134 8.74607-26.8961 11.1083-40.5449 8.56418-12.7571-2.37992-25.3866-9.02835-36.9969-18.763-1.02165-.855119-2.03504-1.73622-3.04016-2.63858-18.4996-16.6276-34.0418-40.9878-42.9933-68.2134l-.0141732.00472441c-9.29764-28.2815-7.9382-49.5178 1.3748-65.4367 9.33426-15.9543 26.8181-26.8701 49.6807-34.3866 22.8626-7.51654 43.415-9.10631 60.3957-1.80354 16.9311 7.2815 30.6236 23.5666 39.9237 51.8563z" fill="#ababab"/><path d="m1014.31 590.6s-8.79922-47.0008-26.3315-56.4827c0 0-43.513 51.4489-85.2001 23.2984 0 0-7.79528-17.8099-18.9248-14.9835 0 0-13.2425 11.1461-8.33505 53.0528l12.5043 37.1906-23.5028-23.0421s-39.5752-48.2481-16.8839-78.7182c0 0-14.9906-40.5319 69.9615-63.7477 0 0 51.0461-20.1095 85.8012 33.3284 15.3732 23.7957 17.0528 44.9445 16.2732 57.0756l.0944883.329528-.217323 1.30394c-.506693 5.79567-1.52362 9.13111-1.52717 9.14292l-3.71221 22.252zm3.71339-22.252h-.0011811" fill="#202020"/><path d="m0 0h2048v2048h-2048z" fill="none"/></svg>