<svg clip-rule="evenodd" fill-rule="evenodd" height="2048" image-rendering="optimizeQuality" shape-rendering="geometricPrecision" text-rendering="geometricPrecision" viewBox="0 0 2048 2048" width="2048" xmlns="http://www.w3.org/2000/svg"><path d="m946.376 1456.97c43.4823 4.08544 91.7339 3.16181 135.145.230315 28.3902-1.91693 56.1544-3.7937 85.4115-2.76851 15.6461.530315 31.4197 1.04646 47.2807 1.5626 125.36 4.08662 256.422 8.36103 377.19 22.8567 31.0429 3.72402 62.654 5.55945 92.5843 6.21497 39.4666.864568 76.1953-.304725 104.935-1.88386.914174-.0507874 1.62638-.381496 2.11536-.865749.427559-.424016.724016-.980316.865749-1.57914.145276-.614174.12874-1.26378-.0649607-1.85433-.207874-.63189-.641339-1.2248-1.32047-1.66654-74.2087-29.661-95.5772-49.1445-110.121-62.4095-8.01969-7.31339-13.8413-12.6236-25.9925-16.624-.334252-.108662-.64252-.258662-.925985-.440552-11.7295-6.24567-20.4319.0177165-29.5914 6.61418-2.60197 1.87441-5.23937 3.77362-7.86615 5.40945-15.0579 9.38505-31.8815 14.6327-48.952 15.652-17.0575 1.01693-34.3654-2.19567-50.4107-9.72639-74.719-35.0681-153.619-41.1071-232.39-47.1331-68.3634-5.22993-136.636-10.4539-202.538-34.5272-50.0256-18.274-96.5883-50.6469-127.834-74.9552 16.9252 65.3587 6.88111 131.539-7.52008 197.894z" fill="#b7b7b7"/><path d="m416.8032 817.639c-50.9764 45.078-68.3587 134.66-67.2343 234.462 1.62402 143.958 41.83 308.724 75.5741 393.192.726379 1.82126 1.51181 3.62362 2.21339 5.23583 2.25827 5.19567 3.75 8.62678 3.4063 13.1398l-.0437008.421654c-2.64803 17.204-32.7626 21.9614-67.9264 27.515-46.5355 7.34882-102.621 16.2095-106.793 54.4477 3.57166 1.01457 23.9032.937796 49.7292.356693 51.9142-1.16457 124.193-6.01654 135.067-7.16103 10.7764-1.13386 22.2106-9.42166 30.5457-26.1969 7.21536-14.5264 12.0272-35.217 12.1087-62.8997.140551-46.8638-16.1965-100.813-30.0886-146.691-10.0406-33.1583-18.8232-62.1591-19.3925-82.0087-.452363-15.7701-.687402-27.4819-.636615-37.9181.0507874-10.5319.387402-19.6335 1.08071-30.0815.068504-1.04528.539764-2.06221 1.39725-2.79567.764174-.655512 1.77638-1.0252 2.86063-.957875 1.12559.0720473 2.11417.6 2.79331 1.39725.0295276.0307087.056693.0637796.0826772.0968505 9.05788 10.5319 17.4307 20.4638 25.6193 30.1772 57.5445 68.2607 113.307 130.094 235.147 204.397 53.9339-51.6922 79.6536-150.838 60.7347-223.792-19.4764-1.70197-49.6878-7.65237-69.7217-16.7788-18.1654-8.27481-34.5945-19.7162-45.7111-34.4988-26.0244-34.6099-31.4882-88.082-37.0453-142.485-6.83504-66.9249-13.8225-135.304-59.6221-168.486-15-10.8685-36.0248-12.7748-57.3745-10.0075-30.2894 3.92717-61.0004 17.2028-76.7705 27.9189z" fill="#b7b7b7"/><path d="m761.721 1193.08c-1.01221 14.8784-2.74016 32.4319-5.65394 51.2599-4.99607 32.2902-12.2492 60.5658-21.6933 84.7052-8.78741 22.4658-19.4929 41.4059-32.0599 56.7225 38.341 20.9563 78.5599 36.3922 118.494 47.6504 43.0796 12.1465 85.8379 19.4327 125.568 23.5559 10.8614-28.7752 18.215-58.9477 20.204-91.245 2.03504-33.0307-1.53543-68.3162-12.685-106.65-6.21851-4.9937-12.2858-9.97442-18.2835-14.8973-47.954-39.3674-91.3453-74.9847-172.563-82.2048-.131102 8.0067-.483071 18.691-1.32756 31.1032z" fill="#8e8e8f"/><path d="m570.26 515.324s-34.2744 6.59646-48.5008 12.1441c-14.2288 5.54882-34.4611 18.1961-41.387 29.628-5.07402 8.38111-1.77756 18.8587-10.4622 24.111-8.68347 5.25355-64.3595 31.5591-63.9556 40.7977.625985 14.1142 8.38938 7.61103 14.0315 18.0366 1.89685 3.50433-3.06142 10.741-4.93583 14.1827-1.87205 3.44173-24.978 27.6154-19.4091 45.0024 5.5689 17.3894 25.1965 24.7961 35.7319 30.7819 10.5366 5.98465 23.2477 13.8449 28.4965 21.489 6.71457 9.77481-11.1614 39.5551-23.3681 57.717-5.79804 8.62442-1.95709 22.6429-1.95709 22.6429 0 .0011811-2.1874 13.9205 27.2941 31.324 29.4815 17.4154 68.1012 12.737 73.3938 1.13858 5.29016-11.602 20.0858-71.2607 37.7209-84.9674 17.6303-13.7221 157.525-62.6729 125.191-159.853-32.3256-97.1859-100.932-110.506-127.884-104.176z" fill="#b7b7b7"/><path d="m524.687 547.738c6.4689 18.8291 41.2418 31.4752 22.9099 50.9717-15.7028 16.7008-10.8036 16.7398-12.2433 33.5788-1.98662 23.2087-6.01182 24.6697 7.25906 33.7784 7.00394 6.73229 48.4701-19.5673 56.9764 8.23583 8.51221 27.7973-32.7815 43.6536-46.5981 43.9323-11.739.238583-7.68662 51.3685 19.1563 63.1276 14.3575 6.28937 31.8603-3.69803 64.4989-27.5929 108.894-79.7186 106.654-152.268-5.87008-225.332-73.7056-47.8571-139.609-27.1949-106.089 19.3004z" fill="#202020"/><path d="m0 0h2048v2048h-2048z" fill="none"/></svg>