<svg clip-rule="evenodd" fill-rule="evenodd" height="2048" image-rendering="optimizeQuality" shape-rendering="geometricPrecision" text-rendering="geometricPrecision" viewBox="0 0 2048 2048" width="2048" xmlns="http://www.w3.org/2000/svg"><path d="m259.2218 540.548c-2.02677 21.5516-6.40749 44.6197.605906 65.6315 3.81969 11.4425 10.3051 21.5386 19.2827 29.4307 60.6449 53.3197 97.9761 134.439 138.227 221.903 28.2496 61.3878 57.9532 125.929 98.054 185.81 23.2441 34.7091 43.5154 56.8217 62.4993 77.5335 27.8622 30.3969 53.0008 57.8233 80.7154 116.864 17.2323 36.7134 37.4835 81.6178 58.3477 127.887 30.9473 68.6221 67.7717 149.421 92.5135 199.558 12.3248 14.2937 166.72-153.595 169.177-195.647-38.3032-45.1394-128.179-154.603-209.705-252.316-67.5697-80.9847-130.852-161.236-197.71-242.57-76.7847-93.4076-161.061-195.932-189.408-255.638-12.9213-27.2185-21.45-75.3024-30.5351-126.533-8.74725-49.3252-18.0201-101.596-32.0551-140.141-.12874-.284646-.225591-.588189-.282284-.917717-.648426-3.36378-4.94174-6.42638-10.3949-8.49213-2.92087-1.10669-6.13583-1.88268-9.32481-2.24292-3.14055-.354331-6.22914-.309449-8.95158.216142-3.76536.725197-6.75591 2.36575-7.85552 5.13071-7.26615 25.2225-18.0839 140.145-23.2004 194.532z" fill="#b7b7b7"/><path d="m1481.55 947.609-34.0937 92.9481c-1.36536 3.73937-3.94843 6.7441-7.1693 8.66575-3.23032 1.9252-7.09725 2.77795-11.0185 2.20748-5.13898-.750001-86.8619-12.8516-157.832-32.2205-36.8445-10.0559-70.8449-22.1114-89.9635-35.6481-29.1792-20.6634-89.7296-55.5898-153.088-86.1993-67.5969-32.6575-111.618-48.45-177.875-63.9437-157.045-36.737-211.969-142.305-348.357-157.084-32.9563-3.58583-51.9449-2.71536-60.978.996851-3.92008 1.60984-5.30433 3.71575-4.79174 6.11221 1.21299 5.67993 6.39449 9.40867 10.0099 13.4906 18.5658 17.211 56.3516 37.6359 81.8209 48.0071 59.7426 24.352 92.5725 47.8288 124.912 70.9536 21.5988 15.4453 42.9827 30.737 72.0083 45.9378 46.7764 24.4878 126.482 69.3638 214.354 118.834 126.728 71.3481 257.782 146.362 336.741 185.499l7.72205 3.82677-4.07126 7.10906c-.205512.452363-.497244.875198-.875198 1.24252l-7.45158 7.26851-198.5 193.903c90.6095 101.088 88.4611 123.578 127.269 250.968 80.2619-69.0827 396.13-339.091 383.525-441.391-7.10197-57.4607-10.6772-163.528 8.01142-216.494-37.1575-2.72717-75.6213-11.387-110.309-24.9898z" fill="#b7b7b7"/><path d="m978.833988 1364.4309243c-35.7213 64.0725-104.118 133.077-146.822 176.157-11.5772 11.6799-21.2445 21.4323-27.8634 28.6866 18.2965 47.2748 46.5036 81.2611 80.4615 103.7 67.4552 44.5748 155.699 42.3662 230.465 14.328 31.8603-11.9469 62.3847-28.8579 89.6127-49.9063-1.25551-23.1921-8.88544-94.8414-44.2394-163.288-20.478-39.6414-50.2713-78.1808-93.5304-105.468-10.4622 10.1634-31.5898 31.8567-40.6583 31.2591l-.67441-.0602363-.537402-.0944883-.0129921-.00354331-.00354331.0295276c-8.71182-1.08307-36.1796-29.0315-43.7788-36.9567-.193701.274016-.425197.525591-.692127.751182-.514961.437008-1.10906.725197-1.72677.865749z" fill="#8e8e8f"/><path d="m1627.78 707.001s-40.9335 5.35158-58.1233 10.8886c-17.1933 5.53819-41.9788 19.0311-50.9681 32.0351-6.58583 9.53387-3.43819 22.1386-14.0658 27.7217-10.6252 5.58426-78.2268 32.6811-78.4052 43.617-.265748 16.7067 9.36261 9.58111 15.2823 22.2921 1.99016 4.27087-4.37835 12.4618-6.83504 16.3914-2.45669 3.93071-31.454 30.8256-26.1154 51.75 5.33859 20.9244 27.9839 31.0642 39.9945 38.8807 12.0142 7.81418 26.4626 17.9988 32.1142 27.3957 7.2319 12.0177-15.9886 45.9048-31.6914 66.4784-7.45867 9.77009-3.92126 26.5925-3.92126 26.5925.0011811.0011811-3.57166 16.278 29.9953 38.9209 33.567 22.6571 79.4942 19.8803 86.5666 6.56339 7.07127-13.3193 28.7799-82.6997 50.5748-97.6276 21.7902-14.9469 190.429-62.7874 159.167-179.817-31.252-117.034-111.3-137.64-143.569-132.083z" fill="#b7b7b7"/><path d="m1571.68 742.028c6.29646 22.6902 46.4492 40.0926 23.4225 61.806-19.7268 18.6012-13.9453 18.9945-16.8437 38.7721-3.99449 27.2587-8.85119 28.6973 6.1689 40.3949 7.78938 8.44607 58.6134-19.6536 66.6792 13.774 8.07284 33.4229-41.8052 49.2059-58.1374 48.5516-13.8756-.552756-12.7276 60.0993 18.1264 75.8894 16.5036 8.44725 37.8768-2.09882 78.1087-27.9874 134.228-86.3717 136.741-172.181 9.0945-266.442-83.6127-61.741-162.886-42.0331-126.619 15.241z" fill="#202020"/><path d="m0 0h2048v2048h-2048z" fill="none"/></svg>