<svg clip-rule="evenodd" fill-rule="evenodd" height="2048" image-rendering="optimizeQuality" shape-rendering="geometricPrecision" text-rendering="geometricPrecision" viewBox="0 0 2048 2048" width="2048" xmlns="http://www.w3.org/2000/svg"><path d="m1236.68 794.124c-.0011811.00944883-.0011811.0188977.00944883.0283465-.011811.0354331-.011811.0708662-.0129921.10748-.398032 10.5095-80.4674-31.8945-80.4201-17.1567.185433 58.1599 3.73583 143.638 7.42914 193.559-92.1898 39.1807-183.704 31.8839-274.864-.167717 2.40709-65.2796 5.42126-154.926 7.37127-203.144.488977-12.1134-70.4587 30.737-70.1127 24.626l.0153543.0011811c.0153543-.26811.0165354-.548032.00590552-.83504-.650788-.946064 15.2811-65.3504 48.3036-113.15 53.9209-78.0438 136.136-154.515 137.844-155.196 6.87875-9.15591 11.1532 5.56182 13.7764-4.36181 2.62323 9.92363 6.89764-4.7941 13.7776 4.36181 1.71732 2.28543 91.852 82.0926 149.184 161.21 24.4158 33.6957 47.38 109.219 47.693 110.117z" fill="#b7b7b7"/><path d="m1170.99 1008.94c3.59174 27.4146 7.27796 55.565 9.99804 83.8241l.88819 8.74843c-36.4288-13.8295-59.1485-2.59725-61.2544 2.96457-8.25237 21.7902-33.8138 39.7807-65.9056 62.0587l-.887009-8.95512c-2.91969-15.9083-9.35316-41.4426-27.5469-46.5118 13.8461-24.9331-.694489-112.289-7.52481-140.619l144.931.206693c1.54961 12.626 5.59489 25.2697 7.30158 38.2831zm-39.8764 161.889c11.0764-14.3339 32.3646-20.8689 55.2815-24.7914l.863386 8.50158c-.231496 20.8925-3.15236 57.5965-5.50158 76.3406h-90.7016l.0814961-.0944883-11.3114-.011811c23.9469-27.978 42.5776-49.9819 51.2882-59.9445z" fill="#8e8e8f"/><path d="m1091.2878 1230.097-.080315.0956694 90.6131.161811c-3.33307 22.6666-9.86694 53.2595-17.9102 74.1567-8.18268 21.2681-12.5776 43.3028-12.7299 65.902-.498426 73.6465 10.5378 153.604-8.05276 224.795l-13.4669 52.6937c-3.10748 12.7701-2.05276 25.8284 3.06733 37.9311l9.85631 23.2878c12.7134 30.0414-3.59055 64.5815-34.8839 73.8473-4.87559 1.44567-14.0433 15.7595-29.5264 5.14489-5.43426-3.72638-8.83938-9.60946-9.37205-16.1823l-7.80355-96.2186c-1.05-12.9437 1.75866-25.5768 8.20512-36.8516 3.03071-5.32323 4.64174-11.3173 4.67599-17.4602.0625985-10.6866-.902363-28.741-2.05866-50.3587-2.66221-49.7965-6.34134-118.584-.760631-156.9 1.8189-12.4996 1.98307-25.3229.056693-37.5992-2.80276-17.8488-3.95315-45.4866-5.25473-76.9217-.498426-12.0012-1.02047-24.5481-1.66654-37.3323l-1.17874-12.4559c5.83229-6.78426 11.452-13.3358 16.8047-19.5921l11.4662-.142913z" fill="#b7b7b7"/><path d="m916.509 1298.59-.259843-.210236c8.6504-17.6055 22.3323-46.1268 32.5902-67.493l-69.5138-25.0819-67.7434 25.0819c-11.2866 59.7414-42.9839 154.904-39.3083 206.503.565748 7.9441 53.1166 52.6548 67.1965 45.9756 49.2178-23.3445 255.556-271.26 291.64-312.529 30.8292-39.8953 140.762-19.3772 144.739-50.2607.0377953-2.91733 2.07756-11.2913-9.1004-10.3937-14.9433 1.2-59.5123 1.00748-84.7111-8.59843-36.5256-13.9264-59.3103-2.66929-61.4197 2.90079-19.3063 50.9776-133.351 81.1571-204.11 194.106z" fill="#b7b7b7"/><path d="m813.578 1216.16c-.461811 4.62992-1.14331 9.55631-1.99606 14.7284h66.5056 70.7516c22.3713-46.5768 45.6414-81.0178 65.3563-114.532 5.11536-8.69646 23.504-4.15985 34.0855-5.25709v-140.641l-159.458.0401575c-17.4709 80.6056-60.7619 177.427-75.2445 245.661z" fill="#8e8e8f"/><path d="m1236.68 794.124c-.0011811.00944883-.0011811.0177165.00944883.0271654-.0106299.0366142-.0106299.0732284-.011811.108662-.399213 10.5095-80.4697-31.8969-80.4225-17.1555.0755906 23.2949.654331 50.6717 1.55551 78.3296l-.862205-.561024-.401575-2.79331c-14.426-25.761-31.8792-49.5319-51.4595-71.5961-19.9784-22.5142-42.0366-43.0985-65.1957-62.2973-6.13229-5.08465-10.8484-11.4047-13.8662-18.4689-3.0189 7.06418-7.73505 13.3854-13.8662 18.4689-23.1567 19.1988-45.2174 39.7831-65.1957 62.2973-19.2154 21.6532-36.3532 44.9764-50.6528 70.167l-1.00866 1.77992-2.29843 1.38425c1.17165-33.2138 2.28425-64.1091 3.1878-86.4638.490158-12.1158-70.4575 30.737-70.1115 24.6248l.0153543.00236221c.0165354-.26811.0177165-.546851.00590552-.833859-.650788-.947245 15.2811-65.3516 48.3036-113.151 53.9209-78.0438 136.136-154.517 137.844-155.195 6.87875-9.15709 11.1532 5.56063 13.7764-4.363 2.62323 9.92363 6.89764-4.7941 13.7776 4.363 1.71851 2.28425 91.852 82.0914 149.184 161.208 24.4158 33.6981 47.38 109.22 47.693 110.118z" fill="#9a9b9b"/><path d="m1026.026 538.77436221c-16.9536-6.53859-27.3532 2.14606-33.9012 17.8122-7.8189 18.7016-9.67914 47.8725-11.1366 70.7729-.849213 13.3276-1.56024 24.4666-3.13937 29.4319-1.25197 3.93544-1.84134 6.90709-2.33386 9.39331-1.54488 7.79882-1.91929 9.6815-28.4091 19.6843-13.8484 5.22874-33.7866 21.1323-53.367 39.0461-.305906.279921-.611811.559843-.916536.839764l-1.43858-35.6126c-.0507874-2.18977-1.87087-3.92599-4.06181-3.8752-2.18977.0507874-3.92481 1.87087-3.8752 4.06181l1.60984 42.6721c-16.3004 15.4347-31.6382 31.3276-42.104 42.463-1.50354 1.59921-1.42795 4.11496.17126 5.61851 1.59921 1.50354 4.11496 1.42795 5.61851-.17126 12.2976-13.0843 31.2603-32.6811 50.3493-50.1437 18.9331-17.3221 38.0233-32.6292 50.817-37.4587 30.6366-11.5689 31.1788-14.2973 33.4181-25.5992.470079-2.36929 1.0311-5.20394 2.08701-8.52048 1.89213-5.95158 2.63032-17.5051 3.51024-31.3299 1.41969-22.3099 3.23268-50.7296 10.5461-68.2229 4.54725-10.8756 11.4319-17.2288 22.1681-13.9559v128.837c0 .311811.0354331.615355.103937.905906.0862205.568111.284646 2.07874.320079 4.24252-.00354331.379134-.00236221.773623.00236221 1.1811-.0921261 7.46103-2.24764 20.8477-14.8878 31.3276-23.7839 19.7185-46.0134 40.5437-66.052 63.1252-19.5189 21.9945-36.9213 45.6296-51.6036 71.4969l-.702756.424016c-6.8067 3.74646-13.1752 8.65394-19.2709 14.1768-12.039 10.9122-30.0083 20.2784-45.3839 14.0599-2.99055-1.12913-6.17008-3.30827-8.58544-5.72717-8.20985-7.71969-13.6087-37.8142-16.1965-72.2504-3.1689-42.1583-2.29252-92.9245 1.97126-128.745 7.87205-66.1312 28.8484-102.537 90.9036-121.793 21.2634-6.59882 47.6717-23.2288 61.7469-41.3835 7.36772-9.50079 12.385-36.7323 12.5362-47.2548 6.81851 7.62048 13.8295-4.34882 22.1268.206693 15.1087 8.29253 32.3729 10.8945 51.0591 5.63977 13.0453-3.67087 26.7532 12.2362 40.8532.111024-2.91733 34.2154 48.6603 74.4615 75.1477 82.682 62.0516 19.2532 83.0339 55.6571 90.9072 121.793 4.2626 35.8229 5.13898 86.5867 1.97008 128.745-2.64213 35.1591-7.93938 64.0028-16.1894 72.2528-2.55591 2.55591-5.44961 4.46103-8.5878 5.72717-8.20749 3.63425-19.0311 1.80473-27.6142-2.0941-13.4799-6.12284-19.4965-14.9433-32.0374-23.1059-.0673229-.466536-.218504-.928347-.461811-1.36536-14.9256-26.6882-32.7402-51.0071-52.7847-73.5957-20.0398-22.5815-42.2681-43.4067-66.052-63.1252-12.6378-10.4776-14.7945-23.8583-14.8878-31.3193.00472441-.412205.00590552-.811418.00236221-1.1941.0354331-2.16142.232677-3.66969.320079-4.2378.068504-.290551.102756-.594095.102756-.905906v-128.837c10.7362-3.27284 17.6209 3.08032 22.1681 13.9559 7.31339 17.4933 9.12638 45.913 10.5473 68.2229.879922 13.8248 1.61693 25.3784 3.51024 31.3299 1.05473 3.31654 1.61575 6.15119 2.08701 8.52048 2.23819 11.302 2.78032 14.0303 33.417 25.5992 12.7937 4.82953 31.8839 20.1366 50.8181 37.4587 19.0878 17.4626 38.0516 37.0595 50.3481 50.1437 1.50354 1.59921 4.02048 1.6748 5.61851.17126 1.59921-1.50354 1.67599-4.01929.172441-5.61851-9.32953-9.92599-22.5272-23.6292-36.828-37.4209 1.13268-.676772 1.90394-1.90158 1.93701-3.31772l1.65118-44.3965c.0496063-2.19095-1.68543-4.01103-3.8752-4.06181-2.19095-.0507874-4.01103 1.68543-4.06181 3.8752l-1.59685 42.2244c-2.65276-2.50394-5.32914-4.99607-8.0126-7.45158-19.5815-17.9138-39.5197-33.8173-53.3682-39.0461-26.4898-10.0028-26.8642-11.8854-28.4091-19.6843-.49252-2.48622-1.08189-5.45788-2.33386-9.39331-1.57795-4.96536-2.29016-16.1043-3.13819-29.4319-1.45748-22.9004-3.3189-52.0713-11.1378-70.7729-6.54804-15.6662-16.9477-24.3508-33.9012-17.8122z" fill="#b7b7b7"/><path d="m892.257 546.942h105.063c6.51378-9.22205 15.6732-13.1941 28.7067-8.16733 13.0335-5.02678 22.1941-1.05473 28.7079 8.16733h100.989c-26.4886-8.22284-78.0615-48.4666-75.1453-82.682-14.0988 12.1264-27.8067-3.77953-40.852-.109843-18.6862 5.25591-35.9492 2.65158-51.0591-5.63977-8.29843-4.55552-15.3071 7.41379-22.1268-.206693-.151181 10.5236-5.16969 37.7551-12.535 47.2548-14.0764 18.1536-40.4847 34.7835-61.7481 41.3835zm116.597 0h12.7843v-1.26142c-5.06575-1.5437-9.27284-.944883-12.7843 1.26142zm21.561 0h12.7831c-3.51024-2.2063-7.71733-2.80512-12.7831-1.26142z" fill="#b7b7b7"/><path d="m1152.96 730.767c-18.9343-17.3221-38.0244-32.6292-50.8181-37.4599-30.6355-11.5677-31.1788-14.2961-33.4181-25.5992-.470079-2.36929-1.0311-5.20276-2.08583-8.5193-1.89331-5.95158-2.6315-17.5051-3.51142-31.3299-1.41969-22.311-3.2315-50.7296-10.5461-68.2229-4.54725-10.8768-11.4319-17.2288-22.1669-13.9559v128.837c0 .148819-.00826772.295276-.0248032.43937h-8.72953c-.0153543-.144095-.022441-.290551-.022441-.43937v-128.837c-10.7362-3.27284-17.6209 3.07914-22.1669 13.9559-7.31457 17.4933-9.12757 45.9118-10.5473 68.2229-.879922 13.8248-1.61693 25.3784-3.51024 31.3299-1.05591 3.31654-1.61575 6.15-2.08819 8.5193-2.23819 11.3032-2.78032 14.0315-33.417 25.5992-12.7937 4.83071-31.8827 20.1378-50.817 37.4599-19.089 17.4614-38.0528 37.0595-50.3493 50.1437-1.50354 1.59921-4.01929 1.6748-5.61851.17126-1.59921-1.50354-1.6748-4.01929-.172441-5.61733 10.4669-11.1366 25.8047-27.0295 42.1052-42.4642l-1.60866-42.6733c-.0507874-2.18977 1.68425-4.00985 3.87402-4.06063 2.19095-.0496063 4.01103 1.68543 4.06181 3.8752l1.43858 35.6138.916536-.840946c19.5803-17.9138 39.5185-33.8173 53.367-39.0461 26.4898-10.0028 26.8642-11.8866 28.4091-19.6843.49252-2.48504 1.08189-5.45788 2.33386-9.39213 1.57914-4.96654 2.29016-16.1043 3.13937-29.4331 1.45748-22.9004 3.31772-52.0713 11.1366-70.7729 6.54804-15.6662 16.9477-24.3508 33.9012-17.8122 16.9536-6.53859 27.3544 2.14606 33.9012 17.8122 7.8189 18.7016 9.68032 47.8725 11.1378 70.7729.848032 13.3288 1.56024 24.4666 3.13819 29.4331 1.25197 3.93425 1.84134 6.90709 2.33386 9.39213 1.54488 7.79764 1.91929 9.6815 28.4091 19.6843 13.8484 5.22874 33.7878 21.1323 53.3682 39.0461 2.68347 2.45551 5.35867 4.94646 8.01142 7.45158l1.59803-42.2244c.0507874-2.18977 1.87087-3.92481 4.06181-3.8752 2.19095.0507874 3.92599 1.87087 3.8752 4.06063l-1.65118 44.3989c-.0318898 1.41378-.804331 2.64095-1.93701 3.31654 14.3008 13.7917 27.4984 27.4949 36.828 37.4221 1.50354 1.59803 1.42677 4.11378-.17126 5.61733-1.59921 1.50354-4.11614 1.42795-5.61969-.17126-12.2965-13.0843-31.2591-32.6823-50.3481-50.1437z" fill="#9a9b9b"/><ellipse fill="#b7b7b7" rx="35.1555" ry="57.0319" transform="matrix(.465477 -.139424 .139424 .465476 937.981 388.623)"/><ellipse fill="#b7b7b7" rx="35.1555" ry="57.0319" transform="matrix(-.465477 -.139424 -.139424 .465476 1109.99 388.623)"/><path d="m1111.19 365.12c0 16.8248-2.31496 33.9142-6.64607 50.1532-4.28386 16.0665-10.5378 31.3063-18.4677 44.6363-16.9937 17.3587-33.313 27.4536-48.4937 31.7256-16.5189 4.64528-31.761 2.3563-45.0827-4.95591-12.45-6.83504-23.3091-18.0638-32.0528-32.1544-.770079-1.2378-1.52244-2.5004-2.25945-3.78307-13.5496-23.6103-21.3827-54.2516-21.3827-85.6194h-.0165354c0-32.5819 8.67284-54.1985 23.798-67.5662 15.1583-13.3973 37.0689-18.7701 63.4087-18.7701 26.341 0 48.2516 5.37284 63.4111 18.7701 15.1146 13.3583 23.7839 34.9713 23.7839 67.5638z" fill="#ababab"/><path d="m1097.73 417.752s6.91654-51.8764-8.07048-67.728c0 0-62.8288 38.6185-96.5493-4.89922 0 0-2.01732-21.1831-14.5547-22.0477 0 0-17.5784 7.06064-26.8016 52.3099l.288189 42.9426-16.5591-31.9914s-24.6555-63.6934 9.35434-87.6166c0 0-1.7315-47.2654 94.5308-42.365 0 0 59.9481-3.45827 77.817 63.9815 7.84961 29.9965 2.36575 52.5591-2.59016 64.9063l-.0153543.37441-.672048 1.2815c-2.5063 5.85237-4.70433 8.97284-4.71142 8.98347l-11.4662 21.8681zm11.4662-21.8669v-.0011811" fill="#202020"/><path d="m0 0h2048v2048h-2048z" fill="none"/></svg>