<svg clip-rule="evenodd" fill-rule="evenodd" height="2048" image-rendering="optimizeQuality" shape-rendering="geometricPrecision" text-rendering="geometricPrecision" viewBox="0 0 2048 2048" width="2048" xmlns="http://www.w3.org/2000/svg"><path d="m1018.31 1058.95c-43.8709-55.6583-127.391-156.813-158.217-185.154-141.612-130.191-429.959 385.491-466.365 392.514-21.8079 5.65276-65.6658 6.0567-106.748 20.3705-35.863 12.4949-50.08 28.0571 10.1173 39.6756 56.0741 8.59725 128.063 4.42559 179.355 1.17047 12.1713-.777166 27.1536-5.86772 22.7197-40.9122 55.6122-119.43 201.058-161.238 263.589-257.634 43.0689 83.1662 91.7741 185.553 143.234 262.958 51.0024-70.4564 51.6237-190.79 112.315-232.988z" fill="#b7b7b7"/><path d="m1043.2 1100.18c73.4505-18.8268 124.409-115.75 208.035-176.366-11.2784-6.49016-18.4146-17.3953-28.4433-24.4866-45.5374 2.3941-210.443-57.7477-305.294-91.5201-16.7362 4.6689-163.569 16.1138-208.282-66.5587 74.8902 8.67875 151.288 11.1331 225.799 16.8532 103.507 6.71221 204.144 45.8646 306.968 63.2776 66.652 25.0559 199.645 20.152 269.951 59.0374 111.608 43.6607 47.0516 202.895-82.0371 229.562-137.182 28.3264-168.015 67.1575-274.676 157.425-49.6276-28.9264-75.7335-117.136-112.019-167.223z" fill="#b7b7b7"/><path d="m1016.19 1056.28c-81.0638 45.4264-105.64 200.751-110.198 235.651 20.9646 24.7795 53.6705 55.1292 89.7768 57.717 67.2189 4.813 121.708-23.4898 159.445-82.2497-48.9851-91.7351-108.809-172.61-111.623-176.395-.00590552-.00590552-.0129921-.0129921-.0188977-.0188977-.367323-.475985-11.0776-14.2004-27.3827-34.7044z" fill="#8e8e8f"/><path d="m1727.36 723.404s-28.7162-10.1421-41.8737-12.2374c-13.1599-2.0941-33.9709-1.49055-44.2252 4.06418-7.51536 4.07481-9.65198 13.4173-18.5079 13.5437-8.85355.127559-62.3741-4.60985-66.1418 2.5252-5.75079 10.9028 2.96221 9.42875 2.61378 19.7669-.115748 3.47481-7.04056 6.73819-9.96851 8.50276-2.92796 1.76575-30.9827 9.7819-34.454 25.3299-3.47244 15.548 8.04095 29.778 13.3347 38.9292 5.29607 9.15119 11.4012 20.674 11.9835 28.7433.747638 10.3205-25.8414 24.8634-43.0394 33.1583-8.16733 3.93898-11.4555 16.187-11.4555 16.187 0 .0011811-7.78347 9.51733 6.74174 35.6185 14.5228 26.1106 45.665 39.613 54.763 33.2126 9.09804-6.40276 46.539-44.8028 65.8595-47.3492 19.3252-2.55945 146.243 22.2543 164.738-65.1756 18.5043-87.4288-27.2835-127.704-50.3681-134.819z" fill="#b7b7b7"/><path d="m1678.76 727.721c-3.43111 17.0303 17.1768 41.8819-5.22048 48.4807-19.1858 5.65276-15.515 7.84134-24.0225 19.8862-11.7272 16.6004-15.4016 15.926-9.4252 28.6347 2.30669 8.1567 45.1229 6.63426 39.2717 31.3193-5.84528 24.6839-43.9276 18.4181-54.4548 12.5374-8.9445-4.99607-28.4339 35.2902-13.4055 55.9784 8.03859 11.0658 25.6205 11.2618 60.73 7.65709 117.139-12.0201 147.435-67.6359 94.9182-172.258-34.402-68.5276-93.1335-82.0217-88.3914-32.2359z" fill="#202020"/><path d="m0 0h2048v2048h-2048z" fill="none"/></svg>