<svg clip-rule="evenodd" fill-rule="evenodd" height="2048" image-rendering="optimizeQuality" shape-rendering="geometricPrecision" text-rendering="geometricPrecision" viewBox="0 0 2048 2048" width="2048" xmlns="http://www.w3.org/2000/svg"><path d="m1294.72 1212.41c53.752 61.0973 134.388 173.457 171.072 203.645 11.0268 9.07442 20.3504 21.0898 26.974 34.7492 16.8945 34.8496 70.3619 64.7599 96.8434 104.573 23.7437 35.6977 29.237 46.5863 49.2756 123.951 10.3913 40.1185 37.9701 9.08268 125.591 36.7725 17.9291-6.0189 19.2449-9.89646 27.0355-29.8075 8.67638-22.1658-101.019-40.428-112.279-61.2024-9.97796-18.424-31.389-60.3721-62.6812-134.356-11.1579-26.3776-138.967-290.431-163.557-339.762-85.0725 9.66024-127.7.711024-158.275 61.4386z" fill="#b7b7b7"/><path d="m1216.76 1233.19c-140.427 77.3138-293.589 72.0402-322.855 86.8335-17.061 110.534-61.7563 233.404-67.0796 341.894-2.0315 41.3929-35.3374 16.6016-115.513 61.5012-18.776-2.25355-20.8524-5.78386-32.5229-23.6988-12.9957-19.9441 90.7087-60.0934 97.5166-82.7186 29.5299-98.2619-4.28622-300.562 56.2359-377.386 29.8382-37.8815 181.562-76.9371 280.077-100.324.549213.125197 2.46024.152362 2.52047.327166.518504 1.49882 5.65748-.484252 6.04607.712205 2.06339 6.36024 22.1303 5.74371 27.8563 12.0461 7.92993 8.72599 6.48189 23.7662 15.0106 31.9063 11.5984 11.0717 34.2662 39.7666 52.7067 48.9071z" fill="#b7b7b7"/><path d="m1272.45 1188.49c4.35945-.964961 8.84883 1.01339 11.0587 4.89213 3.41103 5.97048 7.1752 12.3508 11.2158 19.0252 19.3311-4.97244 136.836-30.528 158.275-61.4386-14.4213-46.18-42.9674-139.129-82.4481-168.579-30.5965 39.3461-218.907 120.709-254.335 115.169 6.24213 9.45709 10.3004 16.6299-3.5941 41.7237 21.4394 30.9107 84.8103 88.9264 104.141 93.8989 23.2583-17.6221 34.6441-26.3114 55.6867-44.6918z" fill="#8e8e8f"/><g fill="#b7b7b7"><path d="m1090.45 1085.55c-98.5772-41.2961-269.346-92.0729-295.539-30.0673-31.6158 74.8359-29.426 218.648-30.0425 223.556-10.4138 77.5926-21.9331 153.423-33.4028 229.075-4.53898 30.7394-3.03307 118.838-58.4575 139.747l3.99331-131.541c11.8252-25.5933 8.95158-174.693 23.765-240.179 12.1394-53.452-19.591-224.727 12.4606-269.431 23.2087-79.8745 32.074-158.563 27.6685-247.951l108.962-53.4532c7.97599 8.44961 18.7181 16.2685 33.039 23.648 39.3414 20.2748 89.1957 50.739 139.282 82.3713 118.569 74.8819 226.152 57.528 348.369 171.07-44.1496 56.7768-185.493 125.937-254.334 115.169l-25.7622-12.0142z"/><path d="m850.08 704.916c-8.62323-6.98504-52.0619-42.4052-60.7276-49.9252-26.2311-48.3508-146.218-78.4713-189.011-112.723-44.0989-35.2347-140.163-105.854-186.199-139.025l-36.0898 49.3276c45.4181 32.641 131.681 122.241 186.066 158.27 71.1449 55.7752 154.223 95.2867 176.776 147.918l59.0445-8.97048 50.1402-44.8713z"/><path d="m378.053 452.568c-13.7551-10.7221-19.3689-15.098-35.7154-22.0488-28.7799-33.7418-57.5587-67.4847-86.3386-101.225 55.1162-21.7087 116.565 37.5981 140.565 57.3343 9.88229 8.06457 18.0791 15.9673 26.8949 22.8579l-45.4063 43.0819z"/><path d="m737.586 1005.69 16.1669-105.76c-8.2819-7.97717-10.8697-17.8075-3.80433-30.1547-3.05433-13.8933 2.35158-22.5036 12.6378-27.6414l15.5398-101.659c-12.3532 25.3984-60.7997 71.1213-94.793 62.9209 10.037 16.0595-8.08347 27.4099-6.39686 41.1071 2.41536 19.6181-2.86181 36.5953-13.5343 50.53-5.86182 7.65237 5.10827 16.5496-3.61181 22.2414 10.5697 1.77165 37.2095 11.0126 45.639 19.8898 16.1079 16.963 28.7858 46.1044 32.1567 68.5252zm17.941-117.371 1.96772-12.8693-1.27087-.194882c-2.33268 4.86378-2.37756 9.19016-.696851 13.0642zm3.31772-21.704 1.96772-12.8681c-2.76142 3.1937-4.01221 7.33701-3.2374 12.6732l1.26969.194882z"/><ellipse rx="35.1555" ry="57.0319" transform="matrix(-.0715451 -.525533 .525533 -.0715452 576.296 936.11)"/><ellipse rx="35.1555" ry="57.0319" transform="matrix(-.229142 .478328 .478328 .229142 605.414 750.633)"/></g><path d="m580.275 745.362c18.1417 2.84882 36.1784 8.2382 52.9559 15.6567 16.5992 7.33938 31.9736 16.663 45.0059 27.4701 15.841 21.2646 23.9634 40.5697 25.9996 57.6626 2.21339 18.5988-2.83583 34.6477-12.9744 47.7744-9.47835 12.2681-23.4248 22.076-40.0985 29.1201-1.46693.620079-2.95512 1.2189-4.46221 1.79528-27.7547 10.6146-62.1213 13.8732-95.9446 8.563l-.00354331.0177165c-35.1343-5.51575-56.9741-18.5268-68.8288-37.0996-11.8795-18.613-13.9642-43.1481-9.50552-71.5512 4.45866-28.4032 13.9618-51.1205 30.9744-65.1993 16.963-14.0374 41.7355-19.7268 76.8816-14.2099z" fill="#ababab"/><path d="m634.749 768.786s-54.7678-16.2414-74.3989-2.76378c0 0 31.0087 74.2867-21.6272 103.28 0 0-23.1827-1.41024-26.2382 11.9622 0 0 4.63819 20.152 51.8705 37.7563l46.3548 6.95906-37.3004 12.4406s-72.8552 15.8032-92.895-24.9189c0 0-51.2599-6.13465-29.6811-109.106 0 0 6.4193-65.2288 82.1658-73.0808 33.6756-3.38622 57.0768 6.34607 69.5516 13.7811l.400394.0791339 1.2685.941339c5.8878 3.69449 8.87953 6.59292 8.89016 6.60237l21.639 16.0665zm-21.6378-16.0665h-.0011811" fill="#202020"/><path d="m0 0h2048v2048h-2048z" fill="none"/></svg>