<svg clip-rule="evenodd" fill-rule="evenodd" height="2048" image-rendering="optimizeQuality" shape-rendering="geometricPrecision" text-rendering="geometricPrecision" viewBox="0 0 2048 2048" width="2048" xmlns="http://www.w3.org/2000/svg"><g fill="#b7b7b7"><ellipse rx="35.1555" ry="57.0319" transform="matrix(-.469738 -.140701 -.140701 .469738 1110.8 389.838)"/><ellipse rx="35.1555" ry="57.0319" transform="matrix(.469738 -.140701 .140701 .469738 937.218 389.838)"/><path d="m1059.1202 1416.328c-5.54646 38.0859-1.88977 106.462.755906 155.959 1.14921 21.4866 2.10827 39.4323 2.04685 50.0563-.0354331 6.11811-1.62638 12.0402-4.65237 17.3386l.00354331.0153543c-6.39922 10.7315-9.16536 24.1855-8.15552 36.6307l7.75631 95.641c.529134 6.53386 3.91418 12.3803 9.31654 16.0843 11.6008 7.95473 18.4866 2.56299 28.115-4.50118 1.85315-1.35945 10.5366-2.33032 21.2055-11.478 17.9681-15.4063 23.9292-40.7351 14.7024-62.5371l-9.79725-23.1496c-5.08937-12.0284-6.13701-25.0099-3.04843-37.7032l13.3854-52.376c18.4795-70.7634 7.50945-150.241 8.00434-223.446.152362-22.4622 4.52126-44.367 12.6543-65.5063 5.56654-14.465 9.95434-46.6477 12.2327-74.5347l-112.858-.941339c1.29921 20.9587 2.75788 52.1138 3.47126 71.4662 1.13858 30.8386 2.14134 57.9331 4.91693 75.6095 1.91457 12.202 1.75276 24.9473-.0555119 37.3725z"/><path d="m898.039 1372.865c.494882 73.2048-10.4752 152.682 8.00434 223.446l13.3854 52.376c3.08859 12.6933 2.04095 25.6748-3.04843 37.7032l-9.79725 23.1496c-12.6378 29.8607 3.57048 64.1941 34.6748 73.4032 4.84607 1.4374 13.9595 15.665 29.3492 5.113 5.40119-3.70394 8.78623-9.5504 9.31536-16.0843l7.75631-95.641c1.0441-12.8658-1.74803-25.4221-8.15434-36.6307-3.01418-5.29016-4.61457-11.2476-4.65-17.354-.0614174-10.624.897638-28.5697 2.04685-50.0563 2.64685-49.4965 6.30355-117.873.755906-155.959-1.80709-12.4252-1.97008-25.1705-.0555119-37.3725 2.78622-17.7425 3.92953-45.2162 5.22402-76.4599.791339-19.1197 2.2878-49.089 3.61536-69.7241l-119.01-.197244c3.31299 22.5295 9.93898 54.0107 17.9339 74.7816 8.13426 21.1406 12.502 43.0441 12.6543 65.5063z"/><path d="m809.364 799.052c.0011811.00944883.0011811.0188977-.00944883.0283465.011811.0366142.011811.0720473.0129921.108662.402756 10.6063 81.2056-32.1874 81.1571-17.3138-.187795 58.6926-3.77008 144.953-7.49646 195.332l277.379-.170079c-2.42835-65.8772-5.46969-156.344-7.43741-205.004-.493701-12.2232 71.1024 31.0193 70.754 24.8516l-.0153543.00236221c-.0153543-.271654-.0165354-.552756-.00590552-.843308.656693-.954331-15.4205-65.9493-48.7453-114.186-54.4146-78.7595-137.384-155.93-139.106-156.617-6.94371-9.23977-11.2559 5.6126-13.9039-4.40315-2.64685 10.0158-6.96024-4.83662-13.9028 4.40315-1.73386 2.30551-92.6942 82.8438-150.549 162.685-24.6414 34.0051-47.8146 110.219-48.1311 111.125z"/></g><path d="m809.364 799.052c.0011811.00944883.0011811.0188977-.00944883.0271654.011811.0377953.011811.0732284.0129921.109843.402756 10.6051 81.2056-32.1886 81.1583-17.3126-.0755906 23.5075-.660237 51.1359-1.56969 79.0477l.870473-.56693.403937-2.81929c14.5583-25.9961 32.1709-49.9855 51.9307-72.2516 20.1626-22.7209 42.4217-43.4918 65.7922-62.8678 6.18898-5.13071 10.9488-11.5087 13.9937-18.6378 3.04607 7.12914 7.80591 13.5083 13.9925 18.6378 23.3705 19.376 45.6319 40.1469 65.7934 62.8678 19.3914 21.8516 36.6862 45.3886 51.117 70.8107l1.01811 1.79528 2.31851 1.39725c-1.18228-33.5185-2.30433-64.6961-3.21733-87.2564-.493701-12.2256 71.1024 31.0181 70.754 24.8516l-.0153543.00236221c-.0165354-.271654-.0177165-.552756-.00590552-.843308.656693-.954331-15.4205-65.9493-48.7465-114.186-54.4134-78.7595-137.382-155.932-139.104-156.617-6.94253-9.23977-11.2571 5.6126-13.9039-4.40197-2.64803 10.0146-6.96024-4.8378-13.9039 4.40197-1.73268 2.30669-92.693 82.8438-150.548 162.685-24.6402 34.0051-47.8146 110.219-48.1311 111.125z" fill="#9a9b9b"/><path d="m1021.946 541.36436221c17.1095-6.59882 27.6036 2.16496 34.2118 17.9752 7.88977 18.8728 9.76772 48.3107 11.2394 71.4213.8563 13.4492 1.57441 24.6898 3.16772 29.7012 1.2626 3.97087 1.85788 6.96969 2.35512 9.47835 1.55906 7.86969 1.93583 9.77009 28.6689 19.8638 13.9748 5.27717 34.0961 21.326 53.8559 39.4051.308268.282284.617717.564567.924804.846851l1.45158-35.9386c.0507874-2.20984 1.8874-3.96142 4.09843-3.91063 2.21103.0507874 3.96142 1.8874 3.91063 4.09843l-1.62402 43.063c16.4504 15.5764 31.9276 31.6146 42.4902 42.8528 1.51654 1.61339 1.43976 4.15276-.173622 5.6693-1.61339 1.51772-4.15276 1.44095-5.67048-.172441-12.4099-13.2047-31.5461-32.9811-50.8099-50.6044-19.1067-17.4803-38.3717-32.9268-51.2823-37.8012-30.9166-11.674-31.4646-14.4284-33.7229-25.8331-.475985-2.39173-1.04173-5.25119-2.10709-8.59843-1.90984-6.00591-2.65394-17.6658-3.54213-31.617-1.43268-22.5142-3.26221-51.1937-10.6429-68.8477-4.58859-10.9748-11.537-17.3858-22.3713-14.0835v130.017c0 .314173-.0354331.620079-.103937.914174-.0885827.572835-.287008 2.09764-.323622 4.2815.00354331.382677.00236221.780709-.00236221 1.19173.0933072 7.52953 2.26772 21.039 15.0248 31.6146 24.0012 19.898 46.4339 40.9146 66.6567 63.7028 19.6973 22.1953 37.2591 46.0477 52.0748 72.1524l.708662.427559c6.8693 3.78071 13.2969 8.73308 19.448 14.3067 12.15 11.0114 30.2835 20.4638 45.7996 14.1886 3.01772-1.13976 6.2256-3.33898 8.66457-5.78032 8.28426-7.78938 13.7327-38.1603 16.3441-72.9119 3.19843-42.5445 2.31378-93.7761-1.99016-129.924-7.94292-66.7371-29.1118-103.476-91.7351-122.908-21.4583-6.65906-48.1075-23.4414-62.3126-41.7626-7.43386-9.5882-12.4973-37.0677-12.6508-47.687-6.88111 7.69016-13.9547-4.38898-22.3288.207874-15.2469 8.3693-32.6693 10.9949-51.5268 5.69174-13.1646-3.70394-26.9988 12.3484-41.2264.112205 2.94331 34.5284-49.1067 75.1442-75.8363 83.439-62.6197 19.4291-83.7946 56.1662-91.7387 122.908-4.30276 36.15-5.18622 87.3792-1.98898 129.924 2.66575 35.4815 8.0126 64.5886 16.3382 72.9142 2.57835 2.57953 5.49922 4.50237 8.66575 5.78032 8.28308 3.66733 19.2047 1.82126 27.867-2.11417 13.6039-6.17835 19.6748-15.0791 32.3315-23.3173.0673229-.470079.219685-.936615.465355-1.37717 15.0626-26.9327 33.039-51.4748 53.2678-74.2701 20.2229-22.7882 42.6555-43.8048 66.6567-63.7028 12.7536-10.5732 14.9303-24.0768 15.0248-31.6063-.00472441-.415748-.00590552-.818505-.00236221-1.20473-.0354331-2.1815-.23504-3.70394-.323622-4.27677-.068504-.294095-.103937-.6-.103937-.914174v-130.017c-10.8343-3.30236-17.7827 3.10866-22.3713 14.0835-7.38071 17.654-9.21024 46.3335-10.6429 68.8477-.88819 13.9512-1.63228 25.611-3.54213 31.617-1.06536 3.34725-1.6311 6.2067-2.10591 8.59843-2.25945 11.4047-2.80748 14.1591-33.724 25.8331-12.9106 4.87441-32.1756 20.3209-51.2823 37.8012-19.2638 17.6232-38.4 37.3996-50.8099 50.6044-1.51772 1.61339-4.05709 1.69016-5.67048.172441-1.61339-1.51654-1.69016-4.05591-.173622-5.6693 9.41457-10.0181 22.7339-23.8465 37.1658-37.7646-1.14331-.682678-1.92166-1.91929-1.95591-3.34725l-1.66536-44.804c-.0507874-2.21103 1.70079-4.04764 3.91063-4.09843 2.21103-.0507874 4.04764 1.70079 4.09843 3.91063l1.61221 42.6107c2.67756-2.52638 5.37756-5.04095 8.08583-7.5189 19.7599-18.0791 39.8811-34.128 53.8571-39.4051 26.7319-10.0937 27.1099-11.9941 28.6677-19.8638.497244-2.50866 1.09252-5.50748 2.3563-9.47835 1.59213-5.01142 2.31142-16.252 3.16654-29.7012 1.47165-23.1106 3.34961-52.5485 11.2394-71.4213 6.60827-15.8102 17.1036-24.574 34.2118-17.9752z" fill="#b7b7b7"/><path d="m878.352 1013.57c-9.46536 72.2434-19.6016 149.599-10.7032 220.606h118.712c3.72874-52.7741 10.9252-105.199 28.5697-135.76l-.011811-.0153543c1.46811-2.54055 5.46496-2.96103 7.15276.368504 18.0898 31.624 25.3028 83.4402 28.8803 135.406h112.605c5.10237-72.9627 1.46693-176.661-3.24803-258.866h-277.047c-1.54134 12.5504-3.21378 25.3229-4.90985 38.2595z" fill="#8e8e8f"/><path d="m936.009 366.121c0 16.9772 2.33622 34.2236 6.7063 50.6126 4.32402 16.213 10.6358 31.5922 18.6366 45.0449 17.1508 17.5169 33.6189 27.704 48.9378 32.015 16.6713 4.6878 32.0528 2.37756 45.4961-5.00079 12.5646-6.89764 23.5229-18.2291 32.3469-32.4485.775985-1.24961 1.53662-2.52402 2.27953-3.81851 13.6736-23.8264 21.5788-54.7489 21.5788-86.4024h.0165354c0-32.8807-8.75198-54.6945-24.0166-68.1851-15.2965-13.5201-37.4067-18.9414-63.9886-18.9414s-48.6933 5.42126-63.991 18.9414c-15.2539 13.4811-24.0024 35.2902-24.0024 68.1827z" fill="#a8a8a8"/><path d="m893.851 735.115c19.1067-17.4815 38.3717-32.928 51.2823-37.8024 30.9166-11.674 31.4646-14.4272 33.724-25.8343.474804-2.39055 1.04173-5.25 2.10591-8.59725 1.90984-6.00591 2.65512-17.6658 3.54213-31.617 1.43386-22.5142 3.26221-51.1937 10.6429-68.8477 4.58859-10.976 11.537-17.3858 22.3701-14.0835v130.017c0 .15.00826772.297638.0248032.442914h8.80985c.0165354-.145276.022441-.292914.022441-.442914v-130.017c10.8343-3.30236 17.7827 3.10748 22.3713 14.0835 7.38071 17.654 9.21024 46.3335 10.6429 68.8477.88819 13.9512 1.63228 25.611 3.54213 31.617 1.06536 3.34725 1.6311 6.2067 2.10709 8.59725 2.25945 11.4071 2.8063 14.1602 33.7229 25.8343 12.9118 4.87441 32.1756 20.3209 51.2823 37.8024 19.2638 17.6221 38.4012 37.3985 50.8099 50.602 1.51772 1.61457 4.05709 1.69134 5.67048.173622 1.61339-1.51654 1.69134-4.05709.173622-5.6693-10.5626-11.2382-26.041-27.2764-42.4902-42.8528l1.62402-43.063c.0507874-2.21103-1.69961-4.04646-3.91063-4.09843-2.20984-.0507874-4.04764 1.70079-4.09843 3.91063l-1.45158 35.9398-.924804-.848032c-19.7599-18.0791-39.88-34.1268-53.8559-39.404-26.7319-10.0949-27.111-11.9953-28.6701-19.865-.496063-2.50866-1.09016-5.50748-2.35394-9.47835-1.59449-5.01142-2.31142-16.252-3.16772-29.7024-1.47165-23.1095-3.34843-52.5473-11.2394-71.4213-6.60827-15.8091-17.1036-24.5729-34.2118-17.974-17.1083-6.59882-27.6036 2.16496-34.2107 17.974-7.89095 18.874-9.77009 48.3118-11.2406 71.4213-.8563 13.4504-1.57323 24.691-3.16654 29.7024-1.26378 3.97087-1.85788 6.96969-2.3563 9.47835-1.55906 7.86969-1.93583 9.77009-28.6689 19.865-13.9748 5.27717-34.0961 21.3248-53.8559 39.404-2.70827 2.47795-5.40827 4.99134-8.08583 7.52008l-1.61221-42.6118c-.0507874-2.20984-1.88858-3.96142-4.09843-3.91063-2.21103.0519685-3.96142 1.8874-3.91063 4.09843l1.66654 44.804c.0318898 1.42795.811418 2.66575 1.95473 3.34725-14.4319 13.9181-27.75 27.7465-37.1658 37.7646-1.51772 1.61221-1.43976 4.15276.173622 5.6693 1.61339 1.51772 4.15276 1.44095 5.67048-.173622 12.4099-13.2036 31.5461-32.9799 50.8099-50.602z" fill="#9a9b9b"/><path d="m947.481 419.233s-6.98032-52.3512 8.14371-68.3481c0 0 63.404 38.9729 97.4328-4.9441 0 0 2.03622-21.3768 14.6882-22.2496 0 0 17.7402 7.1256 27.0473 52.7894l-.290551 43.3359 16.7102-32.2843s24.8811-64.2768-9.43938-88.4186c0 0 1.74685-47.6989-95.3965-42.7536 0 0-60.4973-3.49016-78.5292 64.5674-7.92166 30.2717-2.38819 53.041 2.61378 65.5004l.0153543.377953.677953 1.29331c2.52992 5.9067 4.74804 9.05552 4.75512 9.06615l11.5713 22.0677zm-11.5713-22.0666v-.0011811" fill="#202020"/><path d="m0 0h2048v2048h-2048z" fill="none"/></svg>