<svg clip-rule="evenodd" fill-rule="evenodd" height="2048" image-rendering="optimizeQuality" shape-rendering="geometricPrecision" text-rendering="geometricPrecision" viewBox="0 0 2048 2048" width="2048" xmlns="http://www.w3.org/2000/svg"><path d="m1287.9628 965.0767c-76.5993 14.0988-148.237 48.0449-218.013 89.4355 1.21654 60.0473 11.7839 153.424 30.3319 226.715 18.2634 72.1725 50.5004 130.339 107.787 133.302 76.7823 4.04292 181.953-28.05 266.692-53.9339l.328347-.105118.328347-.101575.27874-.0956694.011811.0129921c140.831-43.004 170.916-21.0543 198.959-.594095 41.7248 30.4441 75.5422 27.2492 107.15 6.8315 3.33307-2.15315 6.29528-4.39725 8.25591-6.47599 1.07717-1.14213 1.78701-2.03032 1.92756-2.4874-22.7091-14.2429-46.5898-29.5429-68.7627-47.3469-22.461-18.0366-43.2331-38.6752-59.406-63.4323-2.56654-2.39292-5.50158-4.23071-8.66575-5.45079-3.2811-1.26496-6.82914-1.87559-10.4847-1.76457-3.62835.105118-7.13859.929528-10.3677 2.39528-3.22087 1.46575-6.14528 3.56575-8.61142 6.22796-42.1607 45.5398-137.746 42.3933-227.576 39.4359-51.6426-1.69843-101.361-3.33425-137.159 4.43032-.49252.132284-1.01929.170079-1.55669.0956694-2.15315-.297638-3.65788-2.28662-3.35079-4.43859 14.5677-105.334 23.8299-216.279 31.9028-322.655z" fill="#b7b7b7"/><path d="m597.9852 646.302c-22.1126 24.0638-32.8666 60.7276-37.5154 99.8682-.00826772.167717-.0283465.333071-.0590552.498426-5.65276 48.15-2.10827 99.9816.870473 136.677 2.66103 32.8158 5.15079 63.489.869292 112.736.0271654.369685-.0011811.752363-.101575 1.14331-2.0563 23.2335-5.61496 50.5878-11.3551 84.2009.0011811 0-23.3752 124.292-24.8988 137.069-3.29528 27.6059-3.5067 154.756-11.6386 164.979-2.12244 2.67284-5.19685 4.60866-8.77678 5.27244l.00236221.0129921c-.196063.0354331-.392126.056693-.587008.0637796-40.2685 4.21536-71.1733 13.1669-92.1261 24.8918-19.6382 10.9902-30.2811 24.2906-31.3878 38.1874 21.9579-1.76575 52.9418-4.53898 84.7146-8.29961 32.7957-3.87992 66.3981-8.80394 91.6855-14.7378 13.9181-72.0969 25.1658-120.764 34.1292-159.556 15.6921-67.9052 24.3685-105.454 28.1658-186.011-.998032-9.36261 9.24331-51.6674 21.5788-102.611 7.75749-32.041 16.3583-67.5544 23.5949-100.671.217323-.996851.794883-1.82244 1.56614-2.36929 34.3016-26.5512 106.984-31.1929 181.479-19.5354 70.9949 11.1106 150.403 48.9449 193.394 84.7229 11.6303-69.8894 54.7241-145.86 77.4485-211.977-60.7382-41.1319-143.59-81.6946-218.103-106.171-67.0926-22.0406-133.278-33.3366-186.915-26.7-54.5516 6.74882-91.7942 21.939-116.034 48.3154z" fill="#b7b7b7"/><path d="m1099.76 776.821c-21.8575 49.9181-53.5654 122.334-57.8245 161.91-.00590552.19252-.0259843.386221-.0602363.576378-.253937 2.49331-.39567 4.85197-.416929 7.06418l28.487 108.139 217.399-88.9879c.190158-.172441.39567-.32126.615355-.447638.713386-10.5661 1.31693-20.4945 1.78347-29.5784.518504-10.0713.885827-19.2236 1.06772-27.2103.793701-34.989-20.7319-69.4276-49.2827-98.5524-41.7886-42.6284-98.1603-73.6465-122.493-78.8776-3.32008 9.53268-10.5165 25.9618-19.2744 45.9638z" fill="#8e8e8f"/><path d="m283.356 859.886s25.9677 23.5264 39 31.5981c13.0358 8.07166 35.3894 16.6795 48.7406 15.3425 9.78662-.982678 16.2071-9.94961 25.6606-6.14764 9.45355 3.80079 64.1469 32.615 71.3174 26.7177 10.9488-9.01536 1.04646-11.3232 6.01063-22.1398 1.66772-3.63544 10.4669-4.02166 14.3587-4.59331 3.89174-.574016 37.2284 3.38859 47.8241-11.5689 10.5945-14.9575 4.70079-35.1768 3.15-47.2418-1.55315-12.065-2.91142-27.0083.056693-35.8299 3.7937-11.2843 38.4756-14.902 60.4134-16.0606 10.4185-.549213 19.3524-12.0874 19.3524-12.0874.0011811-.0011811 12.4902-6.64134 8.6752-40.7977-3.8067-34.1634-30.8563-62.3351-43.3559-59.5867-12.502 2.75197-69.3036 26.863-90.9402 20.9788-21.6461-5.87245-145.311-88.6158-203.797-4.04882-58.4965 84.5611-27.8044 147.654-6.46654 165.465z" fill="#b7b7b7"/><path d="m336.857 876.907c11.2099-16.5484.38504-52.0819 27.0874-49.1304 22.8744 2.52756 19.9512-1.42677 34.3335-10.428 19.8236-12.4051 23.4236-10.0559 22.7292-26.2004 1.17756-9.6815-44.9386-27.0957-27.7583-50.6918 17.1744-23.5984 54.8056-.0236221 63.3638 10.8969 7.27205 9.27757 45.8611-24.8162 39.1063-53.4496-3.61181-15.3165-22.1847-23.3398-61.0477-35.1189-129.658-39.3059-186.529 6.25276-177.293 140.626 6.05197 88.017 62.3847 128.441 79.4788 73.4965z" fill="#202020"/><path d="m0 0h2048v2048h-2048z" fill="none"/></svg>