<svg clip-rule="evenodd" fill-rule="evenodd" height="2048" image-rendering="optimizeQuality" shape-rendering="geometricPrecision" text-rendering="geometricPrecision" viewBox="0 0 2048 2048" width="2048" xmlns="http://www.w3.org/2000/svg"><path d="m919.387 849.512c-115.655 19.0311-265.055 109.682-355.217 114.421 36.7677 119.2-37.8496 257.367-61.0512 334.409-13.3417 44.3067-19.9004 104.457-59.3516 128.104-5.01969 2.77205-10.4563 3.26103-16.4788 1.46457-11.9599-3.54567-35.8512-5.44961-36.1347-5.4626-29.9315-3.92363-67.6536 7.43505-128.682 16.6099-1.76693.265748-10.8721-25.5732-3.84922-30.2634 47.3067-31.7622 65.5489-40.0642 120.758-65.2843 93.0013-75.8894 19.2827-340.77 97.7977-463.32 36.5351-23.8843 179.684-194.779 389.723-226.821 26.8772 46.6737 43.1552 143.754 52.4859 196.143z" fill="#b7b7b7"/><path d="m1110.91 814.399c103.664-2.38465 260.19 56.9693 288.192 118.35 36.0142 77.2571 105.6 169.558 98.1024 179.399 6.11575 100.12 49.3961 89.2808 93.0119 251.485-1.83898 23.8099-159.337 39.9851-124.804 61.6465 56.7166 7.69134 105.266 5.38583 137.476 3.47008 43.4292-2.58425 47.4804-2.96929 46.0087-43.128-3.61772-98.7107-35.6492-153.534-59.0599-242.6 1.80827-158.647-86.2075-165.467-72.156-255.903 39.9815-88.9028 27.267-145.864-57.2315-204.252-85.7316-59.2406-255.652-75.5658-382.689-61.95 5.85119 54.2363 51.143 141.966 33.15 193.481z" fill="#b7b7b7"/><path d="m1079.21 614.738c-3.88701 27.2481 52.1516 154.902 31.7032 199.661-52.6347 44.38-130.407 60.8764-192.436 40.1823-8.70827-48.6603-26.3138-160.103-54.1796-205.725 63.0166-45.2941 181.453-44.4237 214.912-34.1185z" fill="#8e8e8f"/><path d="m1776.13 921.871s-1.46929-31.8366-4.61811-45.4193c-3.14882-13.585-11.9268-33.5244-21.3484-41.2819-6.90945-5.68347-16.8095-4.07717-20.4177-12.613-3.60827-8.53583-20.0835-62.2937-28.4847-63.1394-12.8362-1.28386-7.97717 6.58465-18.1382 10.3158-3.41457 1.25551-9.30473-4.17402-12.1677-6.31772-2.86536-2.1437-21.6815-26.191-38.1237-23.4366-16.4421 2.75315-25.7079 19.5189-32.4969 28.2544-6.78898 8.73662-15.5587 19.1929-23.1532 22.9347-9.71221 4.78583-34.2803-15.2693-49.0926-28.6795-7.03465-6.36969-20.2051-4.73622-20.2051-4.73622-.0011811 0-12.2917-3.80079-31.8827 20.5583-19.6004 24.3591-20.4331 59.8713-10.6465 66.1737 9.79017 6.3 61.7623 27.4878 71.8371 45.2197 10.089 17.7307 35.9894 150.559 128.043 134.075 92.0564-16.474 113.084-76.7245 110.895-101.908z" fill="#b7b7b7"/><path d="m1752.82 876.441c-17.8618 3.37796-33.8469 33.1429-49.0618 14.0232-13.0347-16.3784-13.7114-11.9563-28.7386-15.4642-20.713-4.83662-21.5043-8.66457-31.4752 2.13307-7.00158 5.44725 11.3303 46.363-14.9079 50.4071-26.2347 4.04882-35.152-35.3433-33.5929-47.8654 1.32284-10.6394-45.4111-13.6772-59.5548 9.0378-7.56497 12.15-.833859 29.2748 16.4811 61.8993 57.7678 108.848 123.619 116.33 204.389 24.2244 52.904-60.3319 42.8681-122.591-3.53859-98.3954z" fill="#202020"/><path d="m0 0h2048v2048h-2048z" fill="none"/></svg>