<svg clip-rule="evenodd" fill-rule="evenodd" height="2048" image-rendering="optimizeQuality" shape-rendering="geometricPrecision" text-rendering="geometricPrecision" viewBox="0 0 2048 2048" width="2048" xmlns="http://www.w3.org/2000/svg"><path d="m1302.79 590.319 102.053-47.0859 3.69095 22.689s14.8795 78.6591 29.9433 96.5883l-14.1484 58.3536-46.5189 6.34961s-55.9748-61.9241-70.1941-96.4725l-4.82599-40.4221z" fill="#a8a8a8"/><g fill="#b7b7b7"><path d="m521.031 1227.78c-46.1918 78.1796-33.5717 200.955-3.00355 279.566 9.52324 24.4902 28.05 55.8981 55.3323 88.9453 61.6619 74.6859 149.118 136.136 249.019 169.433 111.63 37.2059 201.187 28.3831 314.81 13.1504-50.4508-54.052-83.9587-176.936-93.7666-251.356-.400394.11811-.843308.183071-1.32874.183071-88.1953-.0921261-154.292-21.7441-193.617-70.1953-36.0024-44.3599-58.454-106.961-79.7505-184.968l-3.78662-13.8673-1.7504-1.76221c-3.58937-3.61536 8.33386-6.66969 13.0181-10.3984 60.2646-47.9681 174.769-137.111 226.656-175.821l264.421-309.43c3.49252-4.08544 8.61969-6.45355 13.9807-6.45355v.0177165l55.8709-.00236221v-.0177165c7.96064 0 15.4311-4.22835 19.513-11.0327 4.29095-7.15158 8.61733-13.6252 12.9331-19.5449.0484252-.0708662.100394-.138189.152362-.206693 47.8512-65.4792 94.532-63.052 79.1351-160.656-.219685-1.39488-.908268-2.49213-1.80591-3.26339-2.7567-2.36693-4.3878-1.09606-6.95079-.0673229-20.2335 8.11182-59.5725 30.1807-83.0434 45.3733-26.4709 17.1343-53.3245 37.5-76.4304 60.8693l-.259843.258662c-6.52914 6.00119-18.5894 20.1791-24.078 27.3555l-4.00512 3.86103c-94.4953 66.7524-178.914 143.085-244.112 218.851-27.1453 31.5461-59.8217 74.6953-72.8587 97.5674l.00472441.0153543c-2.30079 3.81496-5.40119 6.58347-9.62245 8.1378-1.42087.52441-96.2174 35.5488-197.015 78.5044-50.8193 21.6567-103.149 45.3166-145.785 67.5615-20.4543 10.6713-43.7882 28.7776-61.8768 59.393z"/><path d="m1317.36 284.619-9.95316 45.7418c-14.9433 68.9493-21.8788 100.949-58.5272 183.404l.0165354.0153543-.10748.220866c-10.7976 24.939 22.6795 69.0544 49.2118 104.01 3.42284 4.50945 6.74292 8.88426 9.61064 12.7299 31.4788-25.4362 66.9508-47.1874 100.918-64.8189l-48.7323-299.584c-2.85236-5.14252-6.83623-8.21339-11.1969-9.5256-14.3008-4.30512-31.2933 9.02127-31.2555 27.8067h.0153543z"/><path d="m1420.54 1300.39c-47.8193 30.9461-110.586 57.7264-143.798 106.391 18.4713 78.6969 60.006 196.725 130.335 243.471 70.6406-63.176 142.055-145.798 191.616-218.072 85.904-125.271 136.377-238.941 139.102-256.845-19.4977-75.8611-240.624-418.842-299.316-512.831-15.8303 18.9414-38.2985 34.7055-60.6674 64.7044 17.3764 43.1351 33.4559 85.1835 48.7583 125.196 54.5209 142.573 99.1406 259.255 146.231 281.768l.00826772-.0153543c2.0752.992127 2.96339 3.46772 2.00433 5.55119-29.1508 79.7032-91.4753 120.041-154.273 160.682z"/></g><path d="m1150.07 1427.22c-61.0725 31.4386-98.8513 81.0662-109.893 97.0028 1.19173 9.80552 3.88111 29.9705 8.50631 54.9874 3.04134 16.4445 6.94371 35.1189 11.8536 54.5705 9.40985 37.2945 20.3469 68.9339 32.4981 94.3028 11.6221 24.2705 24.3272 42.776 37.8307 54.9745 3.54449-.637796 6.9319-1.26496 10.0973-1.87205 4.11969-.791339 8.16497-1.60039 12.098-2.43189 48.4796-10.2413 93.9036-26.7555 136.288-47.8772 44.5418-22.1977 85.6855-49.4634 123.465-79.8851-.464174-.572835-.752363-1.23543-.870473-1.91811-31.2803-20.8477-56.3327-53.7024-76.0288-89.2276-33.8362-61.03-51.9201-130.042-58.506-158.882-49.6713-3.78544-92.3398 8.24056-127.338 26.2559z" fill="#8e8e8f"/><path d="m352.186 888.67s-20.3351 37.0063-26.1603 54.5363c-5.82638 17.5335-9.68032 46.141-4.3878 61.4197 3.88347 11.1992 16.1858 16.2225 14.3669 28.3666-1.81772 12.1429-20.3362 84.2989-11.4224 91.0595 13.624 10.3205 13.5662-1.93228 27.6319.870473 4.72796.940158 7.63465 11.1473 9.39095 15.5492 1.75866 4.40315 6.41457 44.589 26.9055 52.8367 20.491 8.24764 42.5492-4.30512 56.2595-9.48898 13.7114-5.18622 30.8504-10.9488 42.0201-9.93072 14.2878 1.30039 28.2047 40.9477 35.6847 66.3426 3.55158 12.0602 19.5697 19.3134 19.5697 19.3134.0011811.0011811 11.2701 12.7902 50.2465-1.21299 38.9882-13.9949 64.467-53.5654 57.7571-67.4516-6.71457-13.8874-50.8288-73.7493-49.9666-100.755.844489-27.0154 63.339-195.073-52.1174-240.042-115.453-44.9811-180.853 8.60316-195.778 38.5866z" fill="#b7b7b7"/><path d="m347.159 956.139c22.5272 8.52402 61.1634-14.0811 65.1532 18.0461 3.41929 27.5209 7.24016 22.9902 21.8055 37.3394 20.0729 19.7776 18.3236 24.6532 37.0548 19.3347 11.6787-1.31929 19.226-60.2422 51.6815-46.6843 32.4567 13.5484 15.3201 64.2426 4.90512 77.3221-8.84646 11.113 41.8878 46.8378 73.5709 30.9307 16.9477-8.50867 21.1701-32.5193 24.137-81.365 9.90001-162.965-59.3752-216.923-214.323-168.604-101.493 31.6524-133.166 108.971-63.9851 113.68z" fill="#202020"/><path d="m0 0h2048v2048h-2048z" fill="none"/></svg>